<?xml version="1.0" standalone="no"?>
<!DOCTYPE svg PUBLIC "-//W3C//DTD SVG 1.1//EN" "http://www.w3.org/Graphics/SVG/1.1/DTD/svg11.dtd" >
<svg xmlns="http://www.w3.org/2000/svg" xmlns:xlink="http://www.w3.org/1999/xlink" version="1.1">
<metadata>
Created by FontForge 20170731 at Mon Jan 11 05:49:03 2021
 By Aleksey,,,
(C) 2020 BY MIRAE WELL LIFE ALL RIGHTS RESERVED.
</metadata>
<defs>
<font id="JalpullineunoneulM" horiz-adv-x="920" >
  <font-face 
    font-family="Jalpullineunoneul Medium"
    font-weight="400"
    font-stretch="normal"
    units-per-em="1000"
    panose-1="2 2 6 3 2 1 1 2 1 1"
    ascent="800"
    descent="-200"
    x-height="479"
    cap-height="677"
    bbox="-57 -340 1088 800"
    underline-thickness="25"
    underline-position="-181"
    unicode-range="U+0020-FFE6"
  />
<missing-glyph horiz-adv-x="900" 
d="M50 -150v900h800v-900h-800zM115 -114h670l-335 385zM424 301l-334 384v-768zM783 714h-667l333 -384zM476 300l334 -384v770z" />
    <glyph glyph-name=".notdef" horiz-adv-x="900" 
d="M50 -150v900h800v-900h-800zM115 -114h670l-335 385zM424 301l-334 384v-768zM783 714h-667l333 -384zM476 300l334 -384v770z" />
    <glyph glyph-name="glyph1" horiz-adv-x="0" 
 />
    <glyph glyph-name="glyph2" horiz-adv-x="1024" 
 />
    <glyph glyph-name="space" unicode=" " horiz-adv-x="299" 
 />
    <glyph glyph-name="exclam" unicode="!" horiz-adv-x="342" 
d="M161 77q-23 0 -37.5 13.5t-14.5 36.5l-8 604h89q23 0 37.5 -13.5t14.5 -36.5l-10 -604h-71zM83 -93q0 16 6.5 30.5t17.5 25t26.5 17t32.5 6.5q35 0 60 -23.5t25 -55.5q0 -16 -6.5 -30.5t-18 -25.5t-27 -17.5t-33.5 -6.5q-17 0 -32.5 6.5t-26.5 17.5t-17.5 25.5t-6.5 30.5
z" />
    <glyph glyph-name="quotedbl" unicode="&#x22;" horiz-adv-x="427" 
d="M312 763q23 0 38 -14t14 -37l-11 -203h-53q-23 0 -37 13t-15 36l-11 205h75zM139 763q23 0 38 -14t14 -37l-11 -203h-53q-23 0 -37 13t-15 36l-11 205h75z" />
    <glyph glyph-name="numbersign" unicode="#" horiz-adv-x="704" 
d="M317 676q26 0 38 -15t7 -38l-32 -142h132l45 195h56q26 0 38 -15t7 -38l-32 -142h93v-42q0 -23 -14.5 -36.5t-37.5 -13.5h-62l-48 -210h132v-42q0 -23 -14.5 -36.5t-37.5 -13.5h-101l-46 -201h-60q-26 0 -37.5 14.5t-6.5 38.5l34 148h-130l-46 -201h-60q-26 0 -37.5 14.5
t-6.5 38.5l34 148h-38q-23 0 -37 13.5t-14 36.5v42h111l48 210h-78q-23 0 -37 13.5t-14 36.5v42h151l45 195h56zM261 179h131l48 210h-131z" />
    <glyph glyph-name="dollar" unicode="$" horiz-adv-x="632" 
d="M321 -188q-24 0 -33 13.5t-9 36.5v53q-45 2 -86 12t-81 30q-25 13 -29.5 31.5t8.5 41.5l23 40q32 -20 73.5 -36.5t91.5 -20.5v259q-94 44 -142.5 91.5t-48.5 118.5q0 40 14 72.5t39.5 56.5t60.5 39t77 21v106h45q24 0 38 -13.5t14 -36.5v-55q46 -4 86 -16t85 -34l-21 -47
q-10 -22 -30.5 -27t-44.5 5q-23 9 -40.5 14.5t-34.5 7.5v-229q49 -23 84.5 -45.5t58.5 -48.5t34 -57.5t11 -71.5q0 -82 -51.5 -133.5t-136.5 -68.5v-109h-55zM455 118q0 37 -19 62t-60 48v-206q38 11 58.5 34.5t20.5 61.5zM197 482q0 -29 20.5 -50t61.5 -42v183
q-42 -8 -62 -31.5t-20 -59.5z" />
    <glyph glyph-name="percent" unicode="%" horiz-adv-x="1063" 
d="M274 687q41 0 76 -14t60.5 -42t40 -69.5t14.5 -96.5q0 -65 -14.5 -109.5t-40 -72.5t-60.5 -40.5t-76 -12.5q-42 0 -77 12.5t-60.5 39.5t-39.5 69.5t-14 102.5t14 103.5t39 72.5t60.5 43t77.5 14zM274 597q-37 0 -57.5 -33.5t-20.5 -105.5q-3 -73 19 -106t60 -33
q42 0 60 33t18 107q0 72 -18 105t-61 33zM307 -115q-28 0 -37 16.5t5 39.5l422 765h57q29 0 37 -16.5t-5 -39.5l-422 -765h-57zM790 367q41 0 76 -14t60.5 -42t40 -69.5t14.5 -96.5q0 -65 -14.5 -109.5t-40 -73t-60.5 -41t-76 -12.5q-42 0 -77 12.5t-60.5 39.5t-39.5 70
t-14 103t14 103.5t39 72.5t60.5 43t77.5 14zM790 277q-37 0 -57.5 -34.5t-20.5 -104.5q-2 -74 20 -106.5t60 -32.5q41 0 59.5 32.5t18.5 107.5q0 71 -19 104.5t-61 33.5z" />
    <glyph glyph-name="ampersand" unicode="&#x26;" horiz-adv-x="812" 
d="M683 283q24 0 36.5 -14.5t7.5 -37.5q-7 -32 -14.5 -58t-16 -49t-19 -44.5t-23.5 -44.5l81 -93q17 -20 11 -38.5t-32 -18.5h-72l-60 67q-42 -36 -99.5 -58t-127.5 -22q-68 0 -123 15t-93.5 44.5t-59.5 73.5t-21 102q0 74 47 135.5t133 102.5q-38 49 -57 91t-19 84
q0 50 19.5 86.5t51 60t71.5 35t80 11.5q43 0 81.5 -12.5t66.5 -35.5t44.5 -57t16.5 -76q0 -37 -13 -70t-37 -61t-57 -51.5t-73 -41.5l166 -187q19 40 28.5 83t13.5 79h62zM353 -29q51 0 90.5 16.5t69.5 44.5l-206 231q-24 -12 -47 -27t-41 -34t-29 -41t-11 -47
q0 -143 174 -143zM281 525q0 -36 17 -69.5t46 -69.5q57 24 94.5 59t37.5 86q0 42 -25.5 64.5t-67.5 22.5q-44 0 -73 -21.5t-29 -71.5z" />
    <glyph glyph-name="quotesingle" unicode="'" horiz-adv-x="259" 
d="M139 763q23 0 38 -14t14 -37l-11 -203h-53q-23 0 -37 13t-15 36l-11 205h75z" />
    <glyph glyph-name="parenleft" unicode="(" horiz-adv-x="427" 
d="M318 773q26 0 33.5 -17.5t-4.5 -38.5q-39 -68 -64.5 -124.5t-40 -107.5t-20 -100t-5.5 -101q0 -41 7 -93t22.5 -109t39.5 -116t58 -113q13 -20 6.5 -38t-32.5 -18h-48q-35 44 -65.5 97.5t-53.5 115.5t-36.5 131t-13.5 143t14 143.5t37 131.5t54 116t66 98h46z" />
    <glyph glyph-name="parenright" unicode=")" horiz-adv-x="427" 
d="M157 773q34 -44 65.5 -98t54.5 -116t37 -131.5t14 -143.5t-13.5 -143t-36.5 -131t-53.5 -115.5t-65.5 -97.5h-48q-26 0 -32.5 18t6.5 38q34 54 58 113t39.5 116t22.5 109t7 93q0 52 -5.5 101t-20 100t-40 107.5t-64.5 124.5q-12 21 -4.5 38.5t33.5 17.5h46z" />
    <glyph glyph-name="asterisk" unicode="*" horiz-adv-x="522" 
d="M435 650l19 -49q7 -17 1 -31t-26 -20l-88 -26l88 -106l-48 -35q-16 -12 -32.5 -9.5t-27.5 17.5l-60 77l-83 -110l-50 37q-30 24 -7 53l59 76l-129 38l19 50q15 37 54 23l87 -31v131h58q20 0 31 -10.5t11 -29.5v-90z" />
    <glyph glyph-name="plus" unicode="+" horiz-adv-x="715" 
d="M363 569q23 0 37 -13.5t14 -36.5v-172h229v-50q0 -23 -14 -36.5t-37 -13.5h-178v-223h-61q-23 0 -37.5 13.5t-14.5 36.5v173h-177q-23 0 -37.5 13.5t-14.5 36.5v50h229v222h62z" />
    <glyph glyph-name="comma" unicode="," horiz-adv-x="354" 
d="M169 -245q-11 -6 -23.5 -4.5t-18.5 9.5l-16 21q32 18 49.5 42t22.5 54q-18 -3 -34 2t-28 15t-19 24.5t-7 30.5q0 29 21 52.5t61 23.5q48 0 69.5 -29t21.5 -74q0 -50 -24.5 -95.5t-74.5 -71.5z" />
    <glyph glyph-name="hyphen" unicode="-" horiz-adv-x="523" 
d="M121 246q-23 0 -37.5 13.5t-14.5 36.5v50h385v-50q0 -23 -14.5 -36.5t-37.5 -13.5h-281z" />
    <glyph glyph-name="period" unicode="." horiz-adv-x="354" 
d="M93 -54q0 32 24.5 55.5t59.5 23.5t60 -23.5t25 -55.5q0 -16 -6.5 -30.5t-18 -25.5t-27 -17.5t-33.5 -6.5q-35 0 -59.5 24t-24.5 56z" />
    <glyph glyph-name="slash" unicode="/" horiz-adv-x="548" 
d="M87 -160q-28 0 -38 16t1 39l356 824h53q27 0 37 -15.5t1 -39.5l-359 -824h-51z" />
    <glyph glyph-name="zero" unicode="0" horiz-adv-x="678" 
d="M178 292q0 -94 12.5 -156t34 -98.5t50.5 -51t63 -14.5t63 14.5t50.5 51t34 98.5t12.5 156t-12.5 156t-34 98.5t-50.5 51t-63 14.5t-63 -14.5t-50.5 -51t-34 -98.5t-12.5 -156zM47 292q0 114 21 194t59 130.5t91.5 73t119.5 22.5t119.5 -22.5t92 -73t59.5 -130.5t21 -194
t-21 -194t-59.5 -130.5t-92 -73t-119.5 -22.5t-119.5 22.5t-91.5 73t-59 130.5t-21 194z" />
    <glyph glyph-name="one" unicode="1" horiz-adv-x="678" 
d="M217 540q-22 -11 -40.5 -6.5t-28.5 21.5l-26 45l209 106h50q24 0 38 -13.5t14 -36.5v-721q0 -23 -14 -36.5t-38 -13.5h-75v699z" />
    <glyph glyph-name="two" unicode="2" horiz-adv-x="678" 
d="M112 -109q-23 0 -37.5 13.5t-14.5 36.5v43q105 78 180 141.5t123 119t71.5 104.5t26.5 98q2 37 -8 66t-29.5 49.5t-47 31.5t-61.5 11q-36 0 -70.5 -12.5t-70.5 -44.5q-20 -17 -40.5 -17.5t-38.5 17.5l-38 38q55 63 121 94.5t159 31.5q60 0 107.5 -19t79.5 -52.5
t48.5 -79.5t15.5 -100q-4 -115 -89.5 -228t-258.5 -237h383v-55q0 -23 -14 -36.5t-38 -13.5h-459z" />
    <glyph glyph-name="three" unicode="3" horiz-adv-x="678" 
d="M102 34q33 -29 85.5 -43.5t105.5 -14.5q56 0 93.5 13.5t60 35t32 47.5t9.5 50q0 42 -18.5 69t-49 43t-71 22.5t-84.5 6.5h-14q-46 0 -46 45v62h60q34 0 68.5 6.5t61.5 21t44 38.5t17 59q0 23 -7.5 43.5t-24 35.5t-43.5 24t-65 9q-35 0 -71 -11t-68 -35q-17 -13 -36 -14
t-33 16l-36 46q60 55 122 79t135 24q66 0 114.5 -16.5t79.5 -43.5t46 -63t15 -75q0 -26 -7 -53.5t-22.5 -53t-41.5 -48.5t-63 -39q35 -10 65 -26t52.5 -40.5t36 -58t13.5 -76.5q0 -51 -20.5 -96t-61 -78.5t-101 -53t-139.5 -19.5q-60 0 -116 11.5t-101 40.5
q-18 11 -19.5 29.5t12.5 37.5z" />
    <glyph glyph-name="four" unicode="4" horiz-adv-x="678" 
d="M414 37h-329q-23 0 -37.5 13.5t-14.5 36.5v32l369 592h84q23 0 37 -13.5t14 -36.5v-522h107v-52q0 -23 -14 -36.5t-37 -13.5h-56v-102q0 -23 -14 -36.5t-37 -13.5h-72v152zM414 523l-239 -384h239v384z" />
    <glyph glyph-name="five" unicode="5" horiz-adv-x="678" 
d="M576 650q0 -23 -14 -36.5t-38 -13.5h-271l-8 -189q12 1 23.5 1.5t25.5 0.5q62 0 118 -13.5t98 -44t67 -81t25 -124.5q0 -68 -23.5 -120t-65.5 -87t-101 -53t-130 -18q-58 0 -101 9.5t-88 32.5q-17 8 -21.5 27.5t5.5 39.5l27 53q34 -29 83 -42.5t95 -13.5q42 0 78.5 10
t62.5 30t41 51.5t15 74.5q0 84 -54.5 126t-173.5 42q-16 0 -35 -2t-41 -7q-29 -7 -44.5 3.5t-14.5 41.5l14 358h446v-56z" />
    <glyph glyph-name="six" unicode="6" horiz-adv-x="678" 
d="M554 666q2 -23 -10.5 -37t-36.5 -16q-76 -5 -132 -23t-94 -50t-60.5 -76.5t-32.5 -101.5q36 36 82 53t103 17t104 -17t81 -50.5t53 -83t19 -115.5q0 -63 -19 -116.5t-55.5 -93t-89 -62t-119.5 -22.5q-68 0 -123 22t-94 66t-60 110t-21 153q0 128 32 221t95 153
t156.5 89.5t216.5 31.5zM349 -28q68 0 109 45.5t41 139.5q0 178 -160 178q-47 0 -88 -27.5t-64 -68.5q-5 -8 -7.5 -17.5t-2.5 -26.5q0 -105 42 -164t130 -59z" />
    <glyph glyph-name="seven" unicode="7" horiz-adv-x="678" 
d="M558 706q23 0 37 -13.5t14 -36.5v-32l-307 -697q-8 -19 -24 -30.5t-42 -11.5h-88l318 715h-346q-24 0 -38 13.5t-14 36.5v56h490z" />
    <glyph glyph-name="eight" unicode="8" horiz-adv-x="678" 
d="M47 94q0 69 36.5 123.5t122.5 93.5q-38 18 -62.5 38.5t-39 43.5t-20.5 47.5t-6 49.5q0 56 20.5 98t56.5 69.5t85.5 41t107.5 13.5q62 0 109.5 -15.5t79.5 -43t48.5 -64.5t16.5 -80q0 -23 -6 -48t-21 -49.5t-40.5 -48t-64.5 -43.5q87 -37 124.5 -87t37.5 -119
q0 -60 -23 -105.5t-63 -75.5t-93.5 -45.5t-114.5 -15.5q-67 0 -121 16t-91.5 45t-58 70t-20.5 91zM502 101q0 34 -12 59t-34.5 45t-54.5 35.5t-73 29.5q-72 -30 -111.5 -71.5t-39.5 -86.5q0 -65 42.5 -103.5t120.5 -38.5q73 0 117.5 34.5t44.5 96.5zM197 499q0 -29 10 -50.5
t29.5 -38t49 -29.5t68.5 -25q128 49 128 141q0 53 -34 87.5t-107 34.5q-67 0 -105.5 -33.5t-38.5 -86.5z" />
    <glyph glyph-name="nine" unicode="9" horiz-adv-x="678" 
d="M199 -120q-24 -2 -37.5 12t-15.5 37l-4 51q85 3 146.5 20.5t102.5 50t64.5 78t33.5 103.5q-70 -70 -185 -70q-57 0 -104 17t-81 50.5t-53 83t-19 115.5q0 63 19 115t55.5 89.5t89 58.5t119.5 21q68 0 123 -20.5t94 -62.5t60 -106.5t21 -151.5q0 -116 -28.5 -205
t-83.5 -150.5t-134.5 -95.5t-182.5 -40zM328 612q-68 0 -109 -41t-41 -134q0 -178 160 -178q47 0 88 27.5t64 68.5q5 8 7.5 17.5t2.5 26.5q0 105 -42 159t-130 54z" />
    <glyph glyph-name="colon" unicode=":" horiz-adv-x="354" 
d="M93 126q0 32 24.5 55.5t59.5 23.5t60 -23.5t25 -55.5q0 -16 -6.5 -30.5t-18 -25.5t-27 -17.5t-33.5 -6.5q-35 0 -59.5 24t-24.5 56zM93 526q0 32 24.5 55.5t59.5 23.5t60 -23.5t25 -55.5q0 -16 -6.5 -30.5t-18 -25.5t-27 -17.5t-33.5 -6.5q-35 0 -59.5 24t-24.5 56z" />
    <glyph glyph-name="semicolon" unicode=";" horiz-adv-x="354" 
d="M93 526q0 32 24.5 55.5t59.5 23.5t60 -23.5t25 -55.5q0 -16 -6.5 -30.5t-18 -25.5t-27 -17.5t-33.5 -6.5q-35 0 -59.5 24t-24.5 56zM169 -65q-11 -6 -23.5 -4.5t-18.5 9.5l-16 21q32 18 49.5 42t22.5 54q-18 -3 -34 2t-28 15t-19 24.5t-7 30.5q0 29 21 52.5t61 23.5
q48 0 69.5 -29t21.5 -74q0 -50 -24.5 -95.5t-74.5 -71.5z" />
    <glyph glyph-name="less" unicode="&#x3c;" horiz-adv-x="714" 
d="M563 606q10 5 20.5 5t18.5 -4.5t13.5 -13t5.5 -19.5v-54l-406 -232l406 -231v-52q0 -11 -5.5 -19.5t-13.5 -13t-18.5 -4.5t-20.5 5l-492 280v73z" />
    <glyph glyph-name="equal" unicode="=" horiz-adv-x="704" 
d="M128 357q-23 0 -37.5 13.5t-14.5 36.5v50h554v-50q0 -23 -14.5 -36.5t-37.5 -13.5h-450zM128 135q-23 0 -37.5 13.5t-14.5 36.5v50h554v-50q0 -23 -14.5 -36.5t-37.5 -13.5h-450z" />
    <glyph glyph-name="greater" unicode="&#x3e;" horiz-adv-x="714" 
d="M643 326v-73l-492 -280q-20 -11 -39 -1t-19 33v52l406 231l-406 232v54q0 23 19 33t39 -1z" />
    <glyph glyph-name="question" unicode="?" horiz-adv-x="583" 
d="M206 187q0 29 2.5 54t11 47t23.5 39.5t39 31.5q59 33 85.5 72.5t26.5 88.5q0 52 -32.5 83t-88.5 31q-38 0 -67 -12.5t-58 -44.5q-17 -18 -38.5 -19t-37.5 14l-40 40q43 58 102.5 91t149.5 33q56 0 100 -15t74.5 -42.5t46.5 -66t16 -84.5q0 -71 -32.5 -127t-96.5 -101
q-17 -12 -30 -23t-21 -24t-12 -29t-4 -38v-59q0 -23 -14 -36.5t-37 -13.5h-68v110zM178 -93q0 32 24.5 55.5t59.5 23.5q17 0 32.5 -6.5t27 -17t18.5 -25t7 -30.5t-7 -30.5t-18.5 -25.5t-27 -17.5t-32.5 -6.5q-35 0 -59.5 24t-24.5 56z" />
    <glyph glyph-name="at" unicode="@" horiz-adv-x="1003" 
d="M501 -197q-104 0 -184 25.5t-134.5 74t-83 119t-28.5 159.5q0 88 30.5 171.5t90.5 148t148.5 104t204.5 39.5q88 0 159.5 -27t122 -74t77.5 -112t27 -141q0 -146 -64.5 -225t-181.5 -79q-52 0 -81.5 13t-43.5 38q-23 -20 -54.5 -35.5t-70.5 -15.5q-77 0 -117.5 45.5
t-40.5 127.5q0 66 16.5 119t47 91t74 58.5t97.5 20.5q23 0 51 -11t50 -31l7 32h57q24 0 36.5 -15t7.5 -38l-56 -276q-3 -16 5.5 -26.5t28.5 -10.5q60 0 92.5 53.5t32.5 158.5q0 60 -17 110t-52 86t-87.5 56t-124.5 20q-90 0 -158.5 -29t-114 -79.5t-69 -119t-23.5 -146.5
q0 -138 79.5 -216t243.5 -78q66 0 126.5 14t101.5 30l12 -36q16 -47 -25 -60q-56 -17 -107.5 -25t-107.5 -8zM461 76q29 0 52 12t38 26l44 219q-12 10 -33.5 17t-49.5 7q-33 0 -56 -14.5t-38 -40.5t-22 -62.5t-7 -79.5q0 -42 20 -63t52 -21z" />
    <glyph glyph-name="A" unicode="A" horiz-adv-x="746" 
d="M525 94h-305l-69 -209h-75q-27 0 -37.5 15.5t-1.5 38.5l266 767h91q21 0 39 -12.5t24 -32.5l250 -722q9 -23 -1 -38.5t-37 -15.5h-74zM251 190h242l-121 366z" />
    <glyph glyph-name="B" unicode="B" horiz-adv-x="703" 
d="M339 706q132 0 203 -52t71 -160q0 -54 -25.5 -98.5t-75.5 -75.5q69 -23 105 -74t36 -119q0 -124 -69 -183t-202 -59h-231q-62 0 -62 60v701q0 29 15.5 44.5t46.5 15.5h188zM366 -10q36 0 65 7.5t50 24t32.5 43t11.5 64.5q0 66 -48 96.5t-123 30.5h-136v-266h148zM326 359
q70 0 114.5 32t44.5 101q0 30 -11.5 51t-31.5 33.5t-47 18t-58 5.5h-119v-241h108z" />
    <glyph glyph-name="C" unicode="C" horiz-adv-x="739" 
d="M49 292q0 82 22 158t69 134.5t120.5 93t176.5 34.5q68 0 131 -17t114 -54l-29 -49q-11 -18 -31.5 -23.5t-45.5 8.5q-29 16 -67 24t-73 8q-69 0 -118 -26.5t-79.5 -71t-45 -101.5t-14.5 -118q0 -58 14.5 -114.5t45 -101.5t79.5 -72.5t118 -27.5q57 0 109 17.5t94 53.5
l32 -36q18 -21 16.5 -41.5t-21.5 -34.5q-22 -16 -50.5 -28t-59 -19.5t-61.5 -11t-58 -3.5q-103 0 -176.5 35.5t-120.5 94.5t-69 134t-22 155z" />
    <glyph glyph-name="D" unicode="D" horiz-adv-x="799" 
d="M366 706q100 0 172 -30t118.5 -84.5t68 -130t21.5 -165.5t-21.5 -165.5t-68 -130t-118.5 -85t-172 -30.5h-215q-62 0 -62 60v701q0 29 15.5 44.5t46.5 15.5h215zM374 -10q51 0 94.5 15.5t76 51.5t50.5 94.5t18 144.5q0 85 -19.5 143.5t-53 94t-79.5 51t-98 15.5h-145
v-610h156z" />
    <glyph glyph-name="E" unicode="E" horiz-adv-x="691" 
d="M597 316q0 -60 -62 -60h-316v-266h416v-45q0 -25 -15.5 -42.5t-46.5 -17.5h-422q-62 0 -62 60v701q0 29 15.5 44.5t46.5 15.5h465v-46q0 -60 -62 -60h-335v-241h378v-43z" />
    <glyph glyph-name="F" unicode="F" horiz-adv-x="655" 
d="M90 646q0 29 15.5 44.5t46.5 15.5h464v-46q0 -60 -62 -60h-335v-241h371v-43q0 -60 -61 -60h-310v-311q0 -60 -61 -60h-68v761z" />
    <glyph glyph-name="G" unicode="G" horiz-adv-x="812" 
d="M49 292q0 82 22 158t69 134.5t120.5 93t176.5 34.5q68 0 131 -17t114 -54l-29 -49q-11 -18 -31.5 -23.5t-45.5 8.5q-29 16 -67 24t-73 8q-69 0 -118 -26.5t-79.5 -71t-45 -101.5t-14.5 -118q0 -58 14 -114.5t44 -101.5t77 -72.5t112 -27.5q60 0 108.5 18.5t84.5 63.5v198
h-154q-62 0 -62 60v44h281q32 0 47 -15.5t15 -44.5v-415h-65q-60 0 -62 55q-39 -32 -88 -49.5t-104 -17.5q-99 0 -170.5 35.5t-117.5 94.5t-68 134t-22 155z" />
    <glyph glyph-name="H" unicode="H" horiz-adv-x="812" 
d="M661 706q31 0 46 -15.5t15 -44.5v-761h-68q-62 0 -62 60v311h-373v-371h-68q-62 0 -62 60v761h69q31 0 46 -15.5t15 -44.5v-287h373v347h69z" />
    <glyph glyph-name="I" unicode="I" horiz-adv-x="308" 
d="M159 706q31 0 46 -15.5t15 -44.5v-761h-68q-62 0 -62 60v761h69z" />
    <glyph glyph-name="J" unicode="J" horiz-adv-x="476" 
d="M132 -127q-24 -3 -39.5 6t-20.5 32l-10 54q58 9 97 24.5t62 40.5t32.5 60.5t9.5 85.5v530h68q32 0 47 -15.5t15 -44.5v-475q0 -128 -62.5 -205t-198.5 -93z" />
    <glyph glyph-name="K" unicode="K" horiz-adv-x="731" 
d="M158 706q31 0 46 -15.5t15 -44.5v-292l344 352h74q11 0 19 -5.5t11.5 -14t2 -18.5t-10.5 -19l-286 -293l323 -414q6 -9 6.5 -19t-4 -18.5t-12.5 -14t-18 -5.5h-85l-295 384l-70 -71l1 1v-314h-68q-62 0 -62 60v761h69z" />
    <glyph glyph-name="L" unicode="L" horiz-adv-x="642" 
d="M158 706q31 0 46 -15.5t15 -44.5v-656h385v-45q0 -60 -62 -60h-381q-40 0 -56 15.5t-16 54.5v751h69z" />
    <glyph glyph-name="M" unicode="M" horiz-adv-x="956" 
d="M810 -115q-62 0 -62 60v604l-205 -664h-82q-21 0 -38 12.5t-23 32.5l-192 617v-662h-56q-62 0 -62 60v761h127q21 0 38.5 -12.5t23.5 -32.5l199 -657l214 702h122q23 0 37.5 -13.5t14.5 -36.5v-771h-56z" />
    <glyph glyph-name="N" unicode="N" horiz-adv-x="817" 
d="M671 706q31 0 46 -15.5t15 -44.5v-761h-111q-26 0 -47 11t-31 31l-331 641v-683h-61q-62 0 -62 60v761h118q25 0 44 -11.5t28 -31.5l329 -633v676h63z" />
    <glyph glyph-name="O" unicode="O" horiz-adv-x="860" 
d="M430 -128q-83 0 -151.5 28.5t-118.5 82t-77.5 130.5t-27.5 174q0 100 27.5 179t77 133.5t118.5 83.5t152 29q84 0 153 -29t118.5 -83.5t77 -133.5t27.5 -179q0 -97 -27.5 -174t-77.5 -130.5t-119 -82t-152 -28.5zM430 612q-62 0 -108 -25.5t-76.5 -70t-45.5 -103.5
t-15 -126q0 -68 16 -125.5t47 -99.5t77 -65.5t105 -23.5t104.5 23.5t77 65.5t47.5 99.5t16 125.5q0 67 -15 126t-45.5 103.5t-76.5 70t-108 25.5z" />
    <glyph glyph-name="P" unicode="P" horiz-adv-x="688" 
d="M370 706q135 0 203 -66.5t68 -185.5q0 -118 -68.5 -185t-202.5 -67h-152v-257q0 -60 -61 -60h-68v761q0 29 15.5 44.5t46.5 15.5h219zM365 306q67 0 108 35.5t41 110.5t-41 111.5t-108 36.5h-147v-294h147z" />
    <glyph glyph-name="Q" unicode="Q" horiz-adv-x="860" 
d="M430 -128q-83 0 -152 28.5t-118.5 82t-77 130.5t-27.5 174q0 100 27 179t76.5 133.5t118.5 83.5t153 29t153 -29t118.5 -83.5t77 -133.5t27.5 -179q0 -97 -27 -172.5t-77 -129.5l103 -102l-36 -37q-22 -23 -46.5 -23.5t-46.5 20.5l-70 69q-80 -40 -176 -40zM432 159
q22 22 46.5 22t45.5 -20l92 -92q29 42 44 97t15 121q0 67 -15 126t-45.5 103.5t-76.5 70t-108 25.5t-108.5 -25.5t-77 -70t-45.5 -103.5t-15 -126q0 -68 16 -125t47.5 -99t77.5 -65.5t105 -23.5q50 0 94 19l-129 127z" />
    <glyph glyph-name="R" unicode="R" horiz-adv-x="704" 
d="M370 706q136 0 203.5 -63.5t67.5 -183.5q0 -93 -42.5 -153t-127.5 -82l198 -283q6 -9 6.5 -18.5t-3 -18t-11.5 -14t-20 -5.5h-82l-224 328h-117v-268q0 -60 -61 -60h-67v761q0 29 15.5 44.5t46.5 15.5h218zM365 317q68 0 108.5 33t40.5 107q0 75 -40.5 109t-108.5 34
h-147v-283h147z" />
    <glyph glyph-name="S" unicode="S" horiz-adv-x="643" 
d="M95 38q50 -34 98.5 -48.5t107.5 -14.5q37 0 67.5 7.5t52.5 23.5t34.5 40.5t12.5 57.5q0 28 -10 48.5t-30.5 37t-51.5 31t-73 29.5q-54 20 -98.5 44.5t-76 55t-48.5 68t-17 84.5q0 52 21.5 91t59.5 65.5t90 40t114 13.5q63 0 121.5 -19t107.5 -54l-27 -48q-12 -21 -33 -25
t-44 8q-34 17 -68.5 27t-61.5 10q-77 0 -116 -28.5t-39 -79.5q0 -29 13 -51t36.5 -40t56.5 -33.5t74 -30.5q55 -21 97 -44.5t71 -53t44 -66.5t15 -83q0 -47 -18.5 -89t-55.5 -73t-92 -49t-127 -18q-62 0 -116 12t-99 38q-21 13 -25.5 33.5t7.5 40.5l26 42v0z" />
    <glyph glyph-name="T" unicode="T" horiz-adv-x="655" 
d="M83 600q-62 0 -62 60v46h613v-46q0 -60 -62 -60h-184v-655q0 -60 -62 -60h-67v715h-176z" />
    <glyph glyph-name="U" unicode="U" horiz-adv-x="803" 
d="M403 -126q-65 0 -122.5 18t-100 57t-67 100.5t-24.5 148.5v508h69q31 0 46 -15.5t15 -44.5v-464q0 -55 13.5 -93.5t37.5 -62.5t58 -35t75 -11q40 0 73.5 11t57.5 35t37.5 62.5t13.5 93.5v524h69q31 0 46 -15.5t15 -44.5v-448q0 -87 -24.5 -148.5t-66.5 -100.5t-99 -57
t-122 -18z" />
    <glyph glyph-name="V" unicode="V" horiz-adv-x="735" 
d="M367 35l221 671h75q23 0 35 -17t5 -37l-267 -767h-91q-21 0 -39 12.5t-24 32.5l-250 722q-7 20 4 37t34 17h74z" />
    <glyph glyph-name="W" unicode="W" horiz-adv-x="1071" 
d="M552 706q23 0 39.5 -13t21.5 -33l149 -603l165 649h77q22 0 34.5 -16.5t7.5 -36.5l-211 -768h-92q-23 0 -38.5 13t-20.5 33l-149 579l-159 -625h-92q-23 0 -40 13t-22 33l-197 722q-5 20 7 36.5t35 16.5h76l164 -649l162 649h83z" />
    <glyph glyph-name="X" unicode="X" horiz-adv-x="737" 
d="M300 296l-241 354q-13 18 -4.5 37t31.5 19h76l208 -307l208 307h76q23 0 31.5 -19t-4.5 -37l-241 -354l241 -355q13 -18 4.5 -37t-31.5 -19h-74l-210 308l-210 -308h-74q-23 0 -31.5 19t4.5 37z" />
    <glyph glyph-name="Y" unicode="Y" horiz-adv-x="748" 
d="M308 232l-262 418q-6 9 -6.5 19t4 18t13 13.5t19.5 5.5h77l220 -365l225 365h74q23 0 31.5 -18.5t-3.5 -37.5l-263 -417v-288q0 -60 -62 -60h-67v347z" />
    <glyph glyph-name="Z" unicode="Z" horiz-adv-x="704" 
d="M506 600h-388q-62 0 -62 60v46h536q31 0 46.5 -15.5t15.5 -44.5v-35l-464 -621h469v-45q0 -60 -61 -60h-495q-62 0 -62 60v33z" />
    <glyph glyph-name="bracketleft" unicode="[" horiz-adv-x="427" 
d="M107 773h264v-39q0 -60 -62 -60h-77v-776h139v-41q0 -60 -62 -60h-202v976z" />
    <glyph glyph-name="backslash" unicode="\" horiz-adv-x="1147" 
d="M1088 316q0 -60 -62 -60h-60l-95 -360h-79q-23 0 -40 13t-22 33l-86 314h-134l-99 -360h-79q-23 0 -39 12.5t-21 33.5l-83 314h-68q-62 0 -62 60v43h103l-72 276q-6 20 7 36.5t35 16.5h61l84 -329h148l90 329h76q23 0 39.5 -13t22.5 -33l76 -283h148l84 329h62
q22 0 35.5 -16.5t8.5 -36.5l-73 -276h94v-43zM805 78l45 178h-93zM349 79l48 177h-93zM538 359h77l-38 141z" />
    <glyph glyph-name="bracketright" unicode="]" horiz-adv-x="428" 
d="M321 -203h-202q-62 0 -62 60v41h139v776h-77q-62 0 -62 60v39h264v-976z" />
    <glyph glyph-name="asciicircum" unicode="^" horiz-adv-x="583" 
d="M297 794q28 0 45 -10.5t28 -33.5l146 -295q10 -20 -0.5 -37.5t-34.5 -17.5h-61l-131 277l-131 -277h-62q-23 0 -33.5 17.5t-0.5 37.5l166 339h69z" />
    <glyph glyph-name="underscore" unicode="_" horiz-adv-x="548" 
d="M548 -262h-548v100h548v-100z" />
    <glyph glyph-name="grave" unicode="`" horiz-adv-x="419" 
d="M222 777q19 0 35 -10.5t23 -29.5l52 -150h-85q-21 0 -37 8.5t-27 28.5l-78 153h117z" />
    <glyph glyph-name="a" unicode="a" horiz-adv-x="600" 
d="M272 261q35 0 67.5 -3t64.5 -8v42q0 104 -128 104q-23 0 -55 -7t-66 -25q-23 -12 -42.5 -6.5t-30.5 26.5l-20 38q40 29 99.5 49t129.5 20q124 0 181.5 -57t57.5 -166v-383h-64q-56 0 -62 48q-29 -29 -69.5 -45t-97.5 -16q-100 0 -153.5 47t-53.5 147q0 92 60 143.5
t182 51.5zM264 -33q45 0 81.5 20t58.5 61v116q-29 5 -65.5 8t-65.5 2q-54 -2 -83.5 -30.5t-29.5 -79.5t28.5 -74t75.5 -23z" />
    <glyph glyph-name="b" unicode="b" horiz-adv-x="703" 
d="M205 420q33 37 83.5 54t100.5 17q59 0 109.5 -22t88 -61.5t59 -95.5t21.5 -123q0 -79 -22.5 -138.5t-60.5 -99t-87 -59.5t-102 -20q-67 0 -120 23t-82 68v-78h-55q-62 0 -62 60v794h67q31 0 46.5 -15.5t15.5 -44.5v-259zM205 125q0 -31 13 -58.5t36 -48.5t54 -33t66 -12
q41 0 71 15.5t50 43.5t30 67t10 86q0 42 -9 79.5t-29.5 65t-53 44t-79.5 16.5q-34 0 -63 -14t-50.5 -36.5t-33.5 -52t-12 -60.5v-102z" />
    <glyph glyph-name="c" unicode="c" horiz-adv-x="571" 
d="M527 -44q7 -22 -1 -39t-32 -25q-37 -11 -67.5 -15.5t-71.5 -4.5q-74 0 -132 22t-98 62.5t-61 97.5t-21 127t21.5 127t63.5 97.5t103.5 63t142.5 22.5q51 0 94.5 -11.5t69.5 -25.5l-14 -42q-8 -24 -23.5 -31.5t-39.5 -0.5q-26 8 -46.5 11t-40.5 3q-53 0 -91.5 -15.5
t-63.5 -43t-36.5 -65.5t-11.5 -83q0 -100 54 -158t150 -58q38 0 74.5 7.5t64.5 18.5z" />
    <glyph glyph-name="d" unicode="d" horiz-adv-x="700" 
d="M500 227q0 31 -12 60.5t-33.5 52t-50.5 36.5t-63 14q-47 0 -79.5 -16.5t-53 -44t-29.5 -65t-9 -79.5q0 -47 10 -86t30 -67t50 -43.5t71 -15.5q35 0 66 12t54 33t36 48.5t13 58.5v102zM512 -37q-27 -45 -80.5 -68t-121.5 -23q-53 0 -102 20t-87 59.5t-60.5 99t-22.5 138.5
q0 67 21.5 123t59 95.5t88 61.5t109.5 22q49 0 100 -17t84 -54v319h67q31 0 46.5 -15.5t15.5 -44.5v-794h-55q-62 0 -62 60v18z" />
    <glyph glyph-name="e" unicode="e" horiz-adv-x="632" 
d="M323 395q-78 0 -112.5 -44t-34.5 -114h290q0 34 -7.5 63t-24.5 50t-44.5 33t-66.5 12zM543 -11q11 -18 7 -38t-24 -31q-46 -25 -92.5 -35.5t-94.5 -10.5q-146 0 -218.5 72.5t-72.5 236.5q0 158 68 233t207 75q70 0 120 -21t82 -58t47.5 -89t15.5 -113v-12
q0 -27 -16.5 -43t-44.5 -16h-351q0 -44 9 -76t29.5 -52t53.5 -29.5t81 -9.5q42 0 82.5 11.5t90.5 42.5z" />
    <glyph glyph-name="f" unicode="f" horiz-adv-x="439" 
d="M128 383h-38q-61 0 -61 60v36h99v97q0 40 10.5 73.5t32 57.5t54.5 37t79 13q31 0 64 -6.5t65 -20.5l-15 -47q-7 -21 -20 -26.5t-33 -0.5q-11 3 -22 4t-22 1q-37 0 -51.5 -20.5t-14.5 -64.5v-97h146v-36q0 -60 -62 -60h-84v-497h-66q-61 0 -61 60v437z" />
    <glyph glyph-name="g" unicode="g" horiz-adv-x="703" 
d="M503 227q0 31 -11 60.5t-31 52t-50 36.5t-67 14q-47 0 -79 -14.5t-52.5 -41t-29.5 -62t-9 -77.5q0 -95 39.5 -148.5t122.5 -53.5q38 0 69 12t52.5 33t33.5 48.5t12 58.5v82zM571 478q31 0 46.5 -15.5t15.5 -44.5v-416q0 -77 -14.5 -140t-49.5 -108t-94.5 -69.5
t-149.5 -24.5q-46 0 -87 8t-80 22q-23 9 -29.5 28t2.5 40l22 49q42 -25 84 -35.5t92 -10.5q37 0 69.5 9.5t56.5 30.5t38 55t14 84v26q-36 -38 -85.5 -56t-107.5 -18q-53 0 -102 18.5t-87 56t-60.5 95.5t-22.5 137q0 67 21.5 121.5t59 92t88 58t109.5 20.5q57 0 107 -20.5
t76 -48.5v56h68z" />
    <glyph glyph-name="h" unicode="h" horiz-adv-x="696" 
d="M201 429q43 32 100.5 47t117.5 15q95 0 148 -49.5t53 -140.5v-416h-62q-62 0 -62 60v355q0 52 -26 74t-77 22q-49 0 -99 -15.5t-93 -47.5v-448h-63q-62 0 -62 60v794h64q31 0 46 -15.5t15 -43.5v-251z" />
    <glyph glyph-name="i" unicode="i" horiz-adv-x="303" 
d="M151 -115q-62 0 -62 60v534h63q31 0 46.5 -15.5t15.5 -44.5v-534h-63zM68 654q0 32 24.5 55.5t59.5 23.5q17 0 32.5 -6.5t27 -17t18 -25t6.5 -30.5t-6.5 -30.5t-18 -25.5t-27 -17.5t-32.5 -6.5q-35 0 -59.5 24t-24.5 56z" />
    <glyph glyph-name="j" unicode="j" horiz-adv-x="313" 
d="M-57 -245q47 5 78 15t49 26t25.5 38.5t7.5 52.5v592h63q31 0 46.5 -15.5t15.5 -44.5v-532q0 -94 -49 -148.5t-162 -73.5q-57 -9 -66 41zM82 654q0 16 6.5 30.5t17.5 25t26.5 17t32.5 6.5q35 0 60 -23.5t25 -55.5q0 -16 -6.5 -30.5t-18 -25.5t-27 -17.5t-33.5 -6.5
q-17 0 -32.5 6.5t-26.5 17.5t-17.5 25.5t-6.5 30.5z" />
    <glyph glyph-name="k" unicode="k" horiz-adv-x="595" 
d="M231 154l-31 -26v-243h-62q-62 0 -62 60v794h63q31 0 46 -15.5t15 -44.5v-411l254 210h73q13 0 22 -6t12 -14.5t0.5 -18t-11.5 -17.5l-232 -195l236 -285q8 -9 9.5 -19.5t-2.5 -18.5t-12 -13.5t-20 -5.5h-79z" />
    <glyph glyph-name="l" unicode="l" horiz-adv-x="305" 
d="M152 739q31 0 46.5 -15.5t15.5 -44.5v-794h-63q-62 0 -62 60v794h63z" />
    <glyph glyph-name="m" unicode="m" horiz-adv-x="980" 
d="M491 -115q-62 0 -62 60v366q0 44 -19.5 64.5t-64.5 20.5q-37 0 -74 -14t-70 -46v-451h-63q-62 0 -62 60v533h64q50 0 59 -41q39 29 81.5 41.5t89.5 12.5q119 0 161 -73q44 39 92.5 56t102.5 17q185 0 185 -179v-427h-64q-62 0 -62 60v366q0 44 -19.5 64.5t-64.5 20.5
q-38 0 -75.5 -14.5t-71.5 -48.5q1 -5 1 -10.5v-10.5v-427h-64z" />
    <glyph glyph-name="n" unicode="n" horiz-adv-x="670" 
d="M476 300q0 52 -26 74t-77 22q-49 0 -89.5 -15.5t-82.5 -47.5v-448h-63q-62 0 -62 60v533h64q28 0 43 -13.5t17 -36.5q42 32 90.5 47.5t108.5 15.5q95 0 148 -49.5t53 -140.5v-416h-62q-62 0 -62 60v355z" />
    <glyph glyph-name="o" unicode="o" horiz-adv-x="678" 
d="M339 -128q-62 0 -116 20.5t-94.5 59.5t-64 96t-23.5 130q0 76 23 134.5t63 98t94.5 60t117.5 20.5q64 0 118.5 -20.5t94.5 -60t62.5 -98t22.5 -134.5q0 -73 -23.5 -130t-64 -96t-95 -59.5t-115.5 -20.5zM339 397q-44 0 -76 -18t-53 -48t-31 -69.5t-10 -83.5
q0 -51 13 -90.5t35.5 -66.5t54 -41t67.5 -14q37 0 68.5 14t54 41t35.5 66.5t13 90.5q0 44 -10 83.5t-31 69.5t-53.5 48t-76.5 18z" />
    <glyph glyph-name="p" unicode="p" horiz-adv-x="703" 
d="M138 -340q-62 0 -62 60v758h55q31 0 46.5 -15.5t15.5 -44.5v-18q18 22 42 39.5t50.5 28.5t54.5 17t55 6q53 0 102 -19.5t87 -59.5t60.5 -99.5t22.5 -138.5q0 -68 -21.5 -123.5t-59 -95t-88 -61.5t-109.5 -22q-25 0 -50.5 4t-49.5 12.5t-46 22t-38 32.5v-283h-67zM205 136
q0 -31 12 -60.5t33.5 -52t50.5 -36.5t63 -14q47 0 79.5 16.5t53 44.5t29.5 65t9 79q0 47 -10 86t-30 67t-50 43.5t-71 15.5q-35 0 -66 -12t-54 -33t-36 -48.5t-13 -58.5v-102z" />
    <glyph glyph-name="q" unicode="q" horiz-adv-x="703" 
d="M503 -57q-17 -19 -38.5 -32.5t-45.5 -22t-49.5 -12.5t-49.5 -4q-59 0 -109.5 22t-88 61.5t-59 95t-21.5 123.5q0 79 22.5 138.5t60.5 99.5t87 59.5t102 19.5q26 0 54 -5.5t54.5 -17t50.5 -28.5t42 -39v77h55q31 0 46.5 -15.5t15.5 -44.5v-758h-67q-62 0 -62 60v223z
M503 238q0 31 -13 58.5t-35.5 48.5t-53 33t-65.5 12q-41 0 -71.5 -15.5t-50.5 -43.5t-30 -67t-10 -86q0 -42 9 -79t29.5 -65t52.5 -44.5t79 -16.5q34 0 63 14t50.5 36.5t33.5 52t12 60.5v102z" />
    <glyph glyph-name="r" unicode="r" horiz-adv-x="463" 
d="M201 -115h-63q-62 0 -62 60v533h64q27 0 42 -12.5t18 -35.5q29 32 65 46.5t85 14.5q17 0 43.5 -4t49.5 -12l-12 -56q-4 -19 -17.5 -28.5t-37.5 -5.5q-10 2 -18 2.5t-18 0.5q-139 0 -139 -129v-374z" />
    <glyph glyph-name="s" unicode="s" horiz-adv-x="499" 
d="M68 8q35 -20 74.5 -28.5t80.5 -8.5q58 0 86.5 16t28.5 54q0 37 -28.5 59t-86.5 44q-91 34 -131.5 78t-40.5 103q0 82 58 124t167 42q42 0 87 -13t80 -35l-17 -44q-17 -42 -69 -23q-25 9 -46.5 13t-38.5 4q-96 0 -96 -63q0 -35 28 -54.5t87 -41.5q42 -15 74 -33t53.5 -40
t33 -50.5t11.5 -64.5q0 -89 -64.5 -131.5t-178.5 -42.5q-35 0 -69.5 6t-72.5 20q-24 9 -30.5 30.5t4.5 44.5z" />
    <glyph glyph-name="t" unicode="t" horiz-adv-x="427" 
d="M381 -97q-5 -28 -21 -37.5t-42 -6.5q-50 5 -86 19t-59 38t-34 60t-11 86v321h-38q-61 0 -61 60v36h99v152h66q31 0 46 -15.5t15 -44.5v-92h140v-36q0 -60 -61 -60h-79v-321q0 -27 5.5 -47t20.5 -34t41 -22t67 -12z" />
    <glyph glyph-name="u" unicode="u" horiz-adv-x="670" 
d="M200 64q0 -52 26 -74t77 -22q49 0 89.5 15.5t82.5 47.5v448h63q62 0 62 -60v-533h-64q-29 0 -43.5 13.5t-17.5 36.5q-81 -63 -198 -63q-95 0 -148 49.5t-53 140.5v416h62q62 0 62 -60v-355z" />
    <glyph glyph-name="v" unicode="v" horiz-adv-x="626" 
d="M495 479h64q23 0 34.5 -17.5t2.5 -37.5l-211 -539h-98q-21 0 -39 12t-26 32l-192 496q-8 20 3.5 37t34.5 17h69l177 -474z" />
    <glyph glyph-name="w" unicode="w" horiz-adv-x="853" 
d="M363 479h80q23 0 39.5 -13t21.5 -33l108 -420l117 466h62q26 0 37 -15t3 -38l-145 -541h-100q-23 0 -39.5 13t-21.5 33l-98 385l-111 -431h-101q-23 0 -40 13t-22 33l-133 495q-6 23 4.5 38t36.5 15h65l117 -466z" />
    <glyph glyph-name="x" unicode="x" horiz-adv-x="593" 
d="M47 424q-14 18 -6.5 36.5t31.5 18.5h68l157 -212l159 212h68q23 0 31.5 -18.5t-5.5 -36.5l-183 -242l182 -241q14 -18 6 -37t-31 -19h-68l-159 212l-157 -212h-68q-24 0 -31 19t7 37l181 242z" />
    <glyph glyph-name="y" unicode="y" horiz-adv-x="595" 
d="M144 -336q-50 -9 -62 36l-12 46q44 7 73.5 18t50 27.5t33.5 39.5t24 54l-220 539q-9 24 0 39.5t37 15.5h70l167 -441l157 441h65q27 0 37.5 -16t1.5 -39l-207 -580q-29 -81 -80 -123t-135 -57z" />
    <glyph glyph-name="z" unicode="z" horiz-adv-x="534" 
d="M93 385q-62 0 -62 60v34h410q31 0 46 -15.5t15 -44.5v-28l-344 -411h355v-35q0 -60 -62 -60h-368q-62 0 -62 60v28l345 412h-273z" />
    <glyph glyph-name="braceleft" unicode="{" horiz-adv-x="452" 
d="M79 333q15 0 24 7.5t14.5 19t7.5 26t2 29.5v222q0 35 11.5 61t30.5 42.5t43 24.5t49 8h130v-39q0 -60 -62 -60h-34q-25 0 -33 -15.5t-8 -44.5v-188q0 -59 -23 -93.5t-52 -48.5q28 -13 51.5 -47t23.5 -93v-190q0 -29 8 -44t33 -15h96v-38q0 -60 -62 -60h-68q-25 0 -49 8
t-43 24.5t-30.5 42t-11.5 60.5v223q0 15 -2 29.5t-7.5 26.5t-14.5 19t-24 7q-23 0 -32.5 9t-9.5 31v56h42z" />
    <glyph glyph-name="bar" unicode="|" horiz-adv-x="308" 
d="M146 799q31 0 46.5 -15.5t15.5 -44.5v-1066h-43q-62 0 -62 60v1066h43z" />
    <glyph glyph-name="braceright" unicode="}" horiz-adv-x="452" 
d="M412 333v-56q0 -22 -9.5 -31t-32.5 -9q-15 0 -24 -7t-14.5 -19t-7.5 -26.5t-2 -29.5v-223q0 -35 -11.5 -60.5t-30.5 -42t-43 -24.5t-49 -8h-68q-62 0 -62 60v38h96q25 0 33 15t8 44v190q0 59 23.5 93t51.5 47q-29 14 -52 48.5t-23 93.5v188q0 29 -8 44.5t-33 15.5h-34
q-62 0 -62 60v39h130q25 0 49 -8t43 -24.5t30.5 -42.5t11.5 -61v-222q0 -15 2 -29.5t7.5 -26t14.5 -19t24 -7.5h42z" />
    <glyph glyph-name="asciitilde" unicode="~" horiz-adv-x="715" 
d="M113 163q-26 0 -38.5 14t-12.5 37q0 19 6.5 46t24 51.5t47.5 41.5t77 17q41 0 74 -11t70 -38q24 -17 41 -29t30.5 -19.5t24.5 -10.5t23 -3q29 0 48.5 23t20.5 84h57q24 0 38 -14t14 -37q0 -31 -10.5 -59.5t-30.5 -50t-48.5 -34t-63.5 -12.5q-52 0 -93.5 15t-85.5 50
q-32 26 -51 36t-38 10q-27 0 -46 -24t-20 -83h-58z" />
    <glyph glyph-name="exclamdown" unicode="&#xa1;" horiz-adv-x="240" 
d="M185 287l8 -510h-147l7 510h132zM188 495v-140h-141v140h141z" />
    <glyph glyph-name="currency" unicode="&#xa4;" horiz-adv-x="560" 
d="M278 548q35 0 61 -8.5t47 -21.5l73 75l74 -75l-79 -73q26 -43 26 -109q0 -76 -27 -118l76 -75l-73 -72l-73 77q-23 -15 -49.5 -24t-57.5 -9q-28 0 -55.5 9t-49.5 22l-72 -76l-73 71l75 75q-28 43 -28 114q0 75 31 119l-77 70l72 74l74 -74q21 14 47 21.5t58 7.5zM277 445
q-41 0 -62 -33t-21 -81q0 -30 7.5 -51t19.5 -34.5t26.5 -20t28.5 -6.5q15 0 30 6.5t26.5 20t18.5 35.5t7 54q0 21 -5 40.5t-14.5 35t-25 25t-36.5 9.5z" />
    <glyph glyph-name="section" unicode="&#xa7;" horiz-adv-x="450" 
d="M80 79q29 -20 60.5 -31t63.5 -11q12 0 25.5 2t24.5 8t18 17t7 29q0 22 -17.5 39.5t-62.5 35.5q-77 31 -108 72.5t-31 91.5q0 38 16.5 71t46.5 50q-30 23 -46.5 54t-16.5 63q0 73 50 111.5t135 38.5q83 0 139 -38l-34 -103q-21 14 -48.5 26.5t-58.5 12.5q-29 0 -45 -9.5
t-16 -32.5q0 -26 20.5 -44t61.5 -35q73 -30 105 -70.5t32 -100.5q0 -73 -57 -118q27 -24 42.5 -55t15.5 -66q0 -71 -50.5 -112t-149.5 -41q-46 0 -83 10.5t-72 34.5zM283 322q0 27 -16 42.5t-56 31.5q-16 -9 -24 -25t-8 -33q0 -26 19.5 -41t61.5 -32q14 11 18.5 27t4.5 30z
" />
    <glyph glyph-name="dieresis" unicode="&#xa8;" horiz-adv-x="520" 
d="M217 541h-131v131h131v-131zM433 541h-131v131h131v-131z" />
    <glyph glyph-name="ordfeminine" unicode="&#xaa;" horiz-adv-x="380" 
d="M236 442q-16 -13 -38 -22.5t-45 -9.5q-28 0 -49.5 9.5t-36.5 26t-22.5 37t-7.5 43.5q0 60 50 99.5t143 44.5q-2 18 -14.5 29.5t-35.5 11.5q-21 0 -44.5 -8.5t-48.5 -31.5l-28 83q28 23 61.5 34t68.5 11q45 0 73.5 -13t44.5 -35t22 -49.5t6 -56.5v-226h-99v23zM234 579
q-12 0 -26.5 -1.5t-27 -6t-22 -13.5t-11.5 -24q-3 -25 25 -30q8 -2 19 1.5t20.5 10.5t16 17t6.5 22v24z" />
    <glyph glyph-name="uni00AD" unicode="&#xad;" horiz-adv-x="500" 
d="M86 355h329v-109h-329v109z" />
    <glyph glyph-name="degree" unicode="&#xb0;" horiz-adv-x="420" 
d="M337 621q0 -26 -10 -49.5t-27.5 -40.5t-40.5 -27t-49 -10t-49 10t-40.5 27t-28 40.5t-10.5 49.5t10.5 49t28 40.5t40.5 27.5t49 10t49 -10t40.5 -27.5t27.5 -40.5t10 -49zM252 621q0 21 -12.5 33.5t-29.5 12.5t-30 -12.5t-13 -33.5q0 -22 13 -34.5t30 -12.5t29.5 12.5
t12.5 34.5z" />
    <glyph glyph-name="plusminus" unicode="&#xb1;" horiz-adv-x="660" 
d="M392 444h181v-109h-181v-187h-124v187h-179v109h179v186h124v-186zM89 -14v106h482v-106h-482z" />
    <glyph glyph-name="uni00B2" unicode="&#xb2;" horiz-adv-x="340" 
d="M42 478q44 42 71.5 71.5t43.5 50.5t22 37.5t8 33.5q3 29 -26 29q-13 0 -29 -9t-44 -38l-54 78q37 35 67 49.5t69 14.5q31 0 54 -10t38 -26.5t22.5 -38.5t7.5 -45q0 -22 -4.5 -42.5t-15.5 -42.5t-29 -45.5t-45 -51.5h105v-88h-261v73z" />
    <glyph glyph-name="uni00B3" unicode="&#xb3;" horiz-adv-x="340" 
d="M78 517q22 -14 40 -19.5t37 -5.5q26 0 35 9.5t9 22.5q0 20 -15.5 30.5t-38.5 10.5h-39v87h39q22 0 31 7.5t11 22.5q1 10 -6 17t-20 7q-15 0 -30.5 -4t-39.5 -22l-39 72q31 24 59 34.5t59 10.5q32 0 54.5 -9t37 -23.5t21.5 -33t7 -36.5q0 -20 -10 -42.5t-30 -39.5
q24 -11 38.5 -36t14.5 -54q0 -23 -9 -44.5t-27.5 -39t-46 -28t-64.5 -10.5q-35 0 -62 8.5t-61 28.5z" />
    <glyph glyph-name="acute" unicode="&#xb4;" horiz-adv-x="400" 
d="M182 757h149l-129 -164h-114z" />
    <glyph glyph-name="paragraph" unicode="&#xb6;" horiz-adv-x="560" 
d="M250 246q-33 3 -67.5 17t-63 40t-46.5 65.5t-18 93.5q0 43 12 86.5t43.5 78.5t87.5 56.5t145 21.5q45 0 74 -3t56 -10v-769h-95v683h-30v-683h-98v323z" />
    <glyph glyph-name="periodcentered" unicode="&#xb7;" horiz-adv-x="300" 
d="M220 231h-141v141h141v-141z" />
    <glyph glyph-name="cedilla" unicode="&#xb8;" horiz-adv-x="300" 
d="M205 -9l-15 -36q28 -11 43 -31.5t15 -46.5q0 -42 -32.5 -59t-78.5 -17q-26 0 -44.5 4.5t-38.5 15.5l23 62q20 -9 30.5 -10.5t18.5 -2.5q24 -1 25 10q2 11 -17 18.5t-53 9.5l43 101z" />
    <glyph glyph-name="uni00B9" unicode="&#xb9;" horiz-adv-x="340" 
d="M64 744l99 54h74v-388h-104v269l-28 -15z" />
    <glyph glyph-name="ordmasculine" unicode="&#xba;" horiz-adv-x="420" 
d="M212 799q39 0 71.5 -14t56 -39t36.5 -59.5t13 -75.5q0 -51 -16 -87.5t-41.5 -60.5t-58.5 -35.5t-66 -11.5q-37 0 -69 13.5t-56 38t-37.5 59.5t-13.5 78q0 45 14.5 80.5t39 61t57.5 39t70 13.5zM211 712q-37 0 -53 -30.5t-16 -74.5q0 -51 18 -77.5t49 -26.5t49.5 27
t18.5 80q0 19 -3.5 37.5t-11 32.5t-20 23t-31.5 9z" />
    <glyph glyph-name="onequarter" unicode="&#xbc;" horiz-adv-x="720" 
d="M400 38v65l157 260h82v-241h42v-84h-42v-66h-89v66h-150zM508 123h42v72zM174 -48h-103l442 708h103zM34 601l99 54h74v-388h-104v269l-28 -15z" />
    <glyph glyph-name="onehalf" unicode="&#xbd;" horiz-adv-x="720" 
d="M421 45q44 42 71.5 71.5t43.5 51t22 38t8 33.5q3 29 -26 29q-13 0 -29 -9t-44 -38l-54 78q37 35 67 49.5t69 14.5q31 0 54 -10t38 -26.5t22.5 -38.5t7.5 -45q0 -22 -4.5 -43t-15.5 -42.5t-29 -45.5t-45 -52h105v-88h-261v73zM151 -48h-103l442 708h103zM34 601l99 54h74
v-388h-104v269l-28 -15z" />
    <glyph glyph-name="threequarters" unicode="&#xbe;" horiz-adv-x="720" 
d="M400 38v65l157 260h82v-241h42v-84h-42v-66h-89v66h-150zM508 123h42v72zM78 380q22 -14 40 -19.5t37 -5.5q26 0 35 9.5t9 22.5q0 20 -15.5 30.5t-38.5 10.5h-39v87h39q22 0 31 7.5t11 22.5q1 10 -6 17t-20 7q-15 0 -30.5 -4t-39.5 -22l-39 72q31 24 59 34.5t59 10.5
q32 0 54.5 -9t37 -23.5t21.5 -33t7 -36.5q0 -20 -10 -42.5t-30 -39.5q24 -11 38.5 -36t14.5 -54q0 -23 -9 -44.5t-27.5 -39t-46 -28t-64.5 -10.5q-35 0 -62 8.5t-61 28.5zM211 -48h-103l442 708h103z" />
    <glyph glyph-name="questiondown" unicode="&#xbf;" horiz-adv-x="440" 
d="M300 267q0 -43 -11.5 -92.5t-55.5 -99.5q-35 -38 -49.5 -68t-14.5 -62t14 -47t46 -15q31 0 57 17t59 59l71 -95q-46 -49 -91.5 -70t-104.5 -21q-47 0 -82.5 12.5t-60 34t-37 51t-12.5 62.5q0 54 28 101t66 92q29 34 39.5 70.5t10.5 71.5v43h128v-44zM306 496v-140h-141
v140h141z" />
    <glyph glyph-name="AE" unicode="&#xc6;" horiz-adv-x="870" 
d="M522 269v-204h321v-113h-458v174h-164l-78 -174h-140l334 725h490v-113h-305v-183h289v-112h-289zM269 231h116v258z" />
    <glyph glyph-name="Eth" unicode="&#xd0;" horiz-adv-x="650" 
d="M69 260h-78v105h78v312h219q88 0 150 -26t101 -73t57 -114t18 -149t-18 -149t-57 -114.5t-101 -73.5t-150 -26h-219v308zM205 260v-195h90q39 0 72 12t57 40.5t37 76.5t13 121q0 72 -14 120t-39 76.5t-60 40.5t-76 12h-80v-199h114v-105h-114z" />
    <glyph glyph-name="multiply" unicode="&#xd7;" horiz-adv-x="700" 
d="M422 292l198 -199q13 -14 12.5 -32t-13.5 -31l-42 -38l-227 228l-226 -228l-42 38q-14 12 -14 30.5t13 32.5l198 199l-197 199q-14 14 -13.5 32t14.5 31l41 38l226 -228l227 228l41 -38q14 -13 14.5 -31t-13.5 -32z" />
    <glyph glyph-name="Oslash" unicode="&#xd8;" horiz-adv-x="700" 
d="M542 617q60 -50 90.5 -128t30.5 -171q0 -92 -24.5 -162.5t-67 -118.5t-101 -72.5t-126.5 -24.5q-40 0 -76 9l-22 -55h-127l44 107q-62 51 -93 131.5t-31 174.5q0 84 22.5 153.5t64 118.5t99 76t128.5 27q42 0 83 -11l15 37h128zM172 309q0 -43 10.5 -90.5t33.5 -86.5
l178 436q-22 8 -44 8q-45 0 -78 -22.5t-55.5 -59.5t-33.5 -85t-11 -100zM530 314q0 38 -10.5 83.5t-32.5 84.5l-177 -430q9 -3 18.5 -4t20.5 -1q43 0 76.5 21.5t57 58t35.5 85t12 102.5z" />
    <glyph glyph-name="Thorn" unicode="&#xde;" horiz-adv-x="537" 
d="M268 536q121 0 178 -55t57 -167q0 -109 -57 -166t-178 -57h-65v-139h-136v725h136v-141h65zM264 204q49 0 77 24t28 84t-28 85.5t-77 25.5h-61v-219h61z" />
    <glyph glyph-name="germandbls" unicode="&#xdf;" horiz-adv-x="610" 
d="M270 84q32 -20 58 -30t57 -10q72 0 72 46q0 29 -16.5 46.5t-60.5 34.5q-78 30 -109.5 73t-31.5 94q0 32 8.5 55.5t22.5 40.5t32 29t38 21q21 11 32 21.5t11 30.5q0 21 -22 30t-57 9q-27 0 -46 -8.5t-31.5 -29t-18.5 -54t-6 -84.5v-448h-135v450q0 146 62 215.5t175 69.5
q39 0 76.5 -7.5t66.5 -25.5t46.5 -47t16.5 -72q-1 -29 -8.5 -49.5t-20.5 -35.5t-30 -26t-36 -21q-23 -12 -35 -24.5t-12 -33.5q0 -27 17.5 -42.5t61.5 -32.5q74 -29 105.5 -70t31.5 -105q0 -39 -15 -68t-41.5 -48t-63.5 -28.5t-81 -9.5q-47 0 -80 10t-68 32z" />
    <glyph glyph-name="ae" unicode="&#xe6;" horiz-adv-x="820" 
d="M763 5q-46 -32 -92.5 -47.5t-99.5 -15.5q-57 0 -104 22t-82 63q-35 -40 -84.5 -63.5t-121.5 -23.5q-42 0 -71 13t-47 34.5t-26.5 49.5t-8.5 58q0 48 21 85t59 62t91 39t117 16q-1 14 -5.5 29.5t-15.5 28.5t-29 21.5t-45 8.5q-26 0 -56 -10.5t-68 -38.5l-36 92
q37 28 78 43.5t96 15.5q63 0 101.5 -18t62.5 -48q29 30 71 48t92 18q68 0 113 -25t71 -67.5t34 -98.5t3 -117h-335v-4q0 -33 11.5 -58t30 -41t42.5 -24t49 -8q35 0 72.5 13t80.5 42zM316 199q-27 0 -55 -5t-51 -16t-38 -28.5t-15 -43.5q0 -34 12 -48t32 -14q41 0 71 19.5
t41 45.5q2 6 2.5 12.5t0.5 12.5v65zM560 385q-27 0 -46.5 -9.5t-33 -24.5t-21 -33.5t-11.5 -36.5h208q-3 17 -8.5 35.5t-16.5 33.5t-28 25t-43 10z" />
    <glyph glyph-name="eth" unicode="&#xf0;" horiz-adv-x="560" 
d="M370 601q7 -6 13.5 -12t13.5 -13q55 -56 87.5 -136.5t32.5 -189.5q0 -73 -17.5 -130.5t-50 -97.5t-78 -61t-101.5 -21q-57 0 -101 21t-74 56.5t-45 82.5t-15 99q0 55 17 98.5t46 73.5t67.5 45.5t82.5 15.5q36 0 67.5 -8t66.5 -36q-19 48 -37.5 72.5t-35.5 41.5
q-8 7 -15 13.5t-15 11.5l-115 -94l-74 90l61 49q-14 2 -29 2h-32l11 113q48 -2 87 -8t73 -17l96 79l73 -91zM268 49q59 0 89 45.5t30 124.5q0 11 -2 19t-4 14q-15 36 -44 56t-61 20q-111 0 -111 -136q0 -70 26 -106.5t77 -36.5z" />
    <glyph glyph-name="divide" unicode="&#xf7;" horiz-adv-x="676" 
d="M616 346v-38q0 -60 -62 -60h-432q-62 0 -62 60v38h556zM423 501q0 -17 -6.5 -31.5t-18 -25.5t-27 -17.5t-33.5 -6.5t-33.5 6.5t-27 17.5t-18 25.5t-6.5 31.5q0 16 6.5 30.5t18 25.5t27 17.5t33.5 6.5t33.5 -6.5t27 -17.5t18 -25.5t6.5 -30.5zM423 93q0 -17 -6.5 -31.5
t-18 -25.5t-27 -17.5t-33.5 -6.5t-33.5 6.5t-27 17.5t-18 25.5t-6.5 31.5q0 16 6.5 30.5t18 25.5t27 17.5t33.5 6.5t33.5 -6.5t27 -17.5t18 -25.5t6.5 -30.5z" />
    <glyph glyph-name="oslash" unicode="&#xf8;" horiz-adv-x="580" 
d="M133 -8q-44 36 -67 92.5t-23 125.5q0 66 19 117.5t53 87t79.5 54t99.5 18.5q19 0 39 -3l21 52h121l-38 -93q48 -35 74 -93.5t26 -131.5q0 -74 -22 -126.5t-57.5 -86.5t-80.5 -49.5t-91 -15.5q-14 0 -27.5 1.5t-25.5 3.5l-18 -44h-119zM408 215q0 23 -5.5 50t-17.5 52
l-112 -274q4 -1 8 -1h9q52 0 85 46.5t33 126.5zM172 213q0 -20 4 -42t12 -44l104 258q-32 0 -54.5 -14t-37 -38t-21.5 -55t-7 -65z" />
    <glyph glyph-name="thorn" unicode="&#xfe;" horiz-adv-x="570" 
d="M189 697v-234q53 44 137 44q51 0 91.5 -18.5t69.5 -53t44.5 -84t15.5 -111.5q0 -72 -19.5 -125t-51.5 -87.5t-75 -51t-89 -16.5q-36 0 -70 9.5t-62 33.5v-231h-125v925h134zM189 184q0 -51 26.5 -82.5t78.5 -31.5q61 0 90 44t29 123q0 70 -28 115.5t-89 45.5
q-25 0 -45 -11t-33.5 -29t-21 -42t-7.5 -49v-83z" />
    <glyph glyph-name="dcroat" unicode="&#x111;" horiz-adv-x="620" 
d="M516 529v-577h-125v33q-28 -24 -62 -34.5t-70 -10.5q-47 0 -89.5 16.5t-74.5 51t-51.5 87.5t-19.5 125q0 62 15.5 111.5t44.5 84t69.5 53t91.5 18.5q82 0 137 -46v88h-111v112h111v72h134v-72h89v-112h-89zM382 247q0 25 -7.5 49t-21 42t-33.5 29t-45 11q-31 0 -53 -12
t-36.5 -33.5t-21 -51t-6.5 -64.5q0 -79 29 -123t90 -44q52 0 78.5 31.5t26.5 82.5v83z" />
    <glyph glyph-name="Hbar" unicode="&#x126;" horiz-adv-x="720" 
d="M627 449v-497h-137v317h-261v-317h-137v497h-65v112h65v116h137v-116h261v116h137v-116h65v-112h-65zM229 381h261v68h-261v-68z" />
    <glyph glyph-name="hbar" unicode="&#x127;" horiz-adv-x="610" 
d="M235 535v-95q30 25 62.5 36t67.5 11q48 0 84.5 -14t61 -39.5t36.5 -60t12 -76.5v-345h-134v346q0 41 -16 62.5t-54 21.5q-20 0 -38 -8.5t-33 -22.5t-27.5 -32t-21.5 -38v-329h-134v583h-89v112h89v59h134v-59h112v-112h-112z" />
    <glyph glyph-name="dotlessi" unicode="&#x131;" horiz-adv-x="240" 
d="M53 476h134v-524h-134v524z" />
    <glyph glyph-name="IJ" unicode="&#x132;" horiz-adv-x="620" 
d="M199 -47h-137v724h137v-724zM556 677v-487q0 -69 -16.5 -116.5t-46.5 -77t-71.5 -42.5t-90.5 -13q-27 0 -51 2t-50 11l18 111q13 -4 23 -6t18.5 -3t16.5 -1h18q24 0 42 6t29.5 22t17.5 43t6 68v483h137z" />
    <glyph glyph-name="ij" unicode="&#x133;" horiz-adv-x="460" 
d="M51 476h134v-524h-134v524zM185 535h-134v141h134v-141zM155 -141q64 6 91 32.5t27 71.5v513h134v-510q0 -46 -11 -83.5t-38 -64.5t-73.5 -44t-116.5 -22zM407 535h-134v141h134v-141z" />
    <glyph glyph-name="kgreenlandic" unicode="&#x138;" horiz-adv-x="482" 
d="M271 246l210 -295h-143l-147 207l-4 -4v-202h-131v524h131v-153l143 153h153z" />
    <glyph glyph-name="Ldot" unicode="&#x13f;" horiz-adv-x="520" 
d="M204 677v-612h290v-113h-427v725h137zM429 286h-136v137h136v-137z" />
    <glyph glyph-name="ldot" unicode="&#x140;" horiz-adv-x="440" 
d="M186 706v-754h-134v754h134zM388 265h-137v137h137v-137z" />
    <glyph glyph-name="Lslash" unicode="&#x141;" horiz-adv-x="550" 
d="M244 677v-283l160 90v-130l-160 -90v-199h290v-113h-427v235l-105 -59v130l105 59v360h137z" />
    <glyph glyph-name="lslash" unicode="&#x142;" horiz-adv-x="340" 
d="M235 706v-212l24 20l73 -91l-97 -79v-392h-134v283l-22 -18l-74 90l96 78v321h134z" />
    <glyph glyph-name="napostrophe" unicode="&#x149;" horiz-adv-x="690" 
d="M171 471q0 -67 -34.5 -104.5t-108.5 -48.5v88q26 4 35.5 11t11.5 27h-46v143h142v-116zM514 -59v350q0 46 -23 63t-59 17q-26 0 -49.5 -15t-41.5 -49v-367h-132v525h132v-28q21 17 52.5 28t58.5 11q43 0 78.5 -12t61 -35.5t39.5 -57.5t14 -79v-351h-131z" />
    <glyph glyph-name="Eng" unicode="&#x14a;" horiz-adv-x="665" 
d="M601 -81q0 -73 -29 -103t-95 -30q-26 0 -51 15t-53 50l62 74q5 -14 11.5 -24.5t15.5 -10.5q11 0 11 22v65l-275 509v-541h-131v732h163l240 -461v461h131v-758z" />
    <glyph glyph-name="eng" unicode="&#x14b;" horiz-adv-x="543" 
d="M364 302q0 46 -24.5 63t-60.5 17q-26 0 -49.5 -15t-41.5 -49v-373h-132v531h132v-26q21 16 52.5 26.5t58.5 10.5q43 0 78.5 -12t61 -35.5t39.5 -57.5t14 -79v-385q0 -67 -26 -101t-83 -34q-33 0 -59.5 16t-57.5 52l61 72q7 -11 12.5 -19.5t13.5 -8.5q5 0 8 3.5t3 17.5
v386z" />
    <glyph glyph-name="OE" unicode="&#x152;" horiz-adv-x="900" 
d="M560 269v-204h316v-113h-522q-72 0 -130.5 22.5t-99.5 66.5t-63.5 110.5t-22.5 154.5q0 91 22 160.5t63 116t99.5 70.5t131.5 24h506v-113h-300v-183h284v-112h-284zM175 306q0 -113 43.5 -178.5t135.5 -65.5h69v506h-69q-48 0 -81.5 -19.5t-55.5 -54.5t-32 -83t-10 -105
z" />
    <glyph glyph-name="oe" unicode="&#x153;" horiz-adv-x="900" 
d="M858 8q-50 -33 -95.5 -49.5t-100.5 -16.5q-60 0 -109 21.5t-83 70.5q-35 -48 -85.5 -71t-108.5 -23q-51 0 -95.5 17t-78.5 51t-53.5 84.5t-19.5 117.5q0 70 19.5 122t53 86.5t78.5 51.5t96 17q60 0 109.5 -21t83.5 -69q64 90 180 90q67 0 111.5 -26t70 -69.5t34.5 -99.5
t5 -116h-327q6 -73 40.5 -102t86.5 -29q65 0 148 54zM276 384q-33 0 -55.5 -13.5t-36.5 -36.5t-20 -55t-6 -69q0 -84 31.5 -125.5t86.5 -41.5q57 0 89 41.5t32 125.5q0 37 -6.5 69t-21 55t-37.5 36.5t-56 13.5zM649 384q-28 0 -46.5 -9t-30.5 -23.5t-18 -32.5t-9 -36h199
q-3 17 -9 35t-17 32.5t-28 24t-41 9.5z" />
    <glyph glyph-name="Tbar" unicode="&#x166;" horiz-adv-x="530" 
d="M330 366v-413h-137v413h-133v112h133v86h-182v113h509v-113h-190v-86h144v-112h-144z" />
    <glyph glyph-name="tbar" unicode="&#x167;" horiz-adv-x="333" 
d="M85 333v47h-69v106h69v125h134v-125h102v-106h-102v-47h102v-106h-102v-121q0 -22 1.5 -33.5t8.5 -18.5q9 -9 32 -9q10 0 21 0.5t38 5.5l11 -97q-25 -8 -54 -12t-49 -3q-42 1 -70 15.5t-44 37.5t-22.5 52.5t-6.5 61.5v121h-69v106h69z" />
    <glyph glyph-name="caron" unicode="&#x2c7;" horiz-adv-x="360" 
d="M230 592h-102l-99 165h119l33 -62l32 62h116z" />
    <glyph glyph-name="uni02D0" unicode="&#x2d0;" horiz-adv-x="300" 
d="M152 346l-117 197h228zM152 253l-117 -197h228z" />
    <glyph glyph-name="breve" unicode="&#x2d8;" horiz-adv-x="375" 
d="M323 757q-10 -134 -134 -134q-63 0 -96.5 35.5t-38.5 98.5h106q2 -28 9.5 -37.5t19.5 -9.5q14 0 20.5 9.5t7.5 37.5h106v0z" />
    <glyph glyph-name="dotaccent" unicode="&#x2d9;" horiz-adv-x="300" 
d="M88 639v125h124v-125h-124z" />
    <glyph glyph-name="ring" unicode="&#x2da;" horiz-adv-x="300" 
d="M250 676q0 -23 -8.5 -41.5t-22.5 -31.5t-32 -20.5t-37 -7.5t-37 7.5t-32.5 20.5t-23 31.5t-8.5 41.5q0 22 8.5 40.5t23 32t32.5 20.5t37 7t37 -7t32 -20.5t22.5 -32t8.5 -40.5zM172 676q0 10 -6.5 16.5t-15.5 6.5q-10 0 -16.5 -6.5t-6.5 -16.5q0 -11 6.5 -17t16.5 -6
q9 0 15.5 6t6.5 17z" />
    <glyph glyph-name="ogonek" unicode="&#x2db;" horiz-adv-x="300" 
d="M211 -61q-14 -2 -26.5 -7t-21 -12.5t-12 -16.5t-0.5 -18q4 -11 18 -11q9 0 23 4t30 14l23 -60q-23 -16 -47.5 -23t-47.5 -7q-19 0 -36.5 3.5t-31 12.5t-21.5 24.5t-8 38.5q0 19 9 39.5t26 38t42 30.5t57 17z" />
    <glyph glyph-name="hungarumlaut" unicode="&#x2dd;" horiz-adv-x="440" 
d="M121 757h128l-129 -164h-94zM272 757h128l-129 -164h-94z" />
    <glyph glyph-name="Alpha" unicode="&#x391;" horiz-adv-x="600" 
d="M236 683h127l243 -738h-136l-57 181h-230l-53 -181h-136zM217 231h166l-84 268z" />
    <glyph glyph-name="Beta" unicode="&#x392;" horiz-adv-x="570" 
d="M275 683q112 0 174.5 -46.5t62.5 -146.5q0 -50 -15.5 -87.5t-63.5 -66.5q57 -22 84.5 -68t27.5 -103t-16 -98.5t-46.5 -68.5t-74 -40t-98.5 -13h-253v738h218zM297 58q52 0 83.5 23.5t31.5 85.5q0 54 -35 78t-90 24h-98v-211h108zM264 381q52 0 83.5 25t31.5 82
q0 24 -8.5 39.5t-22.5 25t-33.5 13.5t-41.5 4h-84v-189h75z" />
    <glyph glyph-name="Gamma" unicode="&#x393;" horiz-adv-x="530" 
d="M504 676v-113h-300v-611h-137v724h437z" />
    <glyph glyph-name="uni0394" unicode="&#x394;" horiz-adv-x="640" 
d="M4 -49l275 725h98l259 -725h-632zM324 461l-145 -398h280z" />
    <glyph glyph-name="Epsilon" unicode="&#x395;" horiz-adv-x="560" 
d="M194 269v-211h336v-113h-473v738h457v-113h-320v-189h304v-112h-304z" />
    <glyph glyph-name="Zeta" unicode="&#x396;" horiz-adv-x="570" 
d="M374 570h-345v113h517v-77l-359 -548h364v-113h-535v75z" />
    <glyph glyph-name="Eta" unicode="&#x397;" horiz-adv-x="660" 
d="M194 381h271v302h137v-738h-137v324h-271v-324h-137v738h137v-302z" />
    <glyph glyph-name="Theta" unicode="&#x398;" horiz-adv-x="700" 
d="M350 -67q-71 0 -130 25.5t-102 73.5t-66.5 117t-23.5 157q0 91 23.5 162.5t65.5 120.5t101.5 74.5t131.5 25.5t131.5 -25.5t101.5 -74.5t65.5 -120.5t23.5 -162.5q0 -88 -23.5 -157t-66.5 -117t-102 -73.5t-130 -25.5zM350 580q-48 0 -83 -21.5t-58.5 -58.5t-34.5 -87
t-11 -107t12 -105t35.5 -83.5t58.5 -55t81 -19.5t81 19.5t58.5 55t35.5 83.5t12 105t-11 107t-34.5 87t-58.5 58.5t-83 21.5zM190 249v112h320v-112h-320z" />
    <glyph glyph-name="Iota" unicode="&#x399;" horiz-adv-x="241" 
d="M189 -55h-137v738h137v-738z" />
    <glyph glyph-name="Kappa" unicode="&#x39a;" horiz-adv-x="593" 
d="M192 403l264 280h161l-298 -317l311 -421h-158l-237 327l-43 -43v-284h-135v738h135v-280z" />
    <glyph glyph-name="Lambda" unicode="&#x39b;" horiz-adv-x="600" 
d="M141 -47h-140l236 723h125l235 -723h-140l-158 526z" />
    <glyph glyph-name="Mu" unicode="&#x39c;" horiz-adv-x="780" 
d="M561 683h162v-738h-132v441l-133 -441h-136l-133 441v-441h-132v738h162l171 -559z" />
    <glyph glyph-name="Nu" unicode="&#x39d;" horiz-adv-x="665" 
d="M611 -55h-159l-264 534v-537h-131v741h159l264 -528v528h131v-738z" />
    <glyph glyph-name="Xi" unicode="&#x39e;" horiz-adv-x="660" 
d="M66 564v113h526v-113h-526zM140 269v112h379v-112h-379zM66 -49v113h526v-113h-526z" />
    <glyph glyph-name="Omicron" unicode="&#x39f;" horiz-adv-x="700" 
d="M350 -67q-71 0 -130 25.5t-102 73.5t-66.5 117t-23.5 157q0 91 23.5 162.5t65.5 120.5t101.5 74.5t131.5 25.5t131.5 -25.5t101.5 -74.5t65.5 -120.5t23.5 -162.5q0 -88 -23.5 -157t-66.5 -117t-102 -73.5t-130 -25.5zM350 580q-48 0 -83 -21.5t-58.5 -58.5t-34.5 -87
t-11 -107t12 -105t35.5 -83.5t58.5 -55t81 -19.5t81 19.5t58.5 55t35.5 83.5t12 105t-11 107t-34.5 87t-58.5 58.5t-83 21.5z" />
    <glyph glyph-name="Pi" unicode="&#x3a0;" horiz-adv-x="660" 
d="M592 -48h-137v613h-251v-613h-137v725h525v-725z" />
    <glyph glyph-name="Rho" unicode="&#x3a1;" horiz-adv-x="557" 
d="M300 683q118 0 176.5 -59t58.5 -170q0 -109 -58.5 -169.5t-176.5 -60.5h-107v-279h-136v738h243zM296 337q49 0 77 27.5t28 87.5t-28 89t-77 29h-103v-233h103z" />
    <glyph glyph-name="Sigma" unicode="&#x3a3;" horiz-adv-x="570" 
d="M40 -48v59l290 303l-290 281v81h496v-114h-293l256 -241l-249 -254h287v-115h-497z" />
    <glyph glyph-name="Tau" unicode="&#x3a4;" horiz-adv-x="530" 
d="M0 570v113h530v-113h-200v-625h-137v625h-193z" />
    <glyph glyph-name="Upsilon" unicode="&#x3a5;" horiz-adv-x="600" 
d="M230 267l-245 416h149l165 -296l169 296h147l-248 -415v-323h-137v322z" />
    <glyph glyph-name="Phi" unicode="&#x3a6;" horiz-adv-x="640" 
d="M385 569q47 -9 86 -31.5t66.5 -56t43 -78t15.5 -97.5t-15.5 -97.5t-43 -78t-66.5 -56t-86 -31.5v-91h-131v91q-47 9 -86 31.5t-66.5 56t-43 78t-15.5 97.5t15.5 97t43 78t66.5 56t86 31v108h131v-107zM465 306q0 54 -21 91.5t-59 54.5v-292q38 17 59 54.5t21 91.5z
M174 307q0 -54 21 -92t59 -55v291q-38 -17 -59 -54t-21 -90z" />
    <glyph glyph-name="Chi" unicode="&#x3a7;" horiz-adv-x="590" 
d="M228 314l-238 369h149l156 -253l157 253h149l-238 -369l238 -369h-148l-158 254l-158 -254h-148z" />
    <glyph glyph-name="Psi" unicode="&#x3a8;" horiz-adv-x="680" 
d="M409 273q40 15 63 52.5t23 102.5v248h135v-235q0 -68 -16.5 -118.5t-46 -85.5t-70 -55t-88.5 -28v-202h-137v202q-48 7 -89 27.5t-70.5 55t-46 85t-16.5 119.5v235h135v-248q0 -66 23 -103t64 -52v403h137v-403z" />
    <glyph glyph-name="uni03A9" unicode="&#x3a9;" horiz-adv-x="760" 
d="M380 572q-50 0 -85.5 -17t-58 -47t-33.5 -72t-11 -93t11 -97.5t30.5 -86.5t47.5 -71t61 -50v-87h-301v112h113q-46 51 -72.5 122.5t-26.5 156.5q0 79 21 142t62 106.5t101.5 67t140.5 23.5t140.5 -23.5t101.5 -67t62 -106.5t21 -142q0 -85 -26.5 -156.5t-72.5 -122.5h113
v-112h-301v87q33 19 61 50t47.5 71t30.5 86.5t11 97.5t-11 93t-33.5 72t-58.5 47t-85 17z" />
    <glyph glyph-name="alpha" unicode="&#x3b1;" horiz-adv-x="623" 
d="M625 56q-20 -66 -51 -92.5t-81 -26.5q-33 0 -62 19.5t-46 64.5q-34 -47 -73 -64t-79 -17q-57 0 -97.5 21t-65 57t-35 83.5t-8.5 100.5q2 57 16 108.5t41.5 90.5t69.5 62t100 23q47 0 88.5 -20.5t67.5 -75.5l27 87l117 -38l-96 -286q1 -32 5.5 -53.5t10 -34.5t12 -18.5
t12.5 -5.5q8 0 13 9t13 44zM337 227q2 33 -2 61.5t-14.5 49t-27.5 32.5t-39 12q-29 0 -48 -19t-30 -47t-16 -60t-6 -58q-4 -76 14.5 -115.5t63.5 -39.5q27 0 46 18t31.5 45t19 59.5t8.5 61.5z" />
    <glyph glyph-name="beta" unicode="&#x3b2;" horiz-adv-x="540" 
d="M505 168q0 -46 -12.5 -87.5t-39 -72.5t-66.5 -49.5t-94 -18.5q-24 0 -52.5 6.5t-46.5 16.5v-142h-127v662q0 54 13.5 92t40 61t64 33.5t85.5 10.5q49 0 87.5 -14t65.5 -39t41 -60.5t14 -78.5q0 -42 -12 -77.5t-49 -66.5q24 -16 41 -36.5t27.5 -44t15 -47.5t4.5 -48z
M377 168q0 21 -4.5 43t-14.5 39t-26 28t-38 11h-48v98h48q31 0 44.5 22t13.5 78q0 89 -82 89q-36 0 -56 -20t-20 -78v-400q18 -18 40.5 -26t48.5 -8q51 0 72.5 34.5t21.5 89.5z" />
    <glyph glyph-name="gamma" unicode="&#x3b3;" horiz-adv-x="520" 
d="M324 69q18 -26 32 -49.5t25 -43.5q19 -36 18 -71t-18.5 -62t-49.5 -43.5t-76 -16.5t-76.5 16t-50.5 43t-19.5 62t17.5 73q11 21 27.5 46.5t37.5 54.5l-185 364l117 51l133 -290l141 286l117 -49zM283 -82q0 8 -8 26t-19 38q-30 -42 -30 -65q0 -18 7.5 -25t21.5 -7t21 7.5
t7 25.5z" />
    <glyph glyph-name="delta" unicode="&#x3b4;" horiz-adv-x="560" 
d="M33 188q0 40 13.5 75.5t36.5 66.5t54 56t67 45q-42 35 -55.5 67.5t-13.5 63.5q0 23 9.5 44.5t29 38t49.5 26t71 9.5q58 0 101 -16t72 -39l-60 -96q-21 17 -48 32t-62 15q-13 0 -21 -5t-8 -19t6 -26.5t15.5 -23t21.5 -20t23 -16.5q54 -34 91 -66.5t60 -65.5t33 -68t10 -74
q0 -56 -18 -102t-51 -80t-78.5 -52.5t-100.5 -18.5q-53 0 -98 15.5t-78 47t-52 78t-19 108.5zM394 185q0 30 -6 52t-19.5 41t-36.5 38t-56 43q-22 -12 -42 -28.5t-35 -37.5t-24 -47t-9 -57q0 -40 10.5 -67.5t27 -45t38 -25t43.5 -7.5q45 0 77 35t32 106z" />
    <glyph glyph-name="epsilon" unicode="&#x3b5;" horiz-adv-x="470" 
d="M447 79q-26 -72 -81.5 -105.5t-128.5 -33.5q-42 0 -80 9t-66.5 27.5t-45.5 48t-17 70.5q0 19 7 41t21 42t36.5 35t52.5 21q-26 7 -44.5 20.5t-30.5 30t-17.5 33.5t-5.5 31q0 39 17.5 66.5t45.5 45t62.5 25t68.5 7.5q62 0 111.5 -25.5t84.5 -85.5l-105 -55q-43 63 -91 63
q-33 0 -48 -9.5t-15 -29.5q0 -18 11.5 -30.5t30.5 -20.5t43.5 -11t50.5 -2v-108q-75 -2 -113.5 -20t-38.5 -62q0 -31 20 -41.5t55 -10.5q38 0 61 18t40 63z" />
    <glyph glyph-name="zeta" unicode="&#x3b6;" horiz-adv-x="460" 
d="M436 -89q0 -26 -9 -49t-26.5 -40t-44.5 -27.5t-63 -10.5q-15 0 -28 0.5t-26 3.5t-28.5 9t-34.5 16l36 99q22 -10 35 -14.5t29 -6.5q15 -2 25 1t12 20t-7 28t-23.5 18t-30.5 11.5t-29 7.5q-87 23 -136 79t-53 145q-2 46 7 89t29.5 86.5t52.5 89.5t75 97h-131v113h302v-96
q-47 -41 -85 -85t-65 -91.5t-41 -97.5t-11 -102q3 -58 28.5 -88t76.5 -41q38 -8 68.5 -19.5t51.5 -30.5t32.5 -46.5t11.5 -67.5z" />
    <glyph glyph-name="eta" unicode="&#x3b7;" horiz-adv-x="600" 
d="M492 -40q0 -14 3.5 -20t17.5 -6q13 0 24 10.5t18 21.5l60 -71q-29 -36 -56.5 -52.5t-60.5 -16.5q-60 0 -97 29t-37 96v351q0 46 -24.5 63t-60.5 17q-26 0 -49.5 -15t-41.5 -49v-373h-132v531h132v-26q21 16 52.5 26.5t58.5 10.5q43 0 78.5 -12t61 -35.5t39.5 -57.5
t14 -79v-343z" />
    <glyph glyph-name="theta" unicode="&#x3b8;" horiz-adv-x="580" 
d="M290 -60q-62 0 -109 25t-78.5 72.5t-47.5 115t-16 153.5q0 178 62 277t189 99t189 -99t62 -277q0 -86 -16 -153.5t-47.5 -115t-78.5 -72.5t-109 -25zM290 573q-31 0 -52.5 -16t-36 -44.5t-22 -67.5t-10.5 -84h241q-3 45 -10.5 84t-21.5 67.5t-35.5 44.5t-52.5 16zM290 50
q28 0 49.5 14.5t36 40.5t23 63t11.5 81h-240q3 -44 11.5 -81t23 -63t35.5 -40.5t50 -14.5z" />
    <glyph glyph-name="iota" unicode="&#x3b9;" horiz-adv-x="280" 
d="M180 476v-402q0 -29 16 -28q11 1 20.5 12t16.5 22l60 -71q-27 -36 -54.5 -52.5t-62.5 -16.5q-60 0 -92 29t-32 96v411h128z" />
    <glyph glyph-name="kappa" unicode="&#x3ba;" horiz-adv-x="482" 
d="M276 259l208 -307h-144l-146 221l-8 -9v-212h-130v524h130v-151l142 150h157z" />
    <glyph glyph-name="lambda" unicode="&#x3bb;" horiz-adv-x="629" 
d="M276 257l-134 -324l-117 44l193 462l-23 72q-10 30 -21.5 39t-25.5 11q-7 1 -16 -0.5t-29 -6.5l-28 117q17 4 28.5 7t21 4t18 1t18.5 -1q51 -3 92 -33t62 -96l143 -441q8 -23 16.5 -39t16.5 -16t15.5 7.5t17.5 40.5l114 -44q-12 -34 -26 -57t-31.5 -37.5t-40 -20.5
t-51.5 -6q-58 0 -96.5 37t-58.5 102z" />
    <glyph glyph-name="uni03BC" unicode="&#x3bc;" horiz-adv-x="540" 
d="M358 476h134v-345q0 -42 -12.5 -76.5t-37 -60t-60.5 -39.5t-82 -14q-35 0 -59.5 7.5t-50.5 24.5v-220h-134v723h134v-364q18 -32 38 -49t56 -17q38 0 56 21.5t18 62.5v346z" />
    <glyph glyph-name="nu" unicode="&#x3bd;" horiz-adv-x="500" 
d="M328 -48h-103l-140 388q-5 13 -14 21t-20.5 12t-24 4.5t-23.5 0.5v109q73 5 122.5 -18t72.5 -90l78 -226l98 323h132z" />
    <glyph glyph-name="xi" unicode="&#x3be;" horiz-adv-x="460" 
d="M151 470q0 29 11 50.5t32 42.5h-127v113h302l-2 -98q-37 -20 -60.5 -43.5t-23.5 -61.5q0 -26 16 -44.5t41 -30.5v-97q-31 -7 -57 -22.5t-44 -36.5t-28 -44.5t-10 -45.5q1 -26 17 -47t54 -30q36 -9 66.5 -20.5t52 -30t33.5 -46t12 -67.5q0 -26 -9 -49t-26.5 -40t-44 -27.5
t-63.5 -10.5q-30 0 -55.5 5t-62.5 24l37 100q21 -11 35 -15.5t29 -6.5q12 -2 21 1.5t13 19.5q4 15 -4 25.5t-21.5 18t-30 13t-31.5 8.5q-66 15 -103.5 56.5t-37.5 110.5q0 66 35.5 118t110.5 94q-37 21 -57 49.5t-20 64.5z" />
    <glyph glyph-name="omicron" unicode="&#x3bf;" horiz-adv-x="550" 
d="M275 -67q-54 0 -101.5 18t-82 53.5t-54.5 87t-20 118.5q0 70 19.5 123t54 89t81.5 54t103 18t103 -18t81.5 -54t54 -89t19.5 -123q0 -67 -20 -118.5t-54.5 -87t-82 -53.5t-101.5 -18zM275 390q-33 0 -56.5 -14t-38.5 -38.5t-22.5 -57.5t-7.5 -70q0 -84 35 -128.5
t90 -44.5t90 44.5t35 128.5q0 37 -7.5 70t-22.5 57.5t-38.5 38.5t-56.5 14z" />
    <glyph glyph-name="pi" unicode="&#x3c0;" horiz-adv-x="620" 
d="M476 77q0 -18 2 -25.5t6 -7.5q8 0 17 5.5t26 28.5l59 -70q-27 -35 -56 -51.5t-61 -16.5q-61 0 -93.5 30t-32.5 97v298h-75v-190q0 -63 -8.5 -106.5t-33 -71.5t-69 -40.5t-115.5 -12.5v111q32 0 50.5 4.5t28 18t12 38.5t2.5 67v182h-96v110h534v-110h-97v-288v0z" />
    <glyph glyph-name="rho" unicode="&#x3c1;" horiz-adv-x="570" 
d="M56 194q0 91 22.5 148t57 89t76 44t80.5 12q55 0 101.5 -17.5t80 -52t52 -87.5t18.5 -123q0 -62 -16.5 -111.5t-46 -84t-69.5 -53t-87 -18.5q-48 0 -79.5 11.5t-58.5 36.5v-235h-131v441zM187 173q0 -26 7.5 -49t21.5 -40.5t34 -28t45 -10.5q32 0 53.5 13t34.5 35t19 52
t6 65q1 79 -25 125.5t-90 46.5q-106 0 -106 -163v-46z" />
    <glyph glyph-name="sigma" unicode="&#x3c3;" horiz-adv-x="570" 
d="M563 409q-31 -5 -53 -6.5t-48 -0.5q29 -36 44.5 -83t15.5 -109q0 -67 -19 -117.5t-52 -84.5t-78.5 -51t-97.5 -17q-53 0 -98 17t-78 51t-52 84.5t-19 117.5q0 70 18.5 122t51 86.5t78 51.5t99.5 17q32 0 62.5 1.5t62.5 4.5t67.5 8t77.5 13zM275 383q-33 0 -54.5 -13
t-34.5 -36.5t-18.5 -55t-5.5 -68.5q0 -84 29 -125t84 -41t84 41t29 125q0 37 -5.5 68.5t-18.5 55t-34.5 36.5t-54.5 13z" />
    <glyph glyph-name="tau" unicode="&#x3c4;" horiz-adv-x="530" 
d="M325 74q0 -29 16 -28q11 1 20.5 12t16.5 22l60 -71q-27 -36 -54.5 -52.5t-62.5 -16.5q-60 0 -92 29t-32 96v298h-185v113h506v-113h-193v-289z" />
    <glyph glyph-name="upsilon" unicode="&#x3c5;" horiz-adv-x="555" 
d="M437 490q32 -71 53 -148t21 -155q0 -52 -13 -97t-40.5 -78.5t-71.5 -53t-107 -19.5q-47 0 -87.5 14t-70.5 41.5t-47 69t-17 96.5v316h130v-310q0 -58 23.5 -85t64.5 -27q33 0 53.5 9.5t32 26.5t16 41t4.5 53q0 35 -7 73t-17.5 75t-23 71t-23.5 61z" />
    <glyph glyph-name="phi" unicode="&#x3c6;" horiz-adv-x="550" 
d="M337 480q41 -9 75 -30.5t58.5 -55.5t38 -80t13.5 -104q0 -55 -14 -99.5t-38.5 -77.5t-58.5 -55t-74 -31v-113h-123v113q-41 9 -75 30.5t-58.5 54.5t-38.5 77.5t-14 100.5q0 58 13.5 104t38 80t59 55.5t75.5 30.5v113h123v-113zM155 210q0 -55 15.5 -93t43.5 -58v308
q-31 -22 -45 -64t-14 -93zM395 210q0 51 -14 92.5t-44 63.5v-306q27 20 42.5 57.5t15.5 92.5z" />
    <glyph glyph-name="chi" unicode="&#x3c7;" horiz-adv-x="550" 
d="M199 113l-216 369h149l142 -242l143 243h149l-218 -370l217 -369h-148l-144 244l-143 -244h-148z" />
    <glyph glyph-name="psi" unicode="&#x3c8;" horiz-adv-x="680" 
d="M409 73q40 15 63 52.5t23 102.5v248h135v-235q0 -68 -16.5 -118.5t-46 -85t-70 -54.5t-88.5 -28v-203h-137v202q-48 8 -89 28t-70.5 54.5t-46 85t-16.5 119.5v235h135v-248q0 -66 23 -103t64 -52v403h137v-403z" />
    <glyph glyph-name="omega" unicode="&#x3c9;" horiz-adv-x="720" 
d="M485 -59q-30 0 -62.5 13t-61.5 37q-27 -24 -60.5 -37.5t-66.5 -13.5q-55 0 -93.5 19t-63 51t-35.5 75.5t-11 91.5t5.5 89.5t18.5 79t35.5 72t55.5 69.5l101 -65q-49 -50 -66.5 -109.5t-17.5 -134.5q0 -23 2 -44.5t9.5 -38t22 -27t38.5 -10.5q23 0 42.5 17t19.5 40v186
h125v-186q0 -23 19.5 -39.5t42.5 -16.5q24 0 38.5 10t21.5 27t9 38t2 44q0 75 -18.5 133.5t-67.5 108.5l101 66q33 -35 55.5 -69.5t36 -72t19.5 -78.5t6 -89t-11 -91t-35 -75.5t-62.5 -51t-93.5 -18.5z" />
    <glyph glyph-name="uni0401" unicode="&#x401;" horiz-adv-x="560" 
d="M204 239v-174h315v-113h-452v664h436v-113h-299v-152h283v-112h-283zM246 652h-131v131h131v-131zM454 652h-131v131h131v-131z" />
    <glyph glyph-name="uni0410" unicode="&#x410;" horiz-adv-x="600" 
d="M231 684h137l239 -739h-139l-55 181h-230l-51 -181h-139zM217 231h166l-84 257z" />
    <glyph glyph-name="uni0411" unicode="&#x411;" horiz-adv-x="570" 
d="M287 65q26 0 47 4.5t35.5 16t22 31.5t7.5 50q0 53 -33 74t-89 21h-74v-197h84zM259 374q90 0 144 -19.5t83 -50.5t38.5 -68t9.5 -71q0 -113 -60.5 -163t-168.5 -50h-238v725h425v-113h-289v-190h56z" />
    <glyph glyph-name="uni0412" unicode="&#x412;" horiz-adv-x="570" 
d="M275 683q114 0 175.5 -46.5t61.5 -146.5q0 -50 -15 -87.5t-64 -66.5q59 -24 85.5 -69t26.5 -102q0 -114 -58.5 -167t-176.5 -53h-253v738h218zM297 58q53 0 83 23.5t30 85.5q0 54 -34.5 78t-88.5 24h-94v-211h104zM264 381q50 0 81.5 25t31.5 82q0 24 -8 39.5t-22 25
t-33 13.5t-41 4h-80v-189h71z" />
    <glyph glyph-name="uni0413" unicode="&#x413;" horiz-adv-x="530" 
d="M504 677v-113h-300v-612h-137v725h437z" />
    <glyph glyph-name="uni0414" unicode="&#x414;" horiz-adv-x="720" 
d="M540 -151v125h-360v-125h-137v184q100 109 151.5 231t51.5 258v155h372v-589h59v-239h-137zM482 565h-108v-51q0 -108 -32.5 -220.5t-97.5 -205.5h238v477z" />
    <glyph glyph-name="uni0415" unicode="&#x415;" horiz-adv-x="560" 
d="M194 269v-211h336v-113h-473v738h457v-113h-320v-189h304v-112h-304z" />
    <glyph glyph-name="uni0416" unicode="&#x416;" horiz-adv-x="940" 
d="M894 -47h-15q-134 0 -216 78.5t-94 225.5h-34v-304h-133v304h-31q-13 -147 -94.5 -225.5t-215.5 -78.5h-15v110h15q92 0 136 64.5t44 178.5q0 57 -10.5 105t-32 83t-55.5 54.5t-82 19.5h-21v109h21q133 0 213.5 -81t95.5 -227h32v308h133v-308h35q7 73 31.5 130t64 96.5
t93.5 60.5t120 21h21v-109h-21q-48 0 -82 -19.5t-55.5 -54.5t-32 -83t-10.5 -105q0 -114 44 -178.5t136 -64.5h15v-110z" />
    <glyph glyph-name="uni0417" unicode="&#x417;" horiz-adv-x="540" 
d="M501 170q0 -50 -17 -89.5t-47.5 -68t-73 -43.5t-93.5 -15q-52 0 -94.5 14.5t-72.5 43t-46.5 69.5t-16.5 95v21h134q0 -64 22.5 -97t70.5 -33q54 0 75 25.5t21 80.5q0 29 -12.5 55t-43.5 37q-17 6 -39.5 9t-66.5 3v115q51 0 76 2.5t43 14.5q14 9 20.5 29t6.5 47
q0 77 -73 77q-46 0 -64.5 -27.5t-20.5 -91.5h-130q0 113 57 173t159 60q46 0 83.5 -12t64.5 -36t41.5 -59.5t14.5 -81.5t-15.5 -81.5t-50.5 -63.5q45 -29 66.5 -73.5t21.5 -98.5z" />
    <glyph glyph-name="uni0418" unicode="&#x418;" horiz-adv-x="665" 
d="M57 683h131v-522l259 522h164v-738h-131v541l-262 -541h-161v738z" />
    <glyph glyph-name="uni0419" unicode="&#x419;" horiz-adv-x="665" 
d="M67 616h131v-467l242 467h160v-663h-131v472l-247 -472h-155v663zM477 775q-3 -38 -15.5 -63.5t-31 -40.5t-41.5 -21.5t-47 -6.5q-55 0 -92 31t-43 101h109q2 -28 8.5 -36.5t17.5 -8.5t18 8.5t8 36.5h109z" />
    <glyph glyph-name="uni041A" unicode="&#x41a;" horiz-adv-x="593" 
d="M204 436l222 239h162l-286 -310l299 -412h-159l-228 317l-10 -12v-305h-137v723h137v-240z" />
    <glyph glyph-name="uni041B" unicode="&#x41b;" horiz-adv-x="690" 
d="M622 677v-738h-137v625h-215v-414q0 -46 -13 -83t-43 -64t-78.5 -44t-118.5 -22l-11 105q63 8 96.5 30.5t33.5 77.5v527h486z" />
    <glyph glyph-name="uni041C" unicode="&#x41c;" horiz-adv-x="780" 
d="M191 385v-440h-134v741h167l166 -556l166 556h167v-741h-134v440l-126 -440h-146z" />
    <glyph glyph-name="uni041D" unicode="&#x41d;" horiz-adv-x="660" 
d="M602 -55h-137v324h-271v-324h-137v738h137v-302h271v302h137v-738z" />
    <glyph glyph-name="uni041E" unicode="&#x41e;" horiz-adv-x="700" 
d="M350 -67q-71 0 -130 25.5t-102 73.5t-66.5 117t-23.5 157q0 91 23.5 162.5t65.5 120.5t101.5 74.5t131.5 25.5t131.5 -25.5t101.5 -74.5t65.5 -120.5t23.5 -162.5q0 -88 -23.5 -157t-66.5 -117t-102 -73.5t-130 -25.5zM350 580q-48 0 -83 -21.5t-58 -58.5t-34 -87
t-11 -107t12 -105t35.5 -83.5t58 -55t80.5 -19.5t80.5 19.5t58 55t35.5 83.5t12 105t-11 107t-34 87t-58 58.5t-83 21.5z" />
    <glyph glyph-name="uni041F" unicode="&#x41f;" horiz-adv-x="660" 
d="M67 -48v725h525v-724h-137v611h-254v-612h-134z" />
    <glyph glyph-name="uni0420" unicode="&#x420;" horiz-adv-x="557" 
d="M300 683q118 0 176.5 -59t58.5 -170q0 -109 -58.5 -169.5t-176.5 -60.5h-107v-279h-136v738h243zM296 337q49 0 77 27.5t28 87.5t-28 89t-77 29h-103v-233h103z" />
    <glyph glyph-name="uni0421" unicode="&#x421;" horiz-adv-x="600" 
d="M24 311q0 75 19.5 143.5t61 121t106 83.5t154.5 31q117 0 213 -72l-71 -96q-33 26 -67 41t-76 15q-54 0 -92.5 -22t-63.5 -59t-37 -85.5t-12 -100.5q0 -50 12 -97.5t37 -84.5t63.5 -60t92.5 -23q43 0 81 14.5t76 48.5l73 -85q-48 -47 -106 -68.5t-123 -21.5
q-90 0 -154.5 32t-106 84.5t-61 120.5t-19.5 140z" />
    <glyph glyph-name="uni0422" unicode="&#x422;" horiz-adv-x="530" 
d="M0 570v113h530v-113h-200v-625h-137v625h-193z" />
    <glyph glyph-name="uni0423" unicode="&#x423;" horiz-adv-x="500" 
d="M491 677l-200 -621q-20 -64 -61 -90t-98 -26q-23 0 -42 2t-49 13l21 103q25 -7 35 -8t21 -1q19 0 31 10t21 38l31 97l-189 482h136l112 -300l97 301h134z" />
    <glyph glyph-name="uni0424" unicode="&#x424;" horiz-adv-x="640" 
d="M384 569q46 -9 85 -31.5t67.5 -56t44 -78t15.5 -97.5q0 -54 -15.5 -98t-44 -77.5t-67.5 -55.5t-85 -31v-94h-129v94q-47 9 -85.5 31t-67 55.5t-44 78t-15.5 97.5t15.5 97t43.5 78t67 56t86 31v111h129v-110zM468 306q0 53 -22 92t-62 57v-298q40 18 62 56.5t22 92.5z
M171 307q0 -54 22.5 -93t61.5 -57v298q-39 -18 -61.5 -56.5t-22.5 -91.5z" />
    <glyph glyph-name="uni0425" unicode="&#x425;" horiz-adv-x="590" 
d="M222 314l-239 369h150l162 -256l162 256h150l-238 -369l238 -369h-149l-163 257l-161 -257h-150z" />
    <glyph glyph-name="uni0426" unicode="&#x426;" horiz-adv-x="660" 
d="M592 64h45v-215h-137v103h-433v724h137v-612h251v612h137v-612z" />
    <glyph glyph-name="uni0427" unicode="&#x427;" horiz-adv-x="564" 
d="M191 329q0 -41 13 -64t52 -23q45 0 75 25t48 61v348h134v-724h-134v234q-31 -25 -64.5 -37t-68.5 -12q-49 0 -84.5 14.5t-59 40.5t-34.5 61t-11 77v346h134v-347z" />
    <glyph glyph-name="uni0428" unicode="&#x428;" horiz-adv-x="880" 
d="M815 -48h-753v724h137v-612h171v612h137v-612h171v612h137v-724z" />
    <glyph glyph-name="uni0429" unicode="&#x429;" horiz-adv-x="880" 
d="M815 64h42v-215h-137v103h-658v724h137v-612h171v612h137v-612h171v612h137v-612z" />
    <glyph glyph-name="uni042A" unicode="&#x42a;" horiz-adv-x="620" 
d="M10 677h246v-305h56q90 0 144 -19.5t83 -49.5t38.5 -67t9.5 -71q0 -113 -60.5 -163t-168.5 -50h-238v612h-110v113zM340 65q26 0 47 4.5t35.5 16t22 31.5t7.5 50q0 53 -33 73t-89 20h-74v-195h84z" />
    <glyph glyph-name="uni042B" unicode="&#x42b;" horiz-adv-x="780" 
d="M591 677h137v-724h-137v724zM67 677h136v-305h56q90 0 144 -19.5t83 -49.5t38.5 -67t9.5 -71q0 -113 -60.5 -163t-168.5 -50h-238v725zM287 65q26 0 47 4.5t35.5 16t22 31.5t7.5 50q0 53 -33 73t-89 20h-74v-195h84z" />
    <glyph glyph-name="uni042C" unicode="&#x42c;" horiz-adv-x="570" 
d="M67 677h136v-305h56q90 0 144 -19.5t83 -49.5t38.5 -67t9.5 -71q0 -113 -60.5 -163t-168.5 -50h-238v725zM287 65q26 0 47 4.5t35.5 16t22 31.5t7.5 50q0 53 -33 73t-89 20h-74v-195h84z" />
    <glyph glyph-name="uni042D" unicode="&#x42d;" horiz-adv-x="600" 
d="M581 311q0 -72 -18 -139t-58 -119t-102.5 -83t-152.5 -31q-66 0 -118.5 19.5t-100.5 66.5l75 88q38 -35 70.5 -48.5t74.5 -13.5q46 0 79.5 16.5t56.5 45t36 66.5t18 80h-326v112h325q-5 42 -18 78.5t-36 63.5t-56.5 42.5t-78.5 15.5q-42 0 -70 -13.5t-61 -39.5l-71 98
q47 36 94 51.5t107 15.5q90 0 152.5 -30t102.5 -81t58 -118.5t18 -142.5z" />
    <glyph glyph-name="uni042E" unicode="&#x42e;" 
d="M199 381h64q9 71 34.5 127t65 94.5t92 59t115.5 20.5q71 0 128.5 -25.5t98 -74t62.5 -118.5t22 -158q0 -85 -22.5 -153t-63 -115t-98 -72.5t-127.5 -25.5q-66 0 -121 22.5t-95.5 65t-64.5 103.5t-29 138h-61v-316h-137v723h137v-295zM570 575q-47 0 -80.5 -21t-55 -58
t-31.5 -86t-10 -104q0 -56 11 -103t33 -81.5t55 -54t78 -19.5t78 19.5t55 54t33 81.5t11 103q0 55 -10 104t-31.5 86t-55 58t-80.5 21z" />
    <glyph glyph-name="uni042F" unicode="&#x42f;" horiz-adv-x="570" 
d="M505 677v-735h-136v299h-42l-187 -291h-146l192 301q-139 35 -139 208q0 218 226 218h232zM369 354v210h-92q-49 0 -72.5 -23.5t-23.5 -83.5t23.5 -81.5t72.5 -21.5h92z" />
    <glyph glyph-name="uni0430" unicode="&#x430;" horiz-adv-x="484" 
d="M309 291v5q0 13 -3 29t-12 30.5t-26.5 24t-46.5 9.5q-26 0 -62 -16t-71 -44l-45 97q38 30 86 49t106 19q63 0 103.5 -19t63.5 -50.5t32 -71.5t9 -81v-327h-131v31q-24 -20 -61 -31.5t-72 -11.5q-44 0 -75 13.5t-50.5 36t-28.5 51.5t-9 60q0 91 69.5 144t198.5 53h25z
M306 107q3 12 3 26v58q-9 1 -17 1.5t-15 0.5q-23 0 -45.5 -5t-40.5 -16t-29 -27.5t-11 -39.5q0 -35 13.5 -51t36.5 -16q40 0 68.5 21.5t36.5 47.5z" />
    <glyph glyph-name="uni0431" unicode="&#x431;" horiz-adv-x="550" 
d="M275 -60q-54 0 -99.5 18t-78.5 52.5t-51.5 85t-18.5 116.5q0 84 22.5 162t72 138t128.5 97.5t193 40.5l11 -113q-55 2 -107.5 -8t-98.5 -42q29 8 55 5q49 -5 89.5 -25.5t69.5 -56t45 -86t16 -114.5q0 -66 -18.5 -116t-51.5 -84.5t-78.5 -52t-99.5 -17.5zM275 391
q-32 0 -54 -14.5t-35.5 -39t-19.5 -57t-6 -68.5q0 -82 30.5 -126t84.5 -44t84.5 43t30.5 125q0 36 -6 69t-19.5 58t-35.5 39.5t-54 14.5z" />
    <glyph glyph-name="uni0432" unicode="&#x432;" horiz-adv-x="480" 
d="M258 477q88 0 136 -32.5t48 -109.5q0 -31 -9.5 -56.5t-32.5 -46.5q33 -20 49 -50.5t16 -70.5q0 -86 -47 -122.5t-136 -36.5h-225v525h201zM273 58q29 0 46 12t17 43q0 29 -19.5 42.5t-51.5 13.5h-79v-111h87zM250 274q33 0 48.5 12t15.5 43q0 24 -17 33t-42 9h-69v-97h64
z" />
    <glyph glyph-name="uni0433" unicode="&#x433;" horiz-adv-x="470" 
d="M444 477v-113h-250v-411h-137v524h387z" />
    <glyph glyph-name="uni0434" unicode="&#x434;" horiz-adv-x="620" 
d="M546 30h44v-205h-137v117h-289v-117h-135v164q89 84 126.5 190t37.5 239v57h353v-445zM418 361h-102v-8q0 -34 -6.5 -73.5t-17.5 -79.5t-25.5 -78.5t-31.5 -69.5h183v309z" />
    <glyph glyph-name="uni0435" unicode="&#x435;" horiz-adv-x="510" 
d="M261 389q-29 0 -48 -10t-32 -26t-20 -34.5t-10 -36.5h214q-4 17 -11.5 36t-19.5 34.5t-30 26t-43 10.5zM486 9q-27 -22 -55.5 -36t-56.5 -22.5t-54 -12t-46 -3.5q-52 0 -98.5 17.5t-81 53t-54.5 88t-20 121.5q0 61 16.5 112.5t47 88.5t75.5 57.5t102 20.5q67 0 113 -25.5
t73.5 -69t38 -101.5t6.5 -123h-343q3 -36 14.5 -61.5t29 -41.5t40.5 -23t49 -7q35 0 74 12.5t88 41.5z" />
    <glyph glyph-name="uni0436" unicode="&#x436;" horiz-adv-x="740" 
d="M703 -60q-108 0 -172 57t-77 160h-23v-207h-123v207h-23q-14 -103 -78 -160t-171 -57v104q133 0 133 166q0 37 -6.5 69t-22.5 55t-41.5 36.5t-62.5 13.5v104q109 0 172.5 -57.5t76.5 -165.5h23v215h123v-215h23q13 108 76 165.5t173 57.5v-104q-38 0 -63 -13.5t-41 -36.5
t-22.5 -55t-6.5 -69q0 -166 133 -166v-104z" />
    <glyph glyph-name="uni0437" unicode="&#x437;" horiz-adv-x="460" 
d="M433 107q0 -45 -18 -77.5t-47 -52.5t-66 -29.5t-75 -9.5q-44 0 -82 10t-65.5 32.5t-43.5 59t-16 88.5h128q0 -48 22 -69t58 -21q31 0 52.5 16t21.5 55q0 38 -28 53.5t-67 15.5h-29v95h30q12 0 26 3t25.5 10.5t19 19t7.5 28.5q0 28 -15 40t-40 12q-34 0 -50 -20.5
t-18 -68.5h-123q0 50 15.5 86t42 59t61.5 34t73 11q36 0 69.5 -8.5t59 -27t40.5 -47.5t15 -70q0 -30 -13.5 -56t-36.5 -45q35 -19 51 -51.5t16 -74.5z" />
    <glyph glyph-name="uni0438" unicode="&#x438;" horiz-adv-x="520" 
d="M47 483h129v-324l151 324h154v-538h-129l2 329l-154 -329h-153v538z" />
    <glyph glyph-name="uni0439" unicode="&#x439;" horiz-adv-x="520" 
d="M47 483h129v-324l151 324h154v-538h-129l2 329l-154 -329h-153v538zM415 663q-6 -66 -40 -107t-106 -41q-63 0 -101 38.5t-44 109.5h113q5 -58 32 -58q28 0 30 58h116z" />
    <glyph glyph-name="uni043A" unicode="&#x43a;" horiz-adv-x="480" 
d="M174 335l146 141h167l-231 -223l227 -299h-154l-155 206v-215h-133v538h133v-148z" />
    <glyph glyph-name="uni043B" unicode="&#x43b;" horiz-adv-x="580" 
d="M523 477v-524h-134v411h-118v-210q0 -46 -13 -83t-43 -64t-78.5 -44t-118.5 -22l-11 105q63 8 96.5 30.5t33.5 77.5v323h386z" />
    <glyph glyph-name="uni043C" unicode="&#x43c;" horiz-adv-x="580" 
d="M414 -47v231l-71 -231h-102l-70 232v-232h-114v524h127l107 -352l109 352h127v-524h-113z" />
    <glyph glyph-name="uni043D" unicode="&#x43d;" horiz-adv-x="550" 
d="M191 279h174v198h134v-524h-134v214h-174v-214h-134v524h134v-198z" />
    <glyph glyph-name="uni043E" unicode="&#x43e;" horiz-adv-x="550" 
d="M275 -67q-53 0 -100 18t-82 53.5t-55.5 87t-20.5 118.5q0 70 20 123t54.5 89t81.5 54t102 18t102 -18t81.5 -54t54.5 -89t20 -123q0 -67 -20.5 -118.5t-55.5 -87t-82 -53.5t-100 -18zM275 390q-33 0 -56.5 -14t-38.5 -38.5t-22 -57.5t-7 -70q0 -84 34.5 -128.5
t89.5 -44.5t89.5 44.5t34.5 128.5q0 37 -7 70t-22 57.5t-38.5 38.5t-56.5 14z" />
    <glyph glyph-name="uni043F" unicode="&#x43f;" horiz-adv-x="550" 
d="M499 -47h-134v412h-175v-412h-134v524h443v-524z" />
    <glyph glyph-name="uni0440" unicode="&#x440;" horiz-adv-x="570" 
d="M171 483v-34q28 26 65 35.5t75 9.5q46 0 89.5 -17.5t78 -53.5t55.5 -90t21 -126q0 -62 -17 -112.5t-47.5 -86.5t-72.5 -55.5t-93 -19.5q-45 0 -81.5 11t-63.5 34v-232h-134v737h125zM177 173q0 -26 9 -50t24.5 -43t37 -30.5t47.5 -11.5q33 0 56.5 14t38.5 37.5t22.5 54.5
t7.5 66q1 80 -31.5 129.5t-95.5 49.5q-26 0 -47.5 -10.5t-36.5 -28t-23.5 -40t-8.5 -47.5v-90z" />
    <glyph glyph-name="uni0441" unicode="&#x441;" horiz-adv-x="460" 
d="M452 -30q-20 -10 -64 -23.5t-100 -13.5q-63 0 -113 20.5t-84.5 57.5t-53 88.5t-18.5 113.5q0 64 20 115.5t56.5 88.5t89.5 57t119 20q44 0 81.5 -11t63.5 -27l-29 -105q-26 14 -54.5 23.5t-61.5 9.5q-74 0 -111.5 -46.5t-37.5 -119.5q0 -41 11.5 -73t31.5 -54.5
t47.5 -34.5t59.5 -12t62.5 8.5t62.5 22.5z" />
    <glyph glyph-name="uni0442" unicode="&#x442;" horiz-adv-x="489" 
d="M10 363v113h470v-113h-172v-411h-135v411h-163z" />
    <glyph glyph-name="uni0443" unicode="&#x443;" horiz-adv-x="473" 
d="M34 -135q17 -4 28 -6t18 -3t12 -1h10q20 0 36.5 10.5t25.5 37.5l22 66l-203 515h131l130 -346l111 345h132l-208 -621q-20 -61 -63.5 -88.5t-99.5 -27.5q-23 0 -46.5 4.5t-52.5 14.5l17 100v0z" />
    <glyph glyph-name="uni0444" unicode="&#x444;" horiz-adv-x="550" 
d="M337 481q84 -18 134.5 -86.5t50.5 -184.5q0 -55 -13.5 -99.5t-38.5 -77.5t-59 -55t-74 -31v-178h-124v178q-41 9 -75 31t-59 55t-38.5 77.5t-13.5 99.5q0 116 51 184.5t135 86.5v199h124v-199zM395 210q0 51 -14 94t-44 66v-312q27 20 42.5 59t15.5 93zM155 210
q0 -54 15.5 -93t42.5 -59v312q-30 -23 -44 -66t-14 -94z" />
    <glyph glyph-name="uni0445" unicode="&#x445;" horiz-adv-x="468" 
d="M235 113l-120 -168h-146l193 271l-189 267h146l116 -164l116 164h146l-189 -267l192 -271h-146z" />
    <glyph glyph-name="uni0446" unicode="&#x446;" horiz-adv-x="570" 
d="M499 37h44v-215h-137v131h-350v524h134v-412h175v412h134v-440z" />
    <glyph glyph-name="uni0447" unicode="&#x447;" horiz-adv-x="564" 
d="M191 129q0 -41 13 -64t52 -23q45 0 75 25t48 61v348h134v-724h-134v234q-31 -25 -64.5 -37t-68.5 -12q-49 0 -84.5 14.5t-59 40.5t-34.5 61t-11 77v346h134v-347z" />
    <glyph glyph-name="uni0448" unicode="&#x448;" horiz-adv-x="655" 
d="M600 -48h-542v525h134v-413h70v413h134v-413h70v413h134v-525z" />
    <glyph glyph-name="uni0449" unicode="&#x449;" horiz-adv-x="670" 
d="M600 39h43v-215h-137v128h-448v525h134v-413h70v413h134v-413h70v413h134v-438z" />
    <glyph glyph-name="uni044A" unicode="&#x44a;" horiz-adv-x="520" 
d="M293 265q105 0 151 -35.5t46 -118.5q0 -86 -44.5 -122.5t-133.5 -36.5h-220v413h-81v112h215v-212h67zM301 60q29 0 43.5 9t14.5 44q0 28 -17 36.5t-49 8.5h-67v-98h75z" />
    <glyph glyph-name="uni044B" unicode="&#x44b;" horiz-adv-x="640" 
d="M462 480h134v-530h-134v530zM242 265q104 0 148 -37.5t44 -116.5q0 -86 -42 -122.5t-131 -36.5h-205v525h134v-212h52zM250 60q29 0 41 11t12 42q0 24 -14.5 34.5t-46.5 10.5h-52v-98h60z" />
    <glyph glyph-name="uni044C" unicode="&#x44c;" horiz-adv-x="480" 
d="M257 265q105 0 151 -35.5t46 -118.5q0 -86 -44.5 -122.5t-133.5 -36.5h-220v525h134v-212h67zM265 60q29 0 43.5 9t14.5 44q0 28 -17 36.5t-49 8.5h-67v-98h75z" />
    <glyph glyph-name="uni044D" unicode="&#x44d;" horiz-adv-x="460" 
d="M51 79q30 -12 55.5 -20.5t57.5 -8.5q51 0 85 27.5t46 80.5h-187v112h188q-9 50 -40 79.5t-91 29.5q-34 0 -57 -7t-49 -21l-31 103q26 16 59.5 25.5t77.5 9.5q67 0 118.5 -19t86 -55t52 -87t17.5 -115q0 -128 -67 -201t-191 -73q-56 0 -92.5 11t-60.5 23z" />
    <glyph glyph-name="uni044E" unicode="&#x44e;" horiz-adv-x="745" 
d="M465 -60q-48 0 -90.5 15t-75.5 44t-54.5 71t-27.5 97h-35v-215h-131v525h131v-198h39q18 103 84 156t160 53q54 0 99.5 -18t79 -53t52 -87t18.5 -120q0 -65 -19 -115t-52.5 -84.5t-79 -52.5t-98.5 -18zM465 387q-32 0 -54 -14t-36.5 -38.5t-21 -56.5t-6.5 -68
q0 -81 32.5 -125t85.5 -44t85 44t32 125q0 36 -6.5 68t-20.5 56.5t-36.5 38.5t-53.5 14z" />
    <glyph glyph-name="uni044F" unicode="&#x44f;" horiz-adv-x="430" 
d="M377 477v-525h-124v198l-124 -196h-135l133 209q-91 32 -91 151q0 84 43 123.5t128 39.5h170zM253 258v113h-43q-19 0 -35 -12.5t-16 -45.5t16 -44t35 -11h43z" />
    <glyph glyph-name="uni0451" unicode="&#x451;" horiz-adv-x="510" 
d="M225 532h-139v131h139v-131zM433 532h-139v131h139v-131zM261 389q-29 0 -48 -10t-32 -26t-20 -34.5t-10 -36.5h214q-4 17 -11.5 36t-19.5 34.5t-30 26t-43 10.5zM486 9q-27 -22 -55.5 -36t-56.5 -22.5t-54 -12t-46 -3.5q-52 0 -98.5 17.5t-81 53t-54.5 88t-20 121.5
q0 61 16.5 112.5t47 88.5t75.5 57.5t102 20.5q67 0 113 -25.5t73.5 -69t38 -101.5t6.5 -123h-343q3 -36 14.5 -61.5t29 -41.5t40.5 -23t49 -7q35 0 74 12.5t88 41.5z" />
    <glyph glyph-name="quoteleft" unicode="&#x2018;" horiz-adv-x="245" 
d="M137 758q11 6 23.5 4.5t18.5 -9.5l16 -21q-32 -18 -49.5 -42t-22.5 -54q18 3 34 -2t28 -15t19 -24.5t7 -30.5q0 -29 -21 -52.5t-61 -23.5q-48 0 -69.5 29t-21.5 74q0 49 24.5 95t74.5 72z" />
    <glyph glyph-name="quoteright" unicode="&#x2019;" horiz-adv-x="245" 
d="M112 500q-11 -6 -23.5 -4.5t-18.5 9.5l-16 21q32 18 49.5 42t22.5 54q-18 -3 -34 2t-28 15t-19 24.5t-7 30.5q0 29 21 52.5t61 23.5q48 0 69.5 -29t21.5 -74q0 -50 -24.5 -95.5t-74.5 -71.5z" />
    <glyph glyph-name="quotedblleft" unicode="&#x201c;" horiz-adv-x="443" 
d="M137 758q11 6 23.5 4.5t18.5 -9.5l16 -21q-32 -18 -49.5 -42t-22.5 -54q18 3 34 -2t28 -15t19 -24.5t7 -30.5q0 -29 -21 -52.5t-61 -23.5q-48 0 -69.5 29t-21.5 74q0 49 24.5 95t74.5 72zM333 758q11 6 23.5 4.5t18.5 -9.5l16 -21q-32 -18 -49.5 -42t-22.5 -54
q18 3 34 -2t28 -15t19 -24.5t7 -30.5q0 -29 -21 -52.5t-61 -23.5q-48 0 -69.5 29t-21.5 74q0 49 24.5 95t74.5 72z" />
    <glyph glyph-name="quotedblright" unicode="&#x201d;" horiz-adv-x="443" 
d="M308 500q-11 -6 -23.5 -4.5t-18.5 9.5l-16 21q32 18 49.5 42t22.5 54q-18 -3 -34 2t-28 15t-19 24.5t-7 30.5q0 29 21 52.5t61 23.5q48 0 69.5 -29t21.5 -74q0 -50 -24.5 -95.5t-74.5 -71.5zM112 500q-11 -6 -23.5 -4.5t-18.5 9.5l-16 21q32 18 49.5 42t22.5 54
q-18 -3 -34 2t-28 15t-19 24.5t-7 30.5q0 29 21 52.5t61 23.5q48 0 69.5 -29t21.5 -74q0 -50 -24.5 -95.5t-74.5 -71.5z" />
    <glyph glyph-name="dagger" unicode="&#x2020;" horiz-adv-x="640" 
d="M381 341v-421h-123v421h-184v107h184v224h123v-224h184v-107h-184z" />
    <glyph glyph-name="daggerdbl" unicode="&#x2021;" horiz-adv-x="640" 
d="M258 346v89h-183v107h183v131h123v-131h184v-107h-184v-89h184v-107h-184v-320h-123v320h-183v107h183z" />
    <glyph glyph-name="twodotenleader" unicode="&#x2025;" horiz-adv-x="800" 
d="M299 231h-141v141h141v-141zM642 231h-141v141h141v-141z" />
    <glyph glyph-name="ellipsis" unicode="&#x2026;" horiz-adv-x="800" 
d="M202 231h-141v141h141v-141zM469 231h-141v141h141v-141zM737 231h-141v141h141v-141z" />
    <glyph glyph-name="perthousand" unicode="&#x2030;" horiz-adv-x="940" 
d="M158 279q-68 0 -98 46.5t-30 138.5q0 91 29.5 141.5t98.5 50.5t98.5 -50.5t29.5 -141.5q0 -92 -30 -138.5t-98 -46.5zM158 567q-13 0 -18.5 -27t-5.5 -76q0 -51 5.5 -73.5t19.5 -22.5q12 0 17.5 22.5t5.5 73.5q0 49 -5.5 76t-18.5 27zM413 677h97l-265 -724h-97zM501 -23
q-68 0 -98 46.5t-30 138.5q0 91 29.5 141.5t98.5 50.5t98.5 -50.5t29.5 -141.5q0 -92 -30 -138.5t-98 -46.5zM501 265q-13 0 -18.5 -27t-5.5 -76q0 -51 5.5 -73.5t19.5 -22.5q12 0 17.5 22.5t5.5 73.5q0 49 -5.5 76t-18.5 27zM781 -23q-68 0 -98 46.5t-30 138.5
q0 91 29.5 141.5t98.5 50.5t98.5 -50.5t29.5 -141.5q0 -92 -30 -138.5t-98 -46.5zM781 265q-13 0 -18.5 -27t-5.5 -76q0 -51 5.5 -73.5t19.5 -22.5q12 0 17.5 22.5t5.5 73.5q0 49 -5.5 76t-18.5 27z" />
    <glyph glyph-name="minute" unicode="&#x2032;" horiz-adv-x="340" 
d="M153 457h-95l99 260h147z" />
    <glyph glyph-name="second" unicode="&#x2033;" horiz-adv-x="540" 
d="M149 458h-94l99 259h148zM329 458h-94l104 259h146z" />
    <glyph glyph-name="uni203B" unicode="&#x203b;" horiz-adv-x="863" 
d="M500 280l198 -199q13 -14 12.5 -32t-13.5 -31l-42 -38l-227 228l-226 -228l-42 38q-14 12 -14 30.5t13 32.5l198 199l-197 199q-14 14 -13.5 32t14.5 31l41 38l226 -228l227 228l41 -38q14 -13 14.5 -31t-13.5 -32zM353 5q0 30 22 50.5t54 20.5t54 -20.5t22 -50.5
t-22 -51t-54 -21t-54 21t-22 51zM357 558q0 30 21.5 51t53.5 21t54 -21t22 -51q0 -29 -22 -50.5t-54 -21.5t-53.5 21.5t-21.5 50.5zM647 292q0 30 21 50.5t54 20.5q31 0 53 -20.5t22 -50.5q0 -29 -22 -50.5t-53 -21.5q-33 0 -54 21.5t-21 50.5zM66 292q0 30 21.5 50.5
t53.5 20.5t53.5 -20.5t21.5 -50.5q0 -29 -21.5 -50.5t-53.5 -21.5t-53.5 21.5t-21.5 50.5z" />
    <glyph glyph-name="uni2074" unicode="&#x2074;" horiz-adv-x="340" 
d="M29 472v65l157 260h82v-241h42v-84h-42v-66h-89v66h-150zM137 557h42v72z" />
    <glyph glyph-name="uni207F" unicode="&#x207f;" horiz-adv-x="400" 
d="M242 656q0 31 -10.5 42t-28.5 11q-19 0 -29.5 -12.5t-15.5 -28.5v-260h-111v379h106v-15q30 23 67 23q62 0 97 -35t35 -104v-248h-110v248z" />
    <glyph glyph-name="uni2081" unicode="&#x2081;" horiz-adv-x="340" 
d="M64 144l99 54h74v-388h-104v269l-28 -15z" />
    <glyph glyph-name="uni2082" unicode="&#x2082;" horiz-adv-x="340" 
d="M42 -121q44 42 71.5 71.5t43.5 50.5t22 37.5t8 33.5q3 29 -26 29q-13 0 -29 -9t-44 -38l-54 78q37 35 67 49.5t69 14.5q31 0 54 -10t38 -26.5t22.5 -38.5t7.5 -45q0 -22 -4.5 -42.5t-15.5 -42.5t-29 -45.5t-45 -51.5h105v-88h-261v73z" />
    <glyph glyph-name="uni2083" unicode="&#x2083;" horiz-adv-x="340" 
d="M78 -83q22 -14 40 -19.5t37 -5.5q26 0 35 9.5t9 22.5q0 20 -15.5 30.5t-38.5 10.5h-39v87h39q22 0 31 7.5t11 22.5q1 10 -6 17t-20 7q-15 0 -30.5 -4t-39.5 -22l-39 72q31 24 59 34.5t59 10.5q32 0 54.5 -9t37 -23.5t21.5 -33t7 -36.5q0 -20 -10 -42.5t-30 -39.5
q24 -11 38.5 -36t14.5 -54q0 -23 -9 -44.5t-27.5 -39t-46 -28t-64.5 -10.5q-35 0 -62 8.5t-61 28.5z" />
    <glyph glyph-name="uni2084" unicode="&#x2084;" horiz-adv-x="340" 
d="M29 -128v65l157 260h82v-241h42v-84h-42v-66h-89v66h-150zM137 -43h42v72z" />
    <glyph glyph-name="uni2103" unicode="&#x2103;" horiz-adv-x="886" 
d="M234 270q0 80 22 150t68 122t116 82t165 30q128 0 228 -70l-29 -44q-12 -18 -33 -23t-43 5q-38 17 -65 23t-59 6q-59 0 -103.5 -21.5t-75 -59.5t-46 -89t-15.5 -111q0 -57 15.5 -107.5t46 -88.5t75 -60t103.5 -22q54 0 97 14t83 49l29 -33q18 -20 17 -43t-24 -37
q-45 -28 -94 -40.5t-107 -12.5q-95 0 -165 30.5t-116 83t-68 121.5t-22 146zM267 652q0 -21 -9 -40.5t-24.5 -33.5t-35.5 -22.5t-42 -8.5q-23 0 -43 8.5t-35 22.5t-24 33.5t-9 40.5t9.5 40t25 33.5t35.5 22.5t41 8q22 0 42 -8t35.5 -22.5t24.5 -33.5t9 -40zM188 652
q0 16 -9 24t-23 8q-13 0 -23 -8t-10 -24t10 -24t23 -8q14 0 23 8t9 24z" />
    <glyph glyph-name="uni2109" unicode="&#x2109;" horiz-adv-x="840" 
d="M333 587q0 29 15.5 44.5t46.5 15.5h414v-43q0 -60 -62 -60h-286v-206h335v-43q0 -60 -62 -60h-273v-274q0 -60 -62 -60h-66v686zM267 652q0 -21 -9 -40.5t-24.5 -33.5t-35.5 -22.5t-42 -8.5q-23 0 -43 8.5t-35 22.5t-24 33.5t-9 40.5t9.5 40t25 33.5t35.5 22.5t41 8
q22 0 42 -8t35.5 -22.5t24.5 -33.5t9 -40zM188 652q0 16 -9 24t-23 8q-13 0 -23 -8t-10 -24t10 -24t23 -8q14 0 23 8t9 24z" />
    <glyph glyph-name="uni2113" unicode="&#x2113;" horiz-adv-x="430" 
d="M397 526q0 -42 -13 -94t-37.5 -108.5t-61 -114t-84.5 -109.5q5 -26 13 -41.5t19 -15.5q9 0 21 16.5t26 57.5l95 -48q-15 -39 -31.5 -64t-34.5 -39t-38.5 -19t-45.5 -5q-37 0 -62 24t-41 59q-14 -12 -29.5 -22.5t-31.5 -21.5l-60 82q24 17 47 35t45 38q-5 35 -7 66t-2 51
q0 98 12 177.5t36 135.5t58.5 86.5t79.5 30.5q34 0 58 -11.5t39.5 -32t22.5 -49.5t7 -64zM264 573q-13 0 -25 -28.5t-21 -74t-15 -102t-8 -111.5q38 58 60.5 122.5t25.5 136.5q3 57 -17 57z" />
    <glyph glyph-name="uni2116" unicode="&#x2116;" horiz-adv-x="940" 
d="M402 -48h-133l-126 446v-446h-111v724h137l122 -441v441h111v-724zM610 -59q-51 0 -85.5 23t-55 60.5t-29 86t-8.5 100.5q0 54 8.5 104t29 88.5t54.5 61t86 22.5t86 -22.5t54.5 -61t28.5 -88.5t8 -104q0 -52 -8.5 -100.5t-28.5 -86t-54.5 -60.5t-85.5 -23zM610 389
q-17 0 -27 -15.5t-15.5 -40.5t-7.5 -57t-2 -65q0 -37 3 -68.5t9.5 -54.5t16.5 -36t23 -13t23 13t16 36t9 54.5t3 68.5q0 33 -1.5 65t-7 57t-15.5 40.5t-27 15.5zM914 -53h-127v127h127v-127z" />
    <glyph glyph-name="uni2121" unicode="&#x2121;" horiz-adv-x="940" 
d="M3 563v113h429v-113h-152v-611h-133v611h-144zM536 382q-18 0 -30.5 -9.5t-20.5 -24.5t-12.5 -33t-7.5 -35h130q-2 16 -5.5 34t-10 33t-17 25t-26.5 10zM715 8q-41 -33 -80.5 -50t-87.5 -17q-44 0 -82 17.5t-66 52t-43.5 86t-15.5 118.5q0 59 12.5 109t37 86t61 56.5
t85.5 20.5q64 0 103 -29t58.5 -74.5t24 -100.5t1.5 -107h-260q4 -71 29 -99.5t60 -28.5q27 0 56.5 9t73.5 41zM890 706v-753h-132v753h132z" />
    <glyph glyph-name="trademark" unicode="&#x2122;" horiz-adv-x="800" 
d="M650 358v115l-42 -115h-72l-47 122v-122h-106v367h96l92 -226l87 226h98v-367h-106zM254 623v-265h-119v265h-99v102h319v-102h-101z" />
    <glyph glyph-name="Omega" unicode="&#x2126;" horiz-adv-x="760" 
d="M380 573q-51 0 -86.5 -17t-58 -47.5t-32.5 -72.5t-10 -93t11.5 -97.5t32.5 -86t49.5 -70.5t61.5 -50v-87h-306v112h113q-44 51 -71.5 122t-27.5 156q0 79 20.5 142t61.5 107t101.5 67.5t140.5 23.5t140.5 -23.5t101.5 -67.5t61.5 -107t20.5 -142q0 -90 -25.5 -158.5
t-73.5 -119.5h113v-112h-306v87q33 19 61.5 50t49.5 70.5t32.5 86t11.5 97.5t-10 93t-32.5 72.5t-58 47.5t-86.5 17z" />
    <glyph glyph-name="uni212B" unicode="&#x212b;" horiz-adv-x="600" 
d="M403 97h-207l-52 -144h-139l228 603h133l228 -604h-138zM397 684q0 -23 -8.5 -40.5t-22 -29t-31.5 -17.5t-36 -6t-36 6t-32 17.5t-22.5 29t-8.5 40.5t8.5 40.5t22.5 29t32 17.5t36 6t36 -6t31.5 -17.5t22 -29t8.5 -40.5zM235 202h130l-65 179zM326 684q0 11 -7.5 18
t-18.5 7q-27 0 -27 -25t27 -25q11 0 18.5 6.5t7.5 18.5z" />
    <glyph glyph-name="onethird" unicode="&#x2153;" horiz-adv-x="720" 
d="M458 82q23 -13 39.5 -18.5t36.5 -5.5q28 0 36 9.5t8 22.5q0 20 -15.5 30.5t-38.5 10.5h-39v87h39q22 0 31 7.5t11 22.5q1 10 -6 17t-20 7q-15 0 -31.5 -4.5t-37.5 -21.5l-39 71q33 26 59.5 36t57.5 10q32 0 54.5 -9t37 -23.5t21.5 -33t7 -36.5q0 -20 -10 -42.5t-30 -39.5
q24 -11 38.5 -36t14.5 -54q0 -23 -9 -44.5t-27.5 -39t-46 -28t-64.5 -10.5q-35 0 -61 8t-61 28zM151 -48h-103l442 708h103zM34 601l99 54h74v-388h-104v269l-28 -15z" />
    <glyph glyph-name="twothirds" unicode="&#x2154;" horiz-adv-x="720" 
d="M206 -48h-103l442 708h103zM472 79q21 -11 34.5 -16t32.5 -5q28 0 36 9.5t8 22.5q0 20 -15.5 30.5t-38.5 10.5h-39v87h39q22 0 31 7.5t11 22.5q1 10 -6 17t-20 7q-15 0 -27 -3.5t-30 -17.5l-39 73q29 22 51.5 30.5t53.5 8.5q32 0 54.5 -9t37 -23.5t21.5 -33t7 -36.5
q0 -20 -10 -42.5t-30 -39.5q24 -11 38.5 -36t14.5 -54q0 -23 -9 -44.5t-27.5 -39t-46 -28t-64.5 -10.5q-35 0 -60.5 9.5t-52.5 23.5zM37 340q44 42 71.5 71.5t43.5 51t22 38t8 33.5q3 29 -26 29q-13 0 -29 -9t-44 -38l-54 78q37 35 67 49.5t69 14.5q31 0 54 -10t38 -26.5
t22.5 -38.5t7.5 -45q0 -22 -4.5 -43t-15.5 -42.5t-29 -45.5t-45 -52h91v-88h-247v73z" />
    <glyph glyph-name="oneeighth" unicode="&#x215b;" horiz-adv-x="720" 
d="M681 89q0 -29 -10.5 -52t-29 -38.5t-43.5 -23.5t-53 -8q-63 0 -98.5 32.5t-35.5 81.5q0 23 12.5 48t41.5 43q-23 18 -32 41t-9 40q0 52 35.5 81t89.5 29q30 0 52.5 -8.5t37 -23t22 -33t7.5 -39.5q0 -17 -11.5 -40t-31.5 -38q28 -17 42 -42t14 -50zM584 80q0 32 -44 50
q-16 -8 -24 -20.5t-8 -24.5q0 -15 10 -24.5t28 -9.5q17 0 27.5 7.5t10.5 21.5zM517 254q0 -23 34 -37q11 7 17.5 17t6.5 19q0 28 -28 28q-15 0 -22.5 -7.5t-7.5 -19.5zM151 -48h-103l442 708h103zM34 601l99 54h74v-388h-104v269l-28 -15z" />
    <glyph glyph-name="threeeighths" unicode="&#x215c;" horiz-adv-x="720" 
d="M53 380q22 -14 40 -19.5t37 -5.5q26 0 35 9.5t9 22.5q0 20 -15.5 30.5t-38.5 10.5h-39v87h39q22 0 31 7.5t11 22.5q1 10 -6 17t-20 7q-15 0 -30.5 -4t-39.5 -22l-39 72q31 24 59 34.5t59 10.5q32 0 54.5 -9t37 -23.5t21.5 -33t7 -36.5q0 -20 -10 -42.5t-30 -39.5
q24 -11 38.5 -36t14.5 -54q0 -23 -9 -44.5t-27.5 -39t-46 -28t-64.5 -10.5q-35 0 -62 8.5t-61 28.5zM183 -48h-103l442 708h103zM696 89q0 -29 -10.5 -52t-29 -38.5t-43.5 -23.5t-53 -8q-63 0 -98.5 32.5t-35.5 81.5q0 23 12.5 48t41.5 43q-23 18 -32 41t-9 40q0 52 35.5 81
t89.5 29q30 0 52.5 -8.5t37 -23t22 -33t7.5 -39.5q0 -17 -11.5 -40t-31.5 -38q28 -17 42 -42t14 -50zM599 80q0 32 -44 50q-16 -8 -24 -20.5t-8 -24.5q0 -15 10 -24.5t28 -9.5q17 0 27.5 7.5t10.5 21.5zM532 254q0 -23 34 -37q11 7 17.5 17t6.5 19q0 28 -28 28
q-15 0 -22.5 -7.5t-7.5 -19.5z" />
    <glyph glyph-name="fiveeighths" unicode="&#x215d;" horiz-adv-x="720" 
d="M159 566l-7 -39q25 -2 47.5 -10t40 -24t27.5 -38.5t10 -52.5q0 -32 -11 -58t-30.5 -44.5t-47 -28.5t-59.5 -10q-35 0 -60.5 9.5t-47.5 23.5l27 89q22 -15 40 -21.5t41 -6.5q18 0 29.5 9t11.5 32q0 36 -51 42q-14 2 -32.5 1.5t-47.5 -4.5l30 222h201v-91h-111zM183 -48
h-103l442 708h103zM696 89q0 -29 -10.5 -52t-29 -38.5t-43.5 -23.5t-53 -8q-63 0 -98.5 32.5t-35.5 81.5q0 23 12.5 48t41.5 43q-23 18 -32 41t-9 40q0 52 35.5 81t89.5 29q30 0 52.5 -8.5t37 -23t22 -33t7.5 -39.5q0 -17 -11.5 -40t-31.5 -38q28 -17 42 -42t14 -50zM599 80
q0 32 -44 50q-16 -8 -24 -20.5t-8 -24.5q0 -15 10 -24.5t28 -9.5q17 0 27.5 7.5t10.5 21.5zM532 254q0 -23 34 -37q11 7 17.5 17t6.5 19q0 28 -28 28q-15 0 -22.5 -7.5t-7.5 -19.5z" />
    <glyph glyph-name="seveneighths" unicode="&#x215e;" horiz-adv-x="720" 
d="M307 595l-163 -333h-115l148 303h-127v93h257v-63zM155 -48h-103l442 708h103zM686 89q0 -29 -10.5 -52t-29 -38.5t-43.5 -23.5t-53 -8q-63 0 -98.5 32.5t-35.5 81.5q0 23 12.5 48t41.5 43q-23 18 -32 41t-9 40q0 52 35.5 81t89.5 29q30 0 52.5 -8.5t37 -23t22 -33
t7.5 -39.5q0 -17 -11.5 -40t-31.5 -38q28 -17 42 -42t14 -50zM589 80q0 32 -44 50q-16 -8 -24 -20.5t-8 -24.5q0 -15 10 -24.5t28 -9.5q17 0 27.5 7.5t10.5 21.5zM522 254q0 -23 34 -37q11 7 17.5 17t6.5 19q0 28 -28 28q-15 0 -22.5 -7.5t-7.5 -19.5z" />
    <glyph glyph-name="uni2160" unicode="&#x2160;" horiz-adv-x="940" 
d="M538 -47h-137v723h137v-723z" />
    <glyph glyph-name="uni2161" unicode="&#x2161;" horiz-adv-x="940" 
d="M418 -47h-137v723h137v-723zM658 -47h-137v723h137v-723z" />
    <glyph glyph-name="uni2162" unicode="&#x2162;" horiz-adv-x="940" 
d="M297 -47h-137v723h137v-723zM538 -47h-137v723h137v-723zM778 -47h-137v723h137v-723z" />
    <glyph glyph-name="uni2163" unicode="&#x2163;" horiz-adv-x="940" 
d="M575 148l156 527h141l-233 -723h-127l-234 723h141zM255 -47h-137v723h137v-723z" />
    <glyph glyph-name="uni2164" unicode="&#x2164;" horiz-adv-x="940" 
d="M470 148l156 527h141l-233 -723h-127l-234 723h141z" />
    <glyph glyph-name="uni2165" unicode="&#x2165;" horiz-adv-x="940" 
d="M821 -50h-137v729h137v-729zM362 148l156 527h141l-233 -723h-127l-234 723h141z" />
    <glyph glyph-name="uni2166" unicode="&#x2166;" horiz-adv-x="940" 
d="M288 194l101 481h134l-171 -723h-127l-171 723h134zM856 -47h-135v723h135v-723zM687 -47h-135v723h135v-723z" />
    <glyph glyph-name="uni2167" unicode="&#x2167;" horiz-adv-x="940" 
d="M212 224l58 451h124l-118 -723h-127l-118 723h124zM859 -48h-130v723h130v-723zM703 -48h-130v723h130v-723zM546 -48h-130v723h130v-723z" />
    <glyph glyph-name="uni2168" unicode="&#x2168;" horiz-adv-x="940" 
d="M505 314l-215 362h151l139 -235l140 235h151l-215 -362l215 -362h-150l-140 235l-140 -235h-150zM265 -47h-137v723h137v-723z" />
    <glyph glyph-name="uni2169" unicode="&#x2169;" horiz-adv-x="940" 
d="M402 314l-238 369h149l156 -253l157 253h149l-238 -369l238 -369h-148l-158 254l-158 -254h-148z" />
    <glyph glyph-name="uni2170" unicode="&#x2170;" horiz-adv-x="940" 
d="M403 476h134v-524h-134v524zM537 535h-134v141h134v-141z" />
    <glyph glyph-name="uni2171" unicode="&#x2171;" horiz-adv-x="940" 
d="M283 476h134v-524h-134v524zM417 535h-134v141h134v-141zM523 476h134v-524h-134v524zM657 535h-134v141h134v-141z" />
    <glyph glyph-name="uni2172" unicode="&#x2172;" horiz-adv-x="940" 
d="M163 476h134v-524h-134v524zM297 535h-134v141h134v-141zM403 476h134v-524h-134v524zM537 535h-134v141h134v-141zM643 476h134v-524h-134v524zM777 535h-134v141h134v-141z" />
    <glyph glyph-name="uni2173" unicode="&#x2173;" horiz-adv-x="940" 
d="M708 476h134l-191 -524h-132l-190 524h139l118 -356zM150 476h134v-524h-134v524zM284 535h-134v141h134v-141z" />
    <glyph glyph-name="uni2174" unicode="&#x2174;" horiz-adv-x="940" 
d="M590 476h136l-191 -524h-131l-190 524h139l118 -356z" />
    <glyph glyph-name="uni2175" unicode="&#x2175;" horiz-adv-x="940" 
d="M478 476h134l-191 -524h-132l-190 524h139l118 -356zM654 476h134v-524h-134v524zM788 535h-134v141h134v-141z" />
    <glyph glyph-name="uni2176" unicode="&#x2176;" horiz-adv-x="940" 
d="M394 476h133l-171 -524h-132l-169 524h136l100 -352zM554 476h132v-524h-132v524zM686 535h-132v141h132v-141zM724 476h132v-524h-132v524zM856 535h-132v141h132v-141z" />
    <glyph glyph-name="uni2177" unicode="&#x2177;" horiz-adv-x="940" 
d="M167 476l52 -312l57 312h121l-108 -524h-132l-114 524h124zM580 476h127v-524h-127v524zM737 476h127v-524h-127v524zM422 476h127v-524h-127v524zM549 535h-127v141h127v-141zM864 535h-127v141h127v-141zM707 535h-127v141h127v-141z" />
    <glyph glyph-name="uni2178" unicode="&#x2178;" horiz-adv-x="940" 
d="M503 213l-185 263h145l113 -160l112 160h145l-185 -263l185 -261h-145l-112 158l-112 -158h-145zM150 476h134v-524h-134v524zM284 535h-134v141h134v-141z" />
    <glyph glyph-name="uni2179" unicode="&#x2179;" horiz-adv-x="940" 
d="M398 213l-185 263h145l113 -160l112 160h145l-185 -263l185 -261h-145l-112 158l-112 -158h-145z" />
    <glyph glyph-name="arrowleft" unicode="&#x2190;" horiz-adv-x="940" 
d="M0 300l296 189v-137h641v-104h-641v-136z" />
    <glyph glyph-name="arrowup" unicode="&#x2191;" horiz-adv-x="800" 
d="M399 768l189 -296h-137v-629h-104v629h-136z" />
    <glyph glyph-name="arrowright" unicode="&#x2192;" horiz-adv-x="940" 
d="M642 112v136h-642v104h642v137l296 -189z" />
    <glyph glyph-name="arrowdown" unicode="&#x2193;" horiz-adv-x="800" 
d="M210 129h136v629h104v-629h137l-189 -296z" />
    <glyph glyph-name="arrowboth" unicode="&#x2194;" horiz-adv-x="940" 
d="M18 300l289 186v-134h342v134l289 -186l-289 -185v133h-342v-133z" />
    <glyph glyph-name="arrowupdn" unicode="&#x2195;" horiz-adv-x="700" 
d="M533 67l-184 -250l-183 250h123v466h-123l183 250l184 -250h-125v-466h125z" />
    <glyph glyph-name="uni2196" unicode="&#x2196;" horiz-adv-x="940" 
d="M49 482l-18 287l290 -14l-104 -104l702 -772l-79 -68l-694 768z" />
    <glyph glyph-name="uni2197" unicode="&#x2197;" horiz-adv-x="940" 
d="M791 578l-694 -768l-79 68l702 772l-104 104l290 14l-18 -287z" />
    <glyph glyph-name="uni2198" unicode="&#x2198;" horiz-adv-x="940" 
d="M889 111l18 -287l-290 14l104 104l-702 772l79 68l694 -769z" />
    <glyph glyph-name="uni2199" unicode="&#x2199;" horiz-adv-x="940" 
d="M147 13l694 769l79 -68l-702 -772l104 -104l-290 -14l18 287z" />
    <glyph glyph-name="arrowdblright" unicode="&#x21d2;" horiz-adv-x="940" 
d="M632 149h-605v102h706l49 49l-50 50h-705v101h606l-73 74l69 75l293 -300l-292 -300l-69 77z" />
    <glyph glyph-name="arrowdblboth" unicode="&#x21d4;" horiz-adv-x="940" 
d="M632 149h-327l72 -72l-69 -77l-292 300l293 300l69 -75l-73 -74h328l-73 74l69 75l293 -300l-292 -300l-69 77zM204 251h529l49 49l-50 50h-527l-49 -50z" />
    <glyph glyph-name="universal" unicode="&#x2200;" horiz-adv-x="600" 
d="M142 677l52 -175h210l52 175h140l-228 -725h-137l-228 725h139zM373 397h-147l74 -248z" />
    <glyph glyph-name="partialdiff" unicode="&#x2202;" horiz-adv-x="600" 
d="M105 613q49 20 84 27t72 7q69 0 122 -27.5t89 -75t54.5 -112t18.5 -138.5q0 -83 -20.5 -151.5t-58 -117.5t-89 -75.5t-114.5 -26.5q-53 0 -92.5 18.5t-65.5 49.5t-38.5 72t-12.5 87q0 60 18 109.5t50 85t75.5 54.5t95.5 19q36 0 67 -9t57 -31q-17 78 -61 118.5t-107 40.5
q-11 0 -21.5 -0.5t-23 -3.5t-29 -8.5t-39.5 -14.5zM269 29q28 0 52 14.5t42 39t30 58t17 72.5q2 9 0.5 16t-3.5 14q-11 30 -36.5 51t-57.5 21q-58 0 -89.5 -37.5t-37.5 -101.5q-2 -23 0 -49t11 -48t26.5 -36t45.5 -14z" />
    <glyph glyph-name="existential" unicode="&#x2203;" horiz-adv-x="560" 
d="M71 269v112h281v183h-297v113h434v-725h-450v113h313v204h-281z" />
    <glyph glyph-name="gradient" unicode="&#x2207;" horiz-adv-x="940" 
d="M97 598h743l-367 -656zM705 525h-404l205 -364z" />
    <glyph glyph-name="element" unicode="&#x2208;" horiz-adv-x="940" 
d="M377 6q-64 0 -112.5 23t-81.5 63t-50 93.5t-17 114.5t19 113t54 89.5t84 58.5t109 21h441v-107h-443q-57 0 -90.5 -35.5t-42.5 -91.5h576v-108h-576q9 -57 42.5 -92t86.5 -35h447v-107h-446z" />
    <glyph glyph-name="suchthat" unicode="&#x220b;" horiz-adv-x="940" 
d="M116 6v107h447q53 0 86.5 35t42.5 92h-576v108h576q-9 56 -42.5 91.5t-90.5 35.5h-443v107h441q60 0 109 -21t84 -58.5t54 -89.5t19 -113t-17 -114.5t-50 -93.5t-81.5 -63t-112.5 -23h-446z" />
    <glyph glyph-name="product" unicode="&#x220f;" horiz-adv-x="688" 
d="M560 565v-624h-142v624h-159v-624h-139v624h-109v111h658v-111h-109z" />
    <glyph glyph-name="summation" unicode="&#x2211;" horiz-adv-x="700" 
d="M64 -48v59l282 303l-282 281v81h570v-114h-369l250 -241l-241 -254h361v-115h-571z" />
    <glyph glyph-name="radical" unicode="&#x221a;" horiz-adv-x="520" 
d="M386 -189h-56l-195 446l-89 -56l-48 81l195 119l131 -318l116 690h112z" />
    <glyph glyph-name="proportional" unicode="&#x221d;" horiz-adv-x="940" 
d="M837 138q-38 -27 -69.5 -38t-70.5 -11q-30 0 -57 9.5t-50 25t-42.5 35.5t-35.5 41q-40 -54 -91 -82.5t-109 -28.5q-44 0 -81.5 17t-64.5 46t-42 67.5t-15 80.5q0 45 14.5 84t41 67.5t64 45t84.5 16.5q60 0 110.5 -25.5t89.5 -82.5q36 49 80.5 78t103.5 29q41 0 73 -10
t68 -36l-53 -94q-32 21 -51 28t-39 7q-19 0 -35.5 -8.5t-30.5 -23t-27 -33t-25 -39.5q10 -19 22.5 -38.5t28 -35t33.5 -25.5t39 -10q9 0 16.5 1t16.5 4.5t21.5 11t30.5 21.5zM312 193q44 0 74 30t57 80q-24 44 -56 75.5t-74 31.5t-62.5 -32.5t-20.5 -77.5q0 -20 6 -39
t16.5 -34t26 -24.5t33.5 -9.5z" />
    <glyph glyph-name="infinity" unicode="&#x221e;" horiz-adv-x="800" 
d="M740 327q0 -36 -13 -68t-36.5 -56t-55.5 -38t-69 -14q-23 0 -46.5 6.5t-45.5 18.5t-41 28.5t-32 36.5q-28 -41 -69.5 -64t-99.5 -23q-38 0 -70 14t-55 38t-36 56t-13 68q0 37 14 69t38 55.5t57 37t71 13.5q46 0 88 -26t72 -65q27 42 73 66.5t94 24.5q39 0 71 -14t55 -38
t36 -56.5t13 -69.5zM634 328q0 16 -5 31.5t-14 27.5t-21.5 19t-27.5 7q-33 0 -61 -25.5t-48 -60.5q20 -36 47 -60t61 -24q33 0 51 25t18 60zM233 245q34 0 60.5 22.5t48.5 58.5q-20 35 -47 61t-59 26q-31 0 -51 -24t-20 -58q0 -35 18 -60.5t50 -25.5z" />
    <glyph glyph-name="angle" unicode="&#x2220;" horiz-adv-x="800" 
d="M87 -28v70l478 557l88 -65l-383 -457h447v-105h-630z" />
    <glyph glyph-name="logicaland" unicode="&#x2227;" horiz-adv-x="940" 
d="M818 -29h-131l-216 451l-218 -450h-132l350 691z" />
    <glyph glyph-name="logicalor" unicode="&#x2228;" horiz-adv-x="940" 
d="M471 -59l-350 691h132l218 -450l216 451h131z" />
    <glyph glyph-name="intersection" unicode="&#x2229;" horiz-adv-x="800" 
d="M679 -49h-125v414q0 84 -36 134.5t-118 50.5t-118.5 -49t-36.5 -134v-416h-125v425q0 63 18.5 114.5t54.5 89t88 58t119 20.5q62 0 113.5 -20.5t88 -57.5t57 -88.5t20.5 -113.5v-427z" />
    <glyph glyph-name="union" unicode="&#x222a;" horiz-adv-x="800" 
d="M679 231q0 -62 -20.5 -113.5t-57 -88.5t-88 -57.5t-113.5 -20.5q-67 0 -119 20.5t-88 58t-54.5 89t-18.5 114.5v425h125v-416q0 -85 36.5 -134t118.5 -49t118 50.5t36 134.5v414h125v-427z" />
    <glyph glyph-name="integral" unicode="&#x222b;" horiz-adv-x="440" 
d="M295 23q2 -36 -5.5 -66t-25.5 -51.5t-47 -34t-69 -12.5h-18.5t-18 1.5t-22 4.5t-29.5 8v109q18 -6 29.5 -9t19 -4.5t12 -2t9.5 -0.5q27 0 35.5 14t6.5 41l-27 555q-4 81 31 122.5t116 41.5q19 0 37.5 -2t51.5 -11v-110q-25 9 -44 12.5t-27 3.5q-24 0 -34 -14t-8 -41z" />
    <glyph glyph-name="uni222C" unicode="&#x222c;" horiz-adv-x="680" 
d="M288 23q2 -36 -5.5 -66t-25.5 -51.5t-47 -34t-69 -12.5h-18.5t-18 1.5t-22 4.5t-29.5 8v109q18 -6 29.5 -9t19 -4.5t12 -2t9.5 -0.5q27 0 35.5 14t6.5 41l-27 555q-4 81 31 122.5t116 41.5h17t17 -1.5t20 -4t28 -6.5v-110q-25 9 -40.5 12t-23.5 3q-24 0 -34 -14t-8 -41z
M539 23q2 -36 -5.5 -66t-25.5 -51.5t-47 -34t-69 -12.5h-18t-17 1.5t-21 4.5t-29 8v109q18 -6 29 -9t17.5 -4.5t11 -2t9.5 -0.5q27 0 35.5 14t6.5 41l-27 555q-4 81 31 122.5t116 41.5q19 0 37.5 -1.5t51.5 -10.5v-110q-25 9 -44 12t-27 3q-24 0 -34 -14t-8 -41z" />
    <glyph glyph-name="uni222E" unicode="&#x222e;" horiz-adv-x="600" 
d="M377 475q58 -17 93 -61t35 -112q0 -79 -46 -125t-119 -57l-10 -99q-3 -34 -13.5 -63.5t-30 -51t-49.5 -34t-72 -12.5h-18t-18 1.5t-22 4.5t-29 8l16 107q22 -9 37 -11.5t26 -2.5q27 0 39.5 13t15.5 45l11 104q-57 18 -91 62t-34 111q0 38 12 69t33.5 54.5t51 38
t65.5 19.5l10 96q4 34 14.5 63.5t30 51t49.5 34t72 12.5q9 0 17 -0.5t17.5 -2t21.5 -4.5t29 -8l-13 -107q-24 9 -38.5 12t-25.5 3q-26 0 -39 -12.5t-17 -45.5zM393 302q0 42 -27 66l-15 -144q42 23 42 78zM209 303q0 -41 25 -66l15 141q-19 -11 -29.5 -30.5t-10.5 -44.5z
" />
    <glyph glyph-name="therefore" unicode="&#x2234;" horiz-adv-x="940" 
d="M552 516q0 -18 -6.5 -33.5t-18 -27t-27 -18t-32.5 -6.5t-32.5 6.5t-27 18t-18 27t-6.5 33.5t6.5 33t18 26.5t27 18t32.5 6.5t32.5 -6.5t27 -18t18 -26.5t6.5 -33zM320 116q0 -18 -6.5 -33.5t-18 -27t-27 -18t-32.5 -6.5t-32.5 6.5t-27 18t-18 27t-6.5 33.5t6.5 33
t18 26.5t27 18t32.5 6.5t32.5 -6.5t27 -18t18 -26.5t6.5 -33zM787 116q0 -18 -6.5 -33.5t-18 -27t-27 -18t-32.5 -6.5t-32.5 6.5t-27 18t-18 27t-6.5 33.5t6.5 33t18 26.5t27 18t32.5 6.5t32.5 -6.5t27 -18t18 -26.5t6.5 -33z" />
    <glyph glyph-name="uni2235" unicode="&#x2235;" horiz-adv-x="940" 
d="M555 116q0 -17 -7 -32.5t-18.5 -27t-27.5 -18.5t-34 -7t-34 7t-27.5 18.5t-18.5 27t-7 32.5t7 32.5t18.5 27.5t27.5 19t34 7t34 -7t27.5 -19t18.5 -27.5t7 -32.5zM323 516q0 -17 -7 -32.5t-18.5 -27t-27.5 -18.5t-34 -7t-34 7t-27.5 18.5t-18.5 27t-7 32.5t7 32.5
t18.5 27.5t27.5 19t34 7t34 -7t27.5 -19t18.5 -27.5t7 -32.5zM790 516q0 -17 -7 -32.5t-18.5 -27t-27.5 -18.5t-34 -7t-34 7t-27.5 18.5t-18.5 27t-7 32.5t7 32.5t18.5 27.5t27.5 19t34 7t34 -7t27.5 -19t18.5 -27.5t7 -32.5z" />
    <glyph glyph-name="similar" unicode="&#x223c;" horiz-adv-x="940" 
d="M817 320q-58 -48 -110 -72.5t-113 -24.5q-37 0 -75.5 12.5t-77.5 35.5q-26 15 -51 23.5t-50 8.5q-45 0 -85 -17t-87 -52l-50 58q63 52 114.5 78t107.5 26q72 0 144 -41q66 -37 110 -37q50 0 93 11.5t88 39.5z" />
    <glyph glyph-name="uni223D" unicode="&#x223d;" horiz-adv-x="940" 
d="M876 299q0 -43 -15 -81.5t-42.5 -67t-66 -45.5t-85.5 -17q-28 0 -57.5 7.5t-72.5 36.5l57 86q26 -15 42.5 -20.5t30.5 -5.5q43 0 64.5 30t21.5 77q0 44 -21.5 71.5t-64.5 27.5q-47 0 -79 -33t-62 -88q-23 -42 -46 -77t-51.5 -60t-66 -38.5t-89.5 -13.5q-97 0 -153.5 54.5
t-56.5 156.5q0 48 17 86t45.5 64t66.5 40t81 14q32 0 62 -6.5t68 -27.5l-50 -96q-19 10 -31.5 15.5t-21.5 8t-15.5 2.5h-12.5q-43 0 -65 -26.5t-22 -72.5q0 -48 21.5 -77t64.5 -27q28 1 48 9.5t36.5 24.5t31 39t29.5 53q22 44 46 77.5t53 56.5t66 35t86 12t88 -16t66 -43.5
t41 -65t14 -79.5z" />
    <glyph glyph-name="uni2252" unicode="&#x2252;" horiz-adv-x="740" 
d="M74 336v102h591v-102h-591zM74 163v101h591v-101h-591zM281 552q0 -32 -22 -53t-54 -21t-53.5 21t-21.5 53t21.5 53.5t53.5 21.5t54 -21.5t22 -53.5zM609 48q0 -32 -22 -53t-54 -21t-53.5 21t-21.5 53t21.5 53.5t53.5 21.5t54 -21.5t22 -53.5z" />
    <glyph glyph-name="notequal" unicode="&#x2260;" horiz-adv-x="740" 
d="M452 448h214v-102h-240l-23 -92h263v-101h-289l-33 -132h-121l33 132h-182v101h207l23 92h-230v102h256l30 119h122z" />
    <glyph glyph-name="equivalence" unicode="&#x2261;" horiz-adv-x="840" 
d="M123 410v106h593v-106h-593zM123 249v106h593v-106h-593zM123 88v106h593v-106h-593z" />
    <glyph glyph-name="lessequal" unicode="&#x2264;" horiz-adv-x="700" 
d="M81 355v76l539 217v-116l-351 -139l351 -141v-113zM79 7v106h541v-106h-541z" />
    <glyph glyph-name="greaterequal" unicode="&#x2265;" horiz-adv-x="700" 
d="M79 139v113l351 141l-351 139v116l539 -217v-76zM79 7v106h541v-106h-541z" />
    <glyph glyph-name="uni226A" unicode="&#x226a;" horiz-adv-x="940" 
d="M643 25l-52 -79l-506 354l501 363l56 -72l-389 -291zM864 25l-52 -79l-506 354l501 363l56 -72l-389 -291z" />
    <glyph glyph-name="uni226B" unicode="&#x226b;" horiz-adv-x="940" 
d="M686 300l-389 291l56 72l501 -363l-506 -354l-52 79zM465 300l-389 291l56 72l501 -363l-506 -354l-52 79z" />
    <glyph glyph-name="propersubset" unicode="&#x2282;" horiz-adv-x="940" 
d="M373 6q-64 0 -112 23t-80.5 63t-48.5 93.5t-16 114.5t18.5 113t53 89.5t82.5 58.5t108 21h444v-107h-446q-60 0 -96 -44.5t-36 -130.5q0 -97 35.5 -142t92.5 -45h450v-107h-449z" />
    <glyph glyph-name="propersuperset" unicode="&#x2283;" horiz-adv-x="940" 
d="M116 6v107h450q57 0 92.5 45t35.5 142q0 86 -36 130.5t-96 44.5h-446v107h444q60 0 108 -21t82.5 -58.5t53 -89.5t18.5 -113t-16.5 -114.5t-48.5 -93.5t-80 -63t-112 -23h-449z" />
    <glyph glyph-name="reflexsubset" unicode="&#x2286;" horiz-adv-x="940" 
d="M123 -31v107h694v-107h-694zM336 137q-55 0 -97 16t-70 46t-42.5 72t-14.5 94t16.5 92.5t46.5 68.5t72.5 43t95.5 15h474v-108h-476q-54 0 -79.5 -29t-25.5 -86q0 -53 24.5 -85t75.5 -32h481v-107h-481z" />
    <glyph glyph-name="reflexsuperset" unicode="&#x2287;" horiz-adv-x="940" 
d="M112 -31v107h694v-107h-694zM112 137v107h481q51 0 75.5 32t24.5 85q0 57 -25.5 86t-79.5 29h-476v108h474q52 0 95 -15t73 -43t46.5 -68.5t16.5 -92.5t-14.5 -94t-42.5 -72t-70 -46t-97 -16h-481z" />
    <glyph glyph-name="uni2299" unicode="&#x2299;" horiz-adv-x="940" 
d="M877 300q0 -85 -31 -159t-85.5 -129t-129 -87t-161.5 -32q-82 0 -156 30.5t-129.5 84.5t-88 128.5t-32.5 163.5q0 84 31 158t85.5 129t128.5 86.5t161 31.5q82 0 156 -30t130 -83.5t88.5 -128t32.5 -163.5zM776 300q0 66 -23.5 123.5t-64.5 100.5t-97 67.5t-121 24.5
q-62 0 -117.5 -23.5t-97 -65.5t-66 -100t-24.5 -127q0 -66 23 -124t64 -101.5t97 -68.5t121 -25q62 0 117.5 23.5t97.5 66t66.5 101t24.5 128.5zM611 300q0 -29 -11.5 -54.5t-31 -45t-45 -31t-54.5 -11.5t-54.5 11.5t-45 31t-31 45t-11.5 54.5q0 30 11.5 56t31 45t45 30
t54.5 11q28 0 54 -11t45.5 -30t31 -45t11.5 -56z" />
    <glyph glyph-name="perpendicular" unicode="&#x22a5;" horiz-adv-x="800" 
d="M64 -31v106h271v494h129v-494h271v-106h-671z" />
    <glyph glyph-name="uni2312" unicode="&#x2312;" horiz-adv-x="540" 
d="M270 659q-35 0 -57 -17t-36 -52h-122q24 89 80 128.5t135 39.5t135 -39.5t80 -128.5h-122q-14 35 -36 52t-57 17z" />
    <glyph glyph-name="uni2460" unicode="&#x2460;" horiz-adv-x="940" 
d="M369 402l-49 96l129 71h89v-532h-128v388zM920 300q0 -95 -34 -176.5t-94 -142.5t-142.5 -95.5t-179.5 -34.5q-91 0 -172.5 33t-143 92.5t-97.5 142t-36 181.5q0 94 34 176t94 142.5t142 95t179 34.5q91 0 173 -32.5t143.5 -91.5t97.5 -141.5t36 -182.5zM821 300
q0 75 -27 140.5t-74 114t-111 76.5t-139 28q-71 0 -134.5 -26.5t-111.5 -74t-76 -113.5t-28 -145q0 -75 26.5 -140.5t73.5 -114t111 -76.5t139 -28q71 0 135 26.5t112 73.5t76 113t28 146z" />
    <glyph glyph-name="uni2461" unicode="&#x2461;" horiz-adv-x="940" 
d="M302 116q64 63 105 106.5t64 76t32 57t10 49.5q2 29 -9.5 42.5t-40.5 13.5q-22 0 -44.5 -15.5t-57.5 -53.5l-66 94q22 23 42.5 39.5t42 27t44.5 15t51 4.5q44 0 76 -14t52 -36.5t29.5 -51t8.5 -58.5q-1 -35 -9.5 -66.5t-26 -62.5t-45 -64t-66.5 -72h160v-110h-352v79z
M920 300q0 -95 -34 -176.5t-94 -142.5t-142.5 -95.5t-179.5 -34.5q-91 0 -172.5 33t-143 92.5t-97.5 142t-36 181.5q0 94 34 176t94 142.5t142 95t179 34.5q91 0 173 -32.5t143.5 -91.5t97.5 -141.5t36 -182.5zM821 300q0 75 -27 140.5t-74 114t-111 76.5t-139 28
q-71 0 -134.5 -26.5t-111.5 -74t-76 -113.5t-28 -145q0 -75 26.5 -140.5t73.5 -114t111 -76.5t139 -28q71 0 135 26.5t112 73.5t76 113t28 146z" />
    <glyph glyph-name="uni2462" unicode="&#x2462;" horiz-adv-x="940" 
d="M347 173q28 -18 53 -27t55 -9q23 0 37 4.5t22 12.5t11 18.5t3 21.5q0 37 -26 52t-63 15h-48v105h48q30 0 49.5 14.5t19.5 44.5q0 18 -9 27t-35 9q-23 0 -47 -11.5t-50 -29.5l-52 92q22 16 40.5 27.5t37.5 18.5t39 10t44 3q41 0 71 -11t50 -29.5t30 -43.5t10 -52
q0 -26 -14.5 -59.5t-47.5 -56.5q37 -14 59 -48t22 -79q0 -35 -13.5 -65t-39.5 -52t-63 -35t-83 -13q-23 0 -43.5 2.5t-40 8.5t-39.5 15t-43 23zM920 300q0 -95 -34 -176.5t-94 -142.5t-142.5 -95.5t-179.5 -34.5q-91 0 -172.5 33t-143 92.5t-97.5 142t-36 181.5q0 94 34 176
t94 142.5t142 95t179 34.5q91 0 173 -32.5t143.5 -91.5t97.5 -141.5t36 -182.5zM821 300q0 75 -27 140.5t-74 114t-111 76.5t-139 28q-71 0 -134.5 -26.5t-111.5 -74t-76 -113.5t-28 -145q0 -75 26.5 -140.5t73.5 -114t111 -76.5t139 -28q71 0 135 26.5t112 73.5t76 113
t28 146z" />
    <glyph glyph-name="uni2463" unicode="&#x2463;" horiz-adv-x="940" 
d="M460 127h-207v81l212 364h110v-344h60v-101h-60v-90h-115v90zM460 362l-73 -134h73v134zM920 300q0 -95 -34 -176.5t-94 -142.5t-142.5 -95.5t-179.5 -34.5q-91 0 -172.5 33t-143 92.5t-97.5 142t-36 181.5q0 94 34 176t94 142.5t142 95t179 34.5q91 0 173 -32.5
t143.5 -91.5t97.5 -141.5t36 -182.5zM821 300q0 75 -27 140.5t-74 114t-111 76.5t-139 28q-71 0 -134.5 -26.5t-111.5 -74t-76 -113.5t-28 -145q0 -75 26.5 -140.5t73.5 -114t111 -76.5t139 -28q71 0 135 26.5t112 73.5t76 113t28 146z" />
    <glyph glyph-name="uni2464" unicode="&#x2464;" horiz-adv-x="940" 
d="M477 457l-10 -71h7q36 -2 66 -15t52.5 -35t35 -53t12.5 -68q0 -40 -14 -74t-40 -59.5t-62.5 -40t-82.5 -14.5t-79.5 11.5t-62.5 30.5l33 106q25 -14 53 -26t56 -12q30 0 51 16t21 54q0 29 -18 50t-63 21h-33t-34 -2l-39 -4l38 295h267v-110h-154zM920 300
q0 -95 -34 -176.5t-94 -142.5t-142.5 -95.5t-179.5 -34.5q-91 0 -172.5 33t-143 92.5t-97.5 142t-36 181.5q0 94 34 176t94 142.5t142 95t179 34.5q91 0 173 -32.5t143.5 -91.5t97.5 -141.5t36 -182.5zM821 300q0 75 -27 140.5t-74 114t-111 76.5t-139 28
q-71 0 -134.5 -26.5t-111.5 -74t-76 -113.5t-28 -145q0 -75 26.5 -140.5t73.5 -114t111 -76.5t139 -28q71 0 135 26.5t112 73.5t76 113t28 146z" />
    <glyph glyph-name="uni2465" unicode="&#x2465;" horiz-adv-x="940" 
d="M609 468q-36 1 -76 -6.5t-80 -38.5q-8 -6 -13.5 -13.5t-12.5 -21.5q27 11 56 11q73 0 118 -48t45 -130q0 -38 -11 -73t-33.5 -61.5t-55.5 -42.5t-77 -16t-78.5 16t-58.5 46t-36.5 72.5t-12.5 95.5q0 76 21 133.5t60 98.5q42 43 98.5 63.5t134.5 22.5zM470 132q29 0 41 22
t12 62q0 39 -13.5 60.5t-44.5 21.5q-35 0 -57 -40q-1 -2 -1.5 -5t-0.5 -10q0 -48 16 -79.5t48 -31.5zM920 300q0 -95 -34 -176.5t-94 -142.5t-142.5 -95.5t-179.5 -34.5q-91 0 -172.5 33t-143 92.5t-97.5 142t-36 181.5q0 94 34 176t94 142.5t142 95t179 34.5
q91 0 173 -32.5t143.5 -91.5t97.5 -141.5t36 -182.5zM821 300q0 75 -27 140.5t-74 114t-111 76.5t-139 28q-71 0 -134.5 -26.5t-111.5 -74t-76 -113.5t-28 -145q0 -75 26.5 -140.5t73.5 -114t111 -76.5t139 -28q71 0 135 26.5t112 73.5t76 113t28 146z" />
    <glyph glyph-name="uni2466" unicode="&#x2466;" horiz-adv-x="940" 
d="M650 478l-221 -453h-137l207 419h-190v110h341v-76zM920 300q0 -95 -34 -176.5t-94 -142.5t-142.5 -95.5t-179.5 -34.5q-91 0 -172.5 33t-143 92.5t-97.5 142t-36 181.5q0 94 34 176t94 142.5t142 95t179 34.5q91 0 173 -32.5t143.5 -91.5t97.5 -141.5t36 -182.5z
M821 300q0 75 -27 140.5t-74 114t-111 76.5t-139 28q-71 0 -134.5 -26.5t-111.5 -74t-76 -113.5t-28 -145q0 -75 26.5 -140.5t73.5 -114t111 -76.5t139 -28q71 0 135 26.5t112 73.5t76 113t28 146z" />
    <glyph glyph-name="uni2467" unicode="&#x2467;" horiz-adv-x="940" 
d="M652 189q0 -38 -15 -68t-40 -50.5t-58 -31.5t-69 -11q-41 0 -74.5 11.5t-57 31.5t-36.5 47.5t-13 59.5q0 35 17 70.5t59 62.5q-35 25 -46.5 56t-11.5 57q0 36 12.5 63.5t35 46t53.5 28.5t67 10q39 0 69.5 -11.5t50.5 -30.5t30.5 -44t10.5 -53q0 -24 -13 -56.5t-47 -58.5
q39 -23 57.5 -57t18.5 -72zM534 181q0 29 -17 48t-54 33q-31 -14 -43 -34t-12 -40q0 -26 15.5 -41.5t47.5 -15.5q29 0 46 13.5t17 36.5zM420 429q0 -46 58 -66q23 9 33 26.5t10 36.5q0 20 -13 34t-36 14q-24 0 -38 -12.5t-14 -32.5zM920 300q0 -95 -34 -176.5t-94 -142.5
t-142.5 -95.5t-179.5 -34.5q-91 0 -172.5 33t-143 92.5t-97.5 142t-36 181.5q0 94 34 176t94 142.5t142 95t179 34.5q91 0 173 -32.5t143.5 -91.5t97.5 -141.5t36 -182.5zM821 300q0 75 -27 140.5t-74 114t-111 76.5t-139 28q-71 0 -134.5 -26.5t-111.5 -74t-76 -113.5
t-28 -145q0 -75 26.5 -140.5t73.5 -114t111 -76.5t139 -28q71 0 135 26.5t112 73.5t76 113t28 146z" />
    <glyph glyph-name="uni2468" unicode="&#x2468;" horiz-adv-x="940" 
d="M346 135q35 0 61 3.5t45.5 13.5t34 26.5t28.5 43.5q-11 -5 -25.5 -8.5t-30.5 -3.5q-34 0 -63.5 11.5t-51.5 34t-35.5 55t-14.5 74.5q-2 40 10 74.5t34.5 59t55.5 38.5t75 14q39 0 72.5 -15.5t58 -45t38.5 -71.5t14 -94q0 -74 -18 -132.5t-55.5 -100t-95 -63.5t-137.5 -22
v108zM468 467q-27 0 -42 -18.5t-15 -58.5q0 -39 18.5 -58.5t47.5 -19.5q20 0 38 11.5t18 35.5q0 48 -16.5 78t-48.5 30zM920 300q0 -95 -34 -176.5t-94 -142.5t-142.5 -95.5t-179.5 -34.5q-91 0 -172.5 33t-143 92.5t-97.5 142t-36 181.5q0 94 34 176t94 142.5t142 95
t179 34.5q91 0 173 -32.5t143.5 -91.5t97.5 -141.5t36 -182.5zM821 300q0 75 -27 140.5t-74 114t-111 76.5t-139 28q-71 0 -134.5 -26.5t-111.5 -74t-76 -113.5t-28 -145q0 -75 26.5 -140.5t73.5 -114t111 -76.5t139 -28q71 0 135 26.5t112 73.5t76 113t28 146z" />
    <glyph glyph-name="uni2469" unicode="&#x2469;" horiz-adv-x="940" 
d="M536 301q0 -89 11.5 -125t32.5 -36t32.5 36t11.5 125q0 88 -11.5 124t-32.5 36t-32.5 -36t-11.5 -124zM416 301q0 133 42.5 201t121.5 68t121.5 -68t42.5 -201t-42.5 -201t-121.5 -68t-121.5 68t-42.5 201zM920 300q0 -95 -34 -176.5t-94 -142.5t-142.5 -95.5
t-179.5 -34.5q-91 0 -172.5 33t-143 92.5t-97.5 142t-36 181.5q0 94 34 176t94 142.5t142 95t179 34.5q91 0 173 -32.5t143.5 -91.5t97.5 -141.5t36 -182.5zM821 300q0 75 -27 140.5t-74 114t-111 76.5t-139 28q-71 0 -134.5 -26.5t-111.5 -74t-76 -113.5t-28 -145
q0 -75 26.5 -140.5t73.5 -114t111 -76.5t139 -28q71 0 135 26.5t112 73.5t76 113t28 146zM226 403l-33 96l107 60h86v-519h-120v385z" />
    <glyph glyph-name="uni246A" unicode="&#x246a;" horiz-adv-x="940" 
d="M920 300q0 -95 -34 -176.5t-94 -142.5t-142.5 -95.5t-179.5 -34.5q-91 0 -172.5 33t-143 92.5t-97.5 142t-36 181.5q0 94 34 176t94 142.5t142 95t179 34.5q91 0 173 -32.5t143.5 -91.5t97.5 -141.5t36 -182.5zM821 300q0 75 -27 140.5t-74 114t-111 76.5t-139 28
q-71 0 -134.5 -26.5t-111.5 -74t-76 -113.5t-28 -145q0 -75 26.5 -140.5t73.5 -114t111 -76.5t139 -28q71 0 135 26.5t112 73.5t76 113t28 146zM267 418l-49 90l113 61h87v-532h-121v400zM527 418l-49 90l113 61h87v-532h-121v400z" />
    <glyph glyph-name="uni246B" unicode="&#x246b;" horiz-adv-x="940" 
d="M416 118q48 54 80.5 96t52.5 76t29 61.5t10 52.5q3 58 -37 58q-18 0 -38.5 -20t-46.5 -55l-56 98q33 45 69 66.5t84 21.5q37 0 65 -13.5t46.5 -35.5t27.5 -51.5t8 -60.5q-1 -35 -8 -66t-22 -62t-37.5 -63.5t-55.5 -70.5h117v-110h-288v78zM920 300q0 -95 -34 -176.5
t-94 -142.5t-142.5 -95.5t-179.5 -34.5q-91 0 -172.5 33t-143 92.5t-97.5 142t-36 181.5q0 94 34 176t94 142.5t142 95t179 34.5q91 0 173 -32.5t143.5 -91.5t97.5 -141.5t36 -182.5zM821 300q0 75 -27 140.5t-74 114t-111 76.5t-139 28q-71 0 -134.5 -26.5t-111.5 -74
t-76 -113.5t-28 -145q0 -75 26.5 -140.5t73.5 -114t111 -76.5t139 -28q71 0 135 26.5t112 73.5t76 113t28 146zM226 403l-33 96l107 60h86v-519h-120v385z" />
    <glyph glyph-name="uni246C" unicode="&#x246c;" horiz-adv-x="940" 
d="M450 162q14 -8 25 -13.5t21.5 -9t21 -5t24.5 -1.5q21 0 35 5.5t22.5 14t11.5 19.5t3 22q0 36 -24 52t-62 16h-47v103h47q29 0 48.5 15.5t19.5 44.5q0 18 -10 28t-35 10q-21 0 -40 -7t-42 -26l-51 93q32 24 66.5 36.5t77.5 12.5q41 0 70.5 -11.5t49 -31t28.5 -44t9 -50.5
q0 -27 -14.5 -60.5t-45.5 -55.5q40 -21 59 -53t19 -74q0 -34 -10.5 -64t-34 -52.5t-60.5 -36t-88 -13.5q-21 0 -38.5 2.5t-34 7.5t-33.5 13t-36 20zM920 300q0 -95 -34 -176.5t-94 -142.5t-142.5 -95.5t-179.5 -34.5q-91 0 -172.5 33t-143 92.5t-97.5 142t-36 181.5
q0 94 34 176t94 142.5t142 95t179 34.5q91 0 173 -32.5t143.5 -91.5t97.5 -141.5t36 -182.5zM821 300q0 75 -27 140.5t-74 114t-111 76.5t-139 28q-71 0 -134.5 -26.5t-111.5 -74t-76 -113.5t-28 -145q0 -75 26.5 -140.5t73.5 -114t111 -76.5t139 -28q71 0 135 26.5
t112 73.5t76 113t28 146zM226 403l-33 96l107 60h86v-519h-120v385z" />
    <glyph glyph-name="uni246D" unicode="&#x246d;" horiz-adv-x="940" 
d="M585 129h-175v85l176 351h109v-335h53v-101h-53v-92h-110v92zM585 350l-54 -120h54v120zM920 300q0 -95 -34 -176.5t-94 -142.5t-142.5 -95.5t-179.5 -34.5q-91 0 -172.5 33t-143 92.5t-97.5 142t-36 181.5q0 94 34 176t94 142.5t142 95t179 34.5q91 0 173 -32.5
t143.5 -91.5t97.5 -141.5t36 -182.5zM821 300q0 75 -27 140.5t-74 114t-111 76.5t-139 28q-71 0 -134.5 -26.5t-111.5 -74t-76 -113.5t-28 -145q0 -75 26.5 -140.5t73.5 -114t111 -76.5t139 -28q71 0 135 26.5t112 73.5t76 113t28 146zM226 403l-33 96l107 60h86v-519h-120
v385z" />
    <glyph glyph-name="uni246E" unicode="&#x246e;" horiz-adv-x="940" 
d="M563 449l-10 -63h8q37 0 68.5 -12t54.5 -34t36.5 -53.5t13.5 -71.5q0 -39 -13.5 -73.5t-40 -60t-64 -40.5t-85.5 -15q-44 0 -72 9t-57 28l49 101q26 -15 42.5 -21.5t37.5 -6.5q35 0 55.5 18t20.5 53q0 38 -22.5 56t-76.5 18q-11 0 -32.5 -1.5t-54.5 -6.5l33 286h247v-110
h-138zM920 300q0 -95 -34 -176.5t-94 -142.5t-142.5 -95.5t-179.5 -34.5q-91 0 -172.5 33t-143 92.5t-97.5 142t-36 181.5q0 94 34 176t94 142.5t142 95t179 34.5q91 0 173 -32.5t143.5 -91.5t97.5 -141.5t36 -182.5zM821 300q0 75 -27 140.5t-74 114t-111 76.5t-139 28
q-71 0 -134.5 -26.5t-111.5 -74t-76 -113.5t-28 -145q0 -75 26.5 -140.5t73.5 -114t111 -76.5t139 -28q71 0 135 26.5t112 73.5t76 113t28 146zM226 403l-33 96l107 60h86v-519h-120v385z" />
    <glyph glyph-name="uni2474" unicode="&#x2474;" horiz-adv-x="940" 
d="M278 726q-81 -91 -116.5 -202.5t-35.5 -223.5q0 -56 8.5 -113t27 -113.5t47 -109.5t68.5 -99h-108q-40 43 -68.5 95t-46.5 109t-26.5 115.5t-8.5 115.5q0 115 35.5 225t116.5 201h107zM662 726q81 -91 116.5 -202.5t35.5 -223.5q0 -56 -8.5 -113t-27 -113.5t-47 -109.5
t-68.5 -99h108q40 43 68.5 95t46.5 109t26.5 115.5t8.5 115.5q0 115 -35.5 225t-116.5 201h-107zM410 425v-388h128v532h-89l-129 -71l49 -96z" />
    <glyph glyph-name="uni2475" unicode="&#x2475;" horiz-adv-x="940" 
d="M278 726q-81 -91 -116.5 -202.5t-35.5 -223.5q0 -56 8.5 -113t27 -113.5t47 -109.5t68.5 -99h-108q-40 43 -68.5 95t-46.5 109t-26.5 115.5t-8.5 115.5q0 115 35.5 225t116.5 201h107zM662 726q81 -91 116.5 -202.5t35.5 -223.5q0 -56 -8.5 -113t-27 -113.5t-47 -109.5
t-68.5 -99h108q40 43 68.5 95t46.5 109t26.5 115.5t8.5 115.5q0 115 -35.5 225t-116.5 201h-107zM302 37h352v110h-160q39 39 66.5 72t45 64t26 62.5t9.5 66.5q1 30 -8.5 58.5t-29.5 51t-52 36.5t-76 14q-28 0 -51 -4.5t-44.5 -15t-42 -27t-42.5 -39.5l66 -94
q35 38 57.5 53.5t44.5 15.5q29 0 40.5 -13.5t9.5 -42.5q-1 -25 -10 -49.5t-32 -57t-64 -76t-105 -106.5v-79z" />
    <glyph glyph-name="uni2476" unicode="&#x2476;" horiz-adv-x="940" 
d="M278 726q-81 -91 -116.5 -202.5t-35.5 -223.5q0 -56 8.5 -113t27 -113.5t47 -109.5t68.5 -99h-108q-40 43 -68.5 95t-46.5 109t-26.5 115.5t-8.5 115.5q0 115 35.5 225t116.5 201h107zM662 726q81 -91 116.5 -202.5t35.5 -223.5q0 -56 -8.5 -113t-27 -113.5t-47 -109.5
t-68.5 -99h108q40 43 68.5 95t46.5 109t26.5 115.5t8.5 115.5q0 115 -35.5 225t-116.5 201h-107zM291 76q23 -14 43 -23t39.5 -15t40 -8.5t43.5 -2.5q46 0 83 13t63 35t39.5 52t13.5 65q0 45 -22 79t-59 48q33 23 47.5 56.5t14.5 59.5q0 27 -10 52t-30 43.5t-50 29.5t-71 11
q-24 0 -44 -3t-39 -10t-37.5 -18.5t-40.5 -27.5l52 -92q26 18 50 29.5t47 11.5q26 0 35 -9t9 -27q0 -30 -19.5 -44.5t-49.5 -14.5h-48v-105h48q37 0 63 -15t26 -52q0 -11 -3 -21.5t-11 -18.5t-22 -12.5t-37 -4.5q-30 0 -55 9t-53 27z" />
    <glyph glyph-name="uni2477" unicode="&#x2477;" horiz-adv-x="940" 
d="M278 726q-81 -91 -116.5 -202.5t-35.5 -223.5q0 -56 8.5 -113t27 -113.5t47 -109.5t68.5 -99h-108q-40 43 -68.5 95t-46.5 109t-26.5 115.5t-8.5 115.5q0 115 35.5 225t116.5 201h107zM662 726q81 -91 116.5 -202.5t35.5 -223.5q0 -56 -8.5 -113t-27 -113.5t-47 -109.5
t-68.5 -99h108q40 43 68.5 95t46.5 109t26.5 115.5t8.5 115.5q0 115 -35.5 225t-116.5 201h-107zM460 37h115v90h60v101h-60v344h-110l-212 -364v-81h207v-90zM460 228h-73l73 134v-134z" />
    <glyph glyph-name="uni2478" unicode="&#x2478;" horiz-adv-x="940" 
d="M278 726q-81 -91 -116.5 -202.5t-35.5 -223.5q0 -56 8.5 -113t27 -113.5t47 -109.5t68.5 -99h-108q-40 43 -68.5 95t-46.5 109t-26.5 115.5t-8.5 115.5q0 115 35.5 225t116.5 201h107zM662 726q81 -91 116.5 -202.5t35.5 -223.5q0 -56 -8.5 -113t-27 -113.5t-47 -109.5
t-68.5 -99h108q40 43 68.5 95t46.5 109t26.5 115.5t8.5 115.5q0 115 -35.5 225t-116.5 201h-107zM631 457v110h-267l-38 -295l39 4q17 2 34 2h33q45 0 63 -21t18 -50q0 -38 -21 -54t-51 -16q-28 0 -56 12t-53 26l-33 -106q29 -19 62.5 -30.5t79.5 -11.5t82.5 14.5t62.5 40
t40 59.5t14 74q0 37 -12.5 68t-35 53t-52.5 35t-66 15h-7l10 71h154z" />
    <glyph glyph-name="uni2479" unicode="&#x2479;" horiz-adv-x="940" 
d="M278 726q-81 -91 -116.5 -202.5t-35.5 -223.5q0 -56 8.5 -113t27 -113.5t47 -109.5t68.5 -99h-108q-40 43 -68.5 95t-46.5 109t-26.5 115.5t-8.5 115.5q0 115 35.5 225t116.5 201h107zM662 726q81 -91 116.5 -202.5t35.5 -223.5q0 -56 -8.5 -113t-27 -113.5t-47 -109.5
t-68.5 -99h108q40 43 68.5 95t46.5 109t26.5 115.5t8.5 115.5q0 115 -35.5 225t-116.5 201h-107zM597 576q-78 -2 -134.5 -22.5t-98.5 -63.5q-39 -41 -60 -98.5t-21 -133.5q0 -53 12.5 -95.5t36.5 -72.5t58.5 -46t78.5 -16t77 16t55.5 42.5t33.5 61.5t11 73q0 82 -45 130
t-118 48q-29 0 -56 -11q7 14 12.5 21.5t13.5 13.5q40 31 80 38.5t76 6.5zM470 132q-32 0 -48 31.5t-16 79.5q0 7 0.5 10t1.5 5q22 40 57 40q31 0 44.5 -21.5t13.5 -60.5q0 -40 -12 -62t-41 -22z" />
    <glyph glyph-name="uni247A" unicode="&#x247a;" horiz-adv-x="940" 
d="M278 726q-81 -91 -116.5 -202.5t-35.5 -223.5q0 -56 8.5 -113t27 -113.5t47 -109.5t68.5 -99h-108q-40 43 -68.5 95t-46.5 109t-26.5 115.5t-8.5 115.5q0 115 35.5 225t116.5 201h107zM662 726q81 -91 116.5 -202.5t35.5 -223.5q0 -56 -8.5 -113t-27 -113.5t-47 -109.5
t-68.5 -99h108q40 43 68.5 95t46.5 109t26.5 115.5t8.5 115.5q0 115 -35.5 225t-116.5 201h-107zM650 554h-341v-110h190l-207 -419h137l221 453v76z" />
    <glyph glyph-name="uni247B" unicode="&#x247b;" horiz-adv-x="940" 
d="M278 726q-81 -91 -116.5 -202.5t-35.5 -223.5q0 -56 8.5 -113t27 -113.5t47 -109.5t68.5 -99h-108q-40 43 -68.5 95t-46.5 109t-26.5 115.5t-8.5 115.5q0 115 35.5 225t116.5 201h107zM662 726q81 -91 116.5 -202.5t35.5 -223.5q0 -56 -8.5 -113t-27 -113.5t-47 -109.5
t-68.5 -99h108q40 43 68.5 95t46.5 109t26.5 115.5t8.5 115.5q0 115 -35.5 225t-116.5 201h-107zM652 189q0 38 -18.5 72t-57.5 57q34 26 47 58.5t13 56.5q0 28 -10.5 53t-30.5 44t-50.5 30.5t-69.5 11.5q-36 0 -67 -10t-53.5 -28.5t-35 -46t-12.5 -63.5q0 -26 11.5 -57
t46.5 -56q-42 -27 -59 -62.5t-17 -70.5q0 -32 13 -59.5t36.5 -47.5t57 -31.5t74.5 -11.5q36 0 69 11t58 31.5t40 50.5t15 68zM534 181q0 -23 -17 -36.5t-46 -13.5q-32 0 -47.5 15.5t-15.5 41.5q0 20 12 40t43 34q37 -14 54 -33t17 -48zM420 429q0 20 14 32.5t38 12.5
q23 0 36 -14t13 -34q0 -19 -10 -36.5t-33 -26.5q-58 20 -58 66z" />
    <glyph glyph-name="uni247C" unicode="&#x247c;" horiz-adv-x="940" 
d="M278 726q-81 -91 -116.5 -202.5t-35.5 -223.5q0 -56 8.5 -113t27 -113.5t47 -109.5t68.5 -99h-108q-40 43 -68.5 95t-46.5 109t-26.5 115.5t-8.5 115.5q0 115 35.5 225t116.5 201h107zM662 726q81 -91 116.5 -202.5t35.5 -223.5q0 -56 -8.5 -113t-27 -113.5t-47 -109.5
t-68.5 -99h108q40 43 68.5 95t46.5 109t26.5 115.5t8.5 115.5q0 115 -35.5 225t-116.5 201h-107zM346 27q80 0 137.5 22t95 63.5t55.5 100t18 132.5q0 52 -14 94t-38.5 71.5t-58 45t-72.5 15.5q-42 0 -75 -14t-55.5 -38.5t-34.5 -59t-10 -74.5q1 -42 14.5 -74.5t35.5 -55
t51.5 -34t63.5 -11.5q16 0 30.5 3.5t25.5 8.5q-14 -27 -28.5 -43.5t-34 -26.5t-45.5 -13.5t-61 -3.5v-108zM468 467q32 0 48.5 -30t16.5 -78q0 -24 -18 -35.5t-38 -11.5q-29 0 -47.5 19.5t-18.5 58.5q0 40 15 58.5t42 18.5z" />
    <glyph glyph-name="uni247D" unicode="&#x247d;" horiz-adv-x="940" 
d="M278 726q-81 -91 -116.5 -202.5t-35.5 -223.5q0 -56 8.5 -113t27 -113.5t47 -109.5t68.5 -99h-108q-40 43 -68.5 95t-46.5 109t-26.5 115.5t-8.5 115.5q0 115 35.5 225t116.5 201h107zM662 726q81 -91 116.5 -202.5t35.5 -223.5q0 -56 -8.5 -113t-27 -113.5t-47 -109.5
t-68.5 -99h108q40 43 68.5 95t46.5 109t26.5 115.5t8.5 115.5q0 115 -35.5 225t-116.5 201h-107zM536 301q0 88 11.5 124t32.5 36t32.5 -36t11.5 -124q0 -89 -11.5 -125t-32.5 -36t-32.5 36t-11.5 125zM416 301q0 -133 42.5 -201t121.5 -68t121.5 68t42.5 201t-42.5 201
t-121.5 68t-121.5 -68t-42.5 -201zM266 435v-395h120v529h-86l-115 -63l49 -91z" />
    <glyph glyph-name="uni247E" unicode="&#x247e;" horiz-adv-x="940" 
d="M278 726q-81 -91 -116.5 -202.5t-35.5 -223.5q0 -56 8.5 -113t27 -113.5t47 -109.5t68.5 -99h-108q-40 43 -68.5 95t-46.5 109t-26.5 115.5t-8.5 115.5q0 115 35.5 225t116.5 201h107zM662 726q81 -91 116.5 -202.5t35.5 -223.5q0 -56 -8.5 -113t-27 -113.5t-47 -109.5
t-68.5 -99h108q40 43 68.5 95t46.5 109t26.5 115.5t8.5 115.5q0 115 -35.5 225t-116.5 201h-107zM297 437v-400h121v532h-87l-113 -61l49 -90zM557 437v-400h121v532h-87l-113 -61l49 -90z" />
    <glyph glyph-name="uni247F" unicode="&#x247f;" horiz-adv-x="940" 
d="M278 726q-81 -91 -116.5 -202.5t-35.5 -223.5q0 -56 8.5 -113t27 -113.5t47 -109.5t68.5 -99h-108q-40 43 -68.5 95t-46.5 109t-26.5 115.5t-8.5 115.5q0 115 35.5 225t116.5 201h107zM662 726q81 -91 116.5 -202.5t35.5 -223.5q0 -56 -8.5 -113t-27 -113.5t-47 -109.5
t-68.5 -99h108q40 43 68.5 95t46.5 109t26.5 115.5t8.5 115.5q0 115 -35.5 225t-116.5 201h-107zM266 435v-398h120v532h-86l-115 -63l49 -91zM416 37h299v110h-128q33 38 56 71t38.5 64.5t23 63t8.5 66.5q1 31 -8 60.5t-28 51.5t-47.5 35.5t-66.5 13.5q-48 0 -84 -21.5
t-69 -66.5l56 -98q26 35 46.5 55t38.5 20q20 0 31 -14.5t9 -43.5q-1 -25 -10.5 -53t-30 -62.5t-53.5 -77t-81 -96.5v-78z" />
    <glyph glyph-name="uni2480" unicode="&#x2480;" horiz-adv-x="940" 
d="M278 726q-81 -91 -116.5 -202.5t-35.5 -223.5q0 -56 8.5 -113t27 -113.5t47 -109.5t68.5 -99h-108q-40 43 -68.5 95t-46.5 109t-26.5 115.5t-8.5 115.5q0 115 35.5 225t116.5 201h107zM662 726q81 -91 116.5 -202.5t35.5 -223.5q0 -56 -8.5 -113t-27 -113.5t-47 -109.5
t-68.5 -99h108q40 43 68.5 95t46.5 109t26.5 115.5t8.5 115.5q0 115 -35.5 225t-116.5 201h-107zM266 435v-398h120v532h-86l-115 -63l49 -91zM402 69q19 -12 36 -20t33.5 -13t34 -7.5t38.5 -2.5q51 0 88 13.5t60.5 36t34 52.5t10.5 64q0 42 -19 74t-59 53q31 22 45.5 55.5
t14.5 60.5q0 26 -9 50.5t-28.5 44t-49 31t-70.5 11.5q-43 0 -77.5 -12.5t-66.5 -36.5l51 -93q23 19 42 26t40 7q25 0 35 -10t10 -28q0 -29 -19.5 -44.5t-48.5 -15.5h-47v-103h47q38 0 62 -16t24 -52q0 -11 -3 -22t-11.5 -19.5t-22.5 -14t-35 -5.5q-14 0 -24.5 1.5t-21 5
t-21.5 9t-25 13.5z" />
    <glyph glyph-name="uni2481" unicode="&#x2481;" horiz-adv-x="940" 
d="M278 726q-81 -91 -116.5 -202.5t-35.5 -223.5q0 -56 8.5 -113t27 -113.5t47 -109.5t68.5 -99h-108q-40 43 -68.5 95t-46.5 109t-26.5 115.5t-8.5 115.5q0 115 35.5 225t116.5 201h107zM662 726q81 -91 116.5 -202.5t35.5 -223.5q0 -56 -8.5 -113t-27 -113.5t-47 -109.5
t-68.5 -99h108q40 43 68.5 95t46.5 109t26.5 115.5t8.5 115.5q0 115 -35.5 225t-116.5 201h-107zM266 435v-398h120v532h-86l-115 -63l49 -91zM585 37h110v92h53v101h-53v343h-106l-179 -359v-85h175v-92zM585 230h-54l54 121v-121z" />
    <glyph glyph-name="uni2482" unicode="&#x2482;" horiz-adv-x="940" 
d="M278 726q-81 -91 -116.5 -202.5t-35.5 -223.5q0 -56 8.5 -113t27 -113.5t47 -109.5t68.5 -99h-108q-40 43 -68.5 95t-46.5 109t-26.5 115.5t-8.5 115.5q0 115 35.5 225t116.5 201h107zM662 726q81 -91 116.5 -202.5t35.5 -223.5q0 -56 -8.5 -113t-27 -113.5t-47 -109.5
t-68.5 -99h108q40 43 68.5 95t46.5 109t26.5 115.5t8.5 115.5q0 115 -35.5 225t-116.5 201h-107zM266 435v-398h120v532h-86l-115 -63l49 -91zM719 457v110h-262l-36 -294q33 5 54.5 6.5t32.5 1.5q54 0 76.5 -18t22.5 -56q0 -35 -20.5 -53t-55.5 -18q-21 0 -37.5 6.5
t-42.5 21.5l-49 -101q29 -19 57 -28t72 -9q48 0 85.5 15t64 40.5t40 60t13.5 73.5q0 40 -13 71.5t-36.5 53.5t-55 34t-68.5 12h-8l10 71h156z" />
    <glyph glyph-name="uni249C" unicode="&#x249c;" horiz-adv-x="940" 
d="M301 220q0 32 14.5 59t40 46.5t61 30t78.5 9.5v9q0 14 -11 23.5t-34 9.5q-15 0 -38 -7.5t-54 -33.5l-40 87q32 26 66 39.5t76 13.5q46 0 75 -14t46 -37t23.5 -52.5t6.5 -60.5v-235h-116v12q-11 -6 -32 -13t-42 -7q-34 0 -57 10t-37 27t-20 38.5t-6 45.5zM769 726
q81 -91 116.5 -201t35.5 -225q0 -57 -8.5 -115.5t-26.5 -115.5t-46.5 -109t-68.5 -95h-108q40 46 68.5 99t47 109.5t27 113.5t8.5 113q0 112 -35.5 223.5t-116.5 202.5h107zM278 726q-81 -91 -116.5 -202.5t-35.5 -223.5q0 -56 8.5 -113t27 -113.5t47 -109.5t68.5 -99h-108
q-40 43 -68.5 95t-46.5 109t-26.5 115.5t-8.5 115.5q0 115 35.5 225t116.5 201h107zM495 274h-4q-31 0 -52 -13.5t-21 -32.5q0 -14 5.5 -21.5t23.5 -6.5q16 1 28.5 8.5t16.5 21.5q2 6 2.5 11t0.5 7v26z" />
    <glyph glyph-name="uni249D" unicode="&#x249d;" horiz-adv-x="940" 
d="M278 726q-81 -91 -116.5 -202.5t-35.5 -223.5q0 -56 8.5 -113t27 -113.5t47 -109.5t68.5 -99h-108q-40 43 -68.5 95t-46.5 109t-26.5 115.5t-8.5 115.5q0 115 35.5 225t116.5 201h107zM662 726q81 -91 116.5 -202.5t35.5 -223.5q0 -56 -8.5 -113t-27 -113.5t-47 -109.5
t-68.5 -99h108q40 43 68.5 95t46.5 109t26.5 115.5t8.5 115.5q0 115 -35.5 225t-116.5 201h-107zM319 596v-553h121v16q14 -11 32 -17.5t39 -6.5q34 0 66 13.5t56.5 39.5t39 65t14.5 90q0 43 -11 79.5t-32.5 63t-52.5 41.5t-70 15q-23 0 -42 -6t-33 -16v176h-127zM446 211
v49q0 30 13 52.5t41 22.5q33 0 46 -25.5t13 -68.5q0 -48 -13 -73.5t-47 -25.5q-29 0 -41 20t-12 49z" />
    <glyph glyph-name="uni249E" unicode="&#x249e;" horiz-adv-x="940" 
d="M278 726q-81 -91 -116.5 -202.5t-35.5 -223.5q0 -56 8.5 -113t27 -113.5t47 -109.5t68.5 -99h-108q-40 43 -68.5 95t-46.5 109t-26.5 115.5t-8.5 115.5q0 115 35.5 225t116.5 201h107zM662 726q81 -91 116.5 -202.5t35.5 -223.5q0 -56 -8.5 -113t-27 -113.5t-47 -109.5
t-68.5 -99h108q40 43 68.5 95t46.5 109t26.5 115.5t8.5 115.5q0 115 -35.5 225t-116.5 201h-107zM575 225q-29 -12 -48 -17t-37 -5q-35 0 -56.5 24.5t-21.5 75.5q0 44 19 68.5t58 24.5q20 0 37 -5t42 -19l29 105q-24 15 -49.5 21t-59.5 6q-47 0 -84.5 -14t-64.5 -40.5
t-41.5 -64.5t-14.5 -86t14.5 -86t40 -64t61 -40t78.5 -14q42 0 70.5 9t50.5 21z" />
    <glyph glyph-name="uni249F" unicode="&#x249f;" horiz-adv-x="940" 
d="M278 726q-81 -91 -116.5 -202.5t-35.5 -223.5q0 -56 8.5 -113t27 -113.5t47 -109.5t68.5 -99h-108q-40 43 -68.5 95t-46.5 109t-26.5 115.5t-8.5 115.5q0 115 35.5 225t116.5 201h107zM662 726q81 -91 116.5 -202.5t35.5 -223.5q0 -56 -8.5 -113t-27 -113.5t-47 -109.5
t-68.5 -99h108q40 43 68.5 95t46.5 109t26.5 115.5t8.5 115.5q0 115 -35.5 225t-116.5 201h-107zM627 596v-553h-121v15q-14 -11 -32 -17t-39 -6q-35 0 -66.5 13.5t-56 39.5t-39 65t-14.5 90q0 43 11 79.5t32.5 63t52.5 41.5t70 15q23 0 42 -6t33 -16v176h127zM500 211v49
q0 30 -13 52.5t-41 22.5q-33 0 -46 -25.5t-13 -68.5q0 -48 13 -73.5t47 -25.5q29 0 41 20t12 49z" />
    <glyph glyph-name="uni24A0" unicode="&#x24a0;" horiz-adv-x="940" 
d="M278 726q-81 -91 -116.5 -202.5t-35.5 -223.5q0 -56 8.5 -113t27 -113.5t47 -109.5t68.5 -99h-108q-40 43 -68.5 95t-46.5 109t-26.5 115.5t-8.5 115.5q0 115 35.5 225t116.5 201h107zM662 726q81 -91 116.5 -202.5t35.5 -223.5q0 -56 -8.5 -113t-27 -113.5t-47 -109.5
t-68.5 -99h108q40 43 68.5 95t46.5 109t26.5 115.5t8.5 115.5q0 115 -35.5 225t-116.5 201h-107zM470 404q20 0 35 -13t22 -33h-117q6 18 20.5 32t39.5 14zM595 237q-37 -23 -63 -30t-48 -7q-28 0 -49 13t-27 47h230q3 55 -5.5 100.5t-29 77t-54 49t-79.5 17.5
q-39 0 -71 -14t-55.5 -40.5t-36 -64t-12.5 -83.5q0 -53 15 -91.5t40.5 -64t59 -37.5t69.5 -12q42 0 76.5 12.5t76.5 40.5z" />
    <glyph glyph-name="uni24A1" unicode="&#x24a1;" horiz-adv-x="940" 
d="M278 726q-81 -91 -116.5 -202.5t-35.5 -223.5q0 -56 8.5 -113t27 -113.5t47 -109.5t68.5 -99h-108q-40 43 -68.5 95t-46.5 109t-26.5 115.5t-8.5 115.5q0 115 35.5 225t116.5 201h107zM662 726q81 -91 116.5 -202.5t35.5 -223.5q0 -56 -8.5 -113t-27 -113.5t-47 -109.5
t-68.5 -99h108q40 43 68.5 95t46.5 109t26.5 115.5t8.5 115.5q0 115 -35.5 225t-116.5 201h-107zM575 470v105h-66q-65 0 -97.5 -35t-32.5 -97v-37h-44v-105h44v-290h128v290h71v105h-71v37q0 16 4.5 21.5t15.5 5.5h48z" />
    <glyph glyph-name="uni24A2" unicode="&#x24a2;" horiz-adv-x="940" 
d="M278 726q-81 -91 -116.5 -202.5t-35.5 -223.5q0 -56 8.5 -113t27 -113.5t47 -109.5t68.5 -99h-108q-40 43 -68.5 95t-46.5 109t-26.5 115.5t-8.5 115.5q0 115 35.5 225t116.5 201h107zM662 726q81 -91 116.5 -202.5t35.5 -223.5q0 -56 -8.5 -113t-27 -113.5t-47 -109.5
t-68.5 -99h108q40 43 68.5 95t46.5 109t26.5 115.5t8.5 115.5q0 115 -35.5 225t-116.5 201h-107zM643 540h-110v-16q-14 12 -35.5 18t-45.5 6q-32 0 -64 -11.5t-57 -36.5t-40.5 -64t-15.5 -94q0 -95 46.5 -146.5t120.5 -51.5q29 0 46.5 6t31.5 14q-14 -55 -67 -56
q-27 -1 -49 5t-55 24l-36 -86q40 -26 71.5 -34t66.5 -8q54 0 90.5 15t59 44t32.5 70.5t10 94.5v307zM522 326q0 -30 -15.5 -54t-43.5 -24q-35 0 -51 25.5t-16 70.5q0 100 68 100q29 0 43.5 -21.5t14.5 -50.5v-46z" />
    <glyph glyph-name="uni24A3" unicode="&#x24a3;" horiz-adv-x="940" 
d="M278 726q-81 -91 -116.5 -202.5t-35.5 -223.5q0 -56 8.5 -113t27 -113.5t47 -109.5t68.5 -99h-108q-40 43 -68.5 95t-46.5 109t-26.5 115.5t-8.5 115.5q0 115 35.5 225t116.5 201h107zM662 726q81 -91 116.5 -202.5t35.5 -223.5q0 -56 -8.5 -113t-27 -113.5t-47 -109.5
t-68.5 -99h108q40 43 68.5 95t46.5 109t26.5 115.5t8.5 115.5q0 115 -35.5 225t-116.5 201h-107zM526 42h128v252q0 32 -9.5 60t-28.5 48t-47.5 30.5t-66.5 8.5q-14 -1 -29.5 -4.5t-35.5 -14.5v170h-128v-550h128v243q10 22 21 36.5t34 15.5q17 1 25.5 -10.5t8.5 -32.5v-252
z" />
    <glyph glyph-name="uni24A4" unicode="&#x24a4;" horiz-adv-x="940" 
d="M278 726q-81 -91 -116.5 -202.5t-35.5 -223.5q0 -56 8.5 -113t27 -113.5t47 -109.5t68.5 -99h-108q-40 43 -68.5 95t-46.5 109t-26.5 115.5t-8.5 115.5q0 115 35.5 225t116.5 201h107zM662 726q81 -91 116.5 -202.5t35.5 -223.5q0 -56 -8.5 -113t-27 -113.5t-47 -109.5
t-68.5 -99h108q40 43 68.5 95t46.5 109t26.5 115.5t8.5 115.5q0 115 -35.5 225t-116.5 201h-107zM405 42h128v382h-128v-382zM533 574h-128v-118h128v118z" />
    <glyph glyph-name="uni24A5" unicode="&#x24a5;" horiz-adv-x="940" 
d="M278 726q-81 -91 -116.5 -202.5t-35.5 -223.5q0 -56 8.5 -113t27 -113.5t47 -109.5t68.5 -99h-108q-40 43 -68.5 95t-46.5 109t-26.5 115.5t-8.5 115.5q0 115 35.5 225t116.5 201h107zM662 726q81 -91 116.5 -202.5t35.5 -223.5q0 -56 -8.5 -113t-27 -113.5t-47 -109.5
t-68.5 -99h108q40 43 68.5 95t46.5 109t26.5 115.5t8.5 115.5q0 115 -35.5 225t-116.5 201h-107zM357 -23q58 4 96 17.5t60.5 34.5t31 49t8.5 61v311h-128v-311q0 -31 -19 -43t-60 -16zM553 600h-128v-118h128v118z" />
    <glyph glyph-name="uni24A6" unicode="&#x24a6;" horiz-adv-x="940" 
d="M278 726q-81 -91 -116.5 -202.5t-35.5 -223.5q0 -56 8.5 -113t27 -113.5t47 -109.5t68.5 -99h-108q-40 43 -68.5 95t-46.5 109t-26.5 115.5t-8.5 115.5q0 115 35.5 225t116.5 201h107zM662 726q81 -91 116.5 -202.5t35.5 -223.5q0 -56 -8.5 -113t-27 -113.5t-47 -109.5
t-68.5 -99h108q40 43 68.5 95t46.5 109t26.5 115.5t8.5 115.5q0 115 -35.5 225t-116.5 201h-107zM459 605h-125v-553h125v124l82 -124h134l-150 223l153 169h-144l-75 -83v244z" />
    <glyph glyph-name="uni24A7" unicode="&#x24a7;" horiz-adv-x="940" 
d="M278 726q-81 -91 -116.5 -202.5t-35.5 -223.5q0 -56 8.5 -113t27 -113.5t47 -109.5t68.5 -99h-108q-40 43 -68.5 95t-46.5 109t-26.5 115.5t-8.5 115.5q0 115 35.5 225t116.5 201h107zM662 726q81 -91 116.5 -202.5t35.5 -223.5q0 -56 -8.5 -113t-27 -113.5t-47 -109.5
t-68.5 -99h108q40 43 68.5 95t46.5 109t26.5 115.5t8.5 115.5q0 115 -35.5 225t-116.5 201h-107zM405 42h128v533h-128v-533z" />
    <glyph glyph-name="uni24A8" unicode="&#x24a8;" horiz-adv-x="940" 
d="M278 726q-81 -91 -116.5 -202.5t-35.5 -223.5q0 -56 8.5 -113t27 -113.5t47 -109.5t68.5 -99h-108q-40 43 -68.5 95t-46.5 109t-26.5 115.5t-8.5 115.5q0 115 35.5 225t116.5 201h107zM662 726q81 -91 116.5 -202.5t35.5 -223.5q0 -56 -8.5 -113t-27 -113.5t-47 -109.5
t-68.5 -99h108q40 43 68.5 95t46.5 109t26.5 115.5t8.5 115.5q0 115 -35.5 225t-116.5 201h-107zM610 107h125v261q0 64 -32 101.5t-100 37.5q-24 0 -52.5 -12t-49.5 -37q-17 23 -40.5 35.5t-50.5 12.5q-25 0 -40 -4t-31 -15v13h-115v-390h125v264q8 14 16.5 21.5t19.5 7.5
q17 0 24.5 -8t7.5 -28v-260h125v263q24 33 42 33q15 0 20.5 -8t5.5 -28v-260z" />
    <glyph glyph-name="uni24A9" unicode="&#x24a9;" horiz-adv-x="940" 
d="M278 726q-81 -91 -116.5 -202.5t-35.5 -223.5q0 -56 8.5 -113t27 -113.5t47 -109.5t68.5 -99h-108q-40 43 -68.5 95t-46.5 109t-26.5 115.5t-8.5 115.5q0 115 35.5 225t116.5 201h107zM662 726q81 -91 116.5 -202.5t35.5 -223.5q0 -56 -8.5 -113t-27 -113.5t-47 -109.5
t-68.5 -99h108q40 43 68.5 95t46.5 109t26.5 115.5t8.5 115.5q0 115 -35.5 225t-116.5 201h-107zM513 107h127v256q0 70 -38.5 106.5t-101.5 36.5q-46 0 -72 -23v16h-118v-392h128v265q6 11 16 20.5t23 9.5q19 0 27.5 -9t8.5 -31v-255z" />
    <glyph glyph-name="uni24AA" unicode="&#x24aa;" horiz-adv-x="940" 
d="M278 726q-81 -91 -116.5 -202.5t-35.5 -223.5q0 -56 8.5 -113t27 -113.5t47 -109.5t68.5 -99h-108q-40 43 -68.5 95t-46.5 109t-26.5 115.5t-8.5 115.5q0 115 35.5 225t116.5 201h107zM662 726q81 -91 116.5 -202.5t35.5 -223.5q0 -56 -8.5 -113t-27 -113.5t-47 -109.5
t-68.5 -99h108q40 43 68.5 95t46.5 109t26.5 115.5t8.5 115.5q0 115 -35.5 225t-116.5 201h-107zM470 99q39 0 73 13t59 38.5t39 63t14 86.5q0 51 -14 89.5t-38.5 64.5t-58.5 39t-74 13q-41 0 -75 -13t-58.5 -39t-38.5 -64.5t-14 -89.5q0 -49 14 -86.5t39 -63t59 -38.5
t74 -13zM470 406q32 0 46.5 -30.5t14.5 -75.5q0 -50 -17.5 -75.5t-43.5 -25.5q-27 0 -44 25.5t-17 75.5q0 45 14 75.5t47 30.5z" />
    <glyph glyph-name="uni24AB" unicode="&#x24ab;" horiz-adv-x="940" 
d="M278 726q-81 -91 -116.5 -202.5t-35.5 -223.5q0 -56 8.5 -113t27 -113.5t47 -109.5t68.5 -99h-108q-40 43 -68.5 95t-46.5 109t-26.5 115.5t-8.5 115.5q0 115 35.5 225t116.5 201h107zM662 726q81 -91 116.5 -202.5t35.5 -223.5q0 -56 -8.5 -113t-27 -113.5t-47 -109.5
t-68.5 -99h108q40 43 68.5 95t46.5 109t26.5 115.5t8.5 115.5q0 115 -35.5 225t-116.5 201h-107zM317 16v531h121v-17q30 24 71 24q36 0 68 -13.5t56 -39.5t38 -65t14 -90q0 -43 -11 -79.5t-32 -63t-52 -41.5t-71 -15q-23 0 -41 6.5t-32 15.5v-153h-129zM444 378v-49
q0 -30 13 -52.5t41 -22.5q35 0 47 25.5t12 68.5q0 48 -13 73.5t-47 25.5q-29 0 -41 -20t-12 -49z" />
    <glyph glyph-name="uni24AC" unicode="&#x24ac;" horiz-adv-x="940" 
d="M278 726q-81 -91 -116.5 -202.5t-35.5 -223.5q0 -56 8.5 -113t27 -113.5t47 -109.5t68.5 -99h-108q-40 43 -68.5 95t-46.5 109t-26.5 115.5t-8.5 115.5q0 115 35.5 225t116.5 201h107zM662 726q81 -91 116.5 -202.5t35.5 -223.5q0 -56 -8.5 -113t-27 -113.5t-47 -109.5
t-68.5 -99h108q40 43 68.5 95t46.5 109t26.5 115.5t8.5 115.5q0 115 -35.5 225t-116.5 201h-107zM636 16v531h-121v-17q-30 24 -71 24q-36 0 -68 -13.5t-56 -39.5t-38 -65t-14 -90q0 -43 11 -79.5t32 -63t52 -41.5t71 -15q23 0 41 6.5t32 15.5v-153h129zM509 378v-49
q0 -30 -13 -52.5t-41 -22.5q-35 0 -47 25.5t-12 68.5q0 48 13 73.5t47 25.5q29 0 41 -20t12 -49z" />
    <glyph glyph-name="uni24AD" unicode="&#x24ad;" horiz-adv-x="940" 
d="M278 726q-81 -91 -116.5 -202.5t-35.5 -223.5q0 -56 8.5 -113t27 -113.5t47 -109.5t68.5 -99h-108q-40 43 -68.5 95t-46.5 109t-26.5 115.5t-8.5 115.5q0 115 35.5 225t116.5 201h107zM662 726q81 -91 116.5 -202.5t35.5 -223.5q0 -56 -8.5 -113t-27 -113.5t-47 -109.5
t-68.5 -99h108q40 43 68.5 95t46.5 109t26.5 115.5t8.5 115.5q0 115 -35.5 225t-116.5 201h-107zM486 489h-113v-392h126v222q0 28 11.5 48t35.5 20q10 0 22.5 -3t38.5 -16v113q-17 8 -34.5 11.5t-32.5 3.5q-30 0 -54 -19v12z" />
    <glyph glyph-name="uni24AE" unicode="&#x24ae;" horiz-adv-x="940" 
d="M278 726q-81 -91 -116.5 -202.5t-35.5 -223.5q0 -56 8.5 -113t27 -113.5t47 -109.5t68.5 -99h-108q-40 43 -68.5 95t-46.5 109t-26.5 115.5t-8.5 115.5q0 115 35.5 225t116.5 201h107zM662 726q81 -91 116.5 -202.5t35.5 -223.5q0 -56 -8.5 -113t-27 -113.5t-47 -109.5
t-68.5 -99h108q40 43 68.5 95t46.5 109t26.5 115.5t8.5 115.5q0 115 -35.5 225t-116.5 201h-107zM331 137q32 -18 58.5 -28.5t61.5 -10.5q75 0 114.5 30.5t39.5 90.5q0 44 -22.5 77.5t-79.5 56.5q-24 10 -35.5 18.5t-11.5 21.5q0 8 9 12t23 2q17 -2 36 -8.5t33 -19.5l33 95
q-17 10 -30 16.5t-25 10t-24.5 5t-27.5 1.5q-29 0 -55 -7t-45.5 -21.5t-31 -36t-11.5 -51.5q0 -42 24 -75t78 -54q23 -9 34.5 -18.5t9.5 -23.5q-2 -11 -9 -15t-24 -4q-20 0 -39.5 5t-51.5 22z" />
    <glyph glyph-name="uni24AF" unicode="&#x24af;" horiz-adv-x="940" 
d="M278 726q-81 -91 -116.5 -202.5t-35.5 -223.5q0 -56 8.5 -113t27 -113.5t47 -109.5t68.5 -99h-108q-40 43 -68.5 95t-46.5 109t-26.5 115.5t-8.5 115.5q0 115 35.5 225t116.5 201h107zM662 726q81 -91 116.5 -202.5t35.5 -223.5q0 -56 -8.5 -113t-27 -113.5t-47 -109.5
t-68.5 -99h108q40 43 68.5 95t46.5 109t26.5 115.5t8.5 115.5q0 115 -35.5 225t-116.5 201h-107zM378 536v-90h-44v-105h44v-168q0 -25 5.5 -48t19 -41t36 -29t57.5 -12q14 -1 37 2.5t47 11.5l-7 95q-19 -4 -31 -4.5t-23 -0.5q-8 0 -10.5 7t-2.5 21v166h67v105h-67v90h-128z
" />
    <glyph glyph-name="uni24B0" unicode="&#x24b0;" horiz-adv-x="940" 
d="M278 726q-81 -91 -116.5 -202.5t-35.5 -223.5q0 -56 8.5 -113t27 -113.5t47 -109.5t68.5 -99h-108q-40 43 -68.5 95t-46.5 109t-26.5 115.5t-8.5 115.5q0 115 35.5 225t116.5 201h107zM662 726q81 -91 116.5 -202.5t35.5 -223.5q0 -56 -8.5 -113t-27 -113.5t-47 -109.5
t-68.5 -99h108q40 43 68.5 95t46.5 109t26.5 115.5t8.5 115.5q0 115 -35.5 225t-116.5 201h-107zM427 494h-127v-256q0 -70 38.5 -106.5t101.5 -36.5q23 0 41.5 6t30.5 17v-16h118v392h-128v-265q-6 -11 -16 -20.5t-23 -9.5q-19 0 -27.5 9t-8.5 31v255z" />
    <glyph glyph-name="uni24B1" unicode="&#x24b1;" horiz-adv-x="940" 
d="M278 726q-81 -91 -116.5 -202.5t-35.5 -223.5q0 -56 8.5 -113t27 -113.5t47 -109.5t68.5 -99h-108q-40 43 -68.5 95t-46.5 109t-26.5 115.5t-8.5 115.5q0 115 35.5 225t116.5 201h107zM662 726q81 -91 116.5 -202.5t35.5 -223.5q0 -56 -8.5 -113t-27 -113.5t-47 -109.5
t-68.5 -99h108q40 43 68.5 95t46.5 109t26.5 115.5t8.5 115.5q0 115 -35.5 225t-116.5 201h-107zM470 261l-61 216h-133l132 -391h123l133 391h-130z" />
    <glyph glyph-name="uni24B2" unicode="&#x24b2;" horiz-adv-x="940" 
d="M573 298l38 201h119l-92 -392h-120l-49 190l-48 -190h-120l-92 392h119l38 -201l54 201h99zM769 726q81 -91 116.5 -201t35.5 -225q0 -57 -8.5 -115.5t-26.5 -115.5t-46.5 -109t-68.5 -95h-108q40 46 68.5 99t47 109.5t27 113.5t8.5 113q0 112 -35.5 223.5t-116.5 202.5
h107zM278 726q-81 -91 -116.5 -202.5t-35.5 -223.5q0 -56 8.5 -113t27 -113.5t47 -109.5t68.5 -99h-108q-40 43 -68.5 95t-46.5 109t-26.5 115.5t-8.5 115.5q0 115 35.5 225t116.5 201h107z" />
    <glyph glyph-name="uni24B3" unicode="&#x24b3;" horiz-adv-x="940" 
d="M536 299l131 -195h-137l-63 93l-62 -93h-137l131 195l-132 197h138l62 -94l63 94h138zM769 726q81 -91 116.5 -201t35.5 -225q0 -57 -8.5 -115.5t-26.5 -115.5t-46.5 -109t-68.5 -95h-108q40 46 68.5 99t47 109.5t27 113.5t8.5 113q0 112 -35.5 223.5t-116.5 202.5h107z
M278 726q-81 -91 -116.5 -202.5t-35.5 -223.5q0 -56 8.5 -113t27 -113.5t47 -109.5t68.5 -99h-108q-40 43 -68.5 95t-46.5 109t-26.5 115.5t-8.5 115.5q0 115 35.5 225t116.5 201h107z" />
    <glyph glyph-name="uni24B4" unicode="&#x24b4;" horiz-adv-x="940" 
d="M656 530l-149 -447q-15 -46 -45.5 -65t-78.5 -19q-19 0 -33 3t-35 12l15 96q14 -7 23 -9t20 -1q10 1 22 38l22 66l-133 326h129l60 -157l53 157h130zM769 726q81 -91 116.5 -201t35.5 -225q0 -57 -8.5 -115.5t-26.5 -115.5t-46.5 -109t-68.5 -95h-108q40 46 68.5 99
t47 109.5t27 113.5t8.5 113q0 112 -35.5 223.5t-116.5 202.5h107zM278 726q-81 -91 -116.5 -202.5t-35.5 -223.5q0 -56 8.5 -113t27 -113.5t47 -109.5t68.5 -99h-108q-40 43 -68.5 95t-46.5 109t-26.5 115.5t-8.5 115.5q0 115 35.5 225t116.5 201h107z" />
    <glyph glyph-name="uni24B5" unicode="&#x24b5;" horiz-adv-x="940" 
d="M278 726q-81 -91 -116.5 -202.5t-35.5 -223.5q0 -56 8.5 -113t27 -113.5t47 -109.5t68.5 -99h-108q-40 43 -68.5 95t-46.5 109t-26.5 115.5t-8.5 115.5q0 115 35.5 225t116.5 201h107zM662 726q81 -91 116.5 -202.5t35.5 -223.5q0 -56 -8.5 -113t-27 -113.5t-47 -109.5
t-68.5 -99h108q40 43 68.5 95t46.5 109t26.5 115.5t8.5 115.5q0 115 -35.5 225t-116.5 201h-107zM317 395h141l-147 -205v-83h311v104h-154l148 205v83h-299v-104z" />
    <glyph glyph-name="uni24D0" unicode="&#x24d0;" horiz-adv-x="940" 
d="M920 300q0 -95 -34 -176.5t-94 -142.5t-142.5 -95.5t-179.5 -34.5q-91 0 -172.5 33t-143 92.5t-97.5 142t-36 181.5q0 94 34 176t94 142.5t142 95t179 34.5q91 0 173 -32.5t143.5 -91.5t97.5 -141.5t36 -182.5zM821 300q0 75 -27 140.5t-74 114t-111 76.5t-139 28
q-71 0 -134.5 -26.5t-111.5 -74t-76 -113.5t-28 -145q0 -75 26.5 -140.5t73.5 -114t111 -76.5t139 -28q71 0 135 26.5t112 73.5t76 113t28 146zM301 220q0 32 14.5 59t40 46.5t61 30t78.5 9.5v9q0 14 -11 23.5t-34 9.5q-15 0 -38 -7.5t-54 -33.5l-40 87q32 26 66 39.5
t76 13.5q46 0 75 -14t46 -37t23.5 -52.5t6.5 -60.5v-235h-116v12q-11 -6 -32 -13t-42 -7q-34 0 -57 10t-37 27t-20 38.5t-6 45.5zM495 274h-4q-31 0 -52 -13.5t-21 -32.5q0 -14 5.5 -21.5t23.5 -6.5q16 1 28.5 8.5t16.5 21.5q2 6 2.5 11t0.5 7v26z" />
    <glyph glyph-name="uni24D1" unicode="&#x24d1;" horiz-adv-x="940" 
d="M446 596v-176q14 10 33 16t42 6q39 0 70 -15t52.5 -41.5t32.5 -63t11 -79.5q0 -51 -14.5 -90t-39 -65t-56.5 -39.5t-66 -13.5q-21 0 -39 6.5t-32 17.5v-16h-121v553h127zM446 211q0 -29 12 -49t41 -20q34 0 47 25.5t13 73.5q0 43 -13 68.5t-46 25.5q-28 0 -41 -22.5
t-13 -52.5v-49zM920 300q0 -95 -34 -176.5t-94 -142.5t-142.5 -95.5t-179.5 -34.5q-91 0 -172.5 33t-143 92.5t-97.5 142t-36 181.5q0 94 34 176t94 142.5t142 95t179 34.5q91 0 173 -32.5t143.5 -91.5t97.5 -141.5t36 -182.5zM821 300q0 75 -27 140.5t-74 114t-111 76.5
t-139 28q-71 0 -134.5 -26.5t-111.5 -74t-76 -113.5t-28 -145q0 -75 26.5 -140.5t73.5 -114t111 -76.5t139 -28q71 0 135 26.5t112 73.5t76 113t28 146z" />
    <glyph glyph-name="uni24D2" unicode="&#x24d2;" horiz-adv-x="940" 
d="M598 125q-22 -12 -50.5 -21t-70.5 -9q-43 0 -78.5 14t-61 40t-40 64t-14.5 86t14.5 86t41.5 64.5t64.5 40.5t84.5 14q34 0 59.5 -6t49.5 -21l-29 -105q-25 14 -42 19t-37 5q-39 0 -58 -24.5t-19 -68.5q0 -51 21.5 -75.5t56.5 -24.5q18 0 37 5t48 17zM920 300
q0 -95 -34 -176.5t-94 -142.5t-142.5 -95.5t-179.5 -34.5q-91 0 -172.5 33t-143 92.5t-97.5 142t-36 181.5q0 94 34 176t94 142.5t142 95t179 34.5q91 0 173 -32.5t143.5 -91.5t97.5 -141.5t36 -182.5zM821 300q0 75 -27 140.5t-74 114t-111 76.5t-139 28
q-71 0 -134.5 -26.5t-111.5 -74t-76 -113.5t-28 -145q0 -75 26.5 -140.5t73.5 -114t111 -76.5t139 -28q71 0 135 26.5t112 73.5t76 113t28 146z" />
    <glyph glyph-name="uni24D3" unicode="&#x24d3;" horiz-adv-x="940" 
d="M920 300q0 -95 -34 -176.5t-94 -142.5t-142.5 -95.5t-179.5 -34.5q-91 0 -172.5 33t-143 92.5t-97.5 142t-36 181.5q0 94 34 176t94 142.5t142 95t179 34.5q91 0 173 -32.5t143.5 -91.5t97.5 -141.5t36 -182.5zM821 300q0 75 -27 140.5t-74 114t-111 76.5t-139 28
q-71 0 -134.5 -26.5t-111.5 -74t-76 -113.5t-28 -145q0 -75 26.5 -140.5t73.5 -114t111 -76.5t139 -28q71 0 135 26.5t112 73.5t76 113t28 146zM627 596v-553h-121v15q-14 -11 -32 -17t-39 -6q-35 0 -66.5 13.5t-56 39.5t-39 65t-14.5 90q0 43 11 79.5t32.5 63t52.5 41.5
t70 15q23 0 42 -6t33 -16v176h127zM500 211v49q0 30 -13 52.5t-41 22.5q-33 0 -46 -25.5t-13 -68.5q0 -48 13 -73.5t47 -25.5q29 0 41 20t12 49z" />
    <glyph glyph-name="uni24D4" unicode="&#x24d4;" horiz-adv-x="940" 
d="M470 404q-25 0 -39.5 -14t-20.5 -32h117q-7 20 -22 33t-35 13zM632 150q-42 -28 -76.5 -40.5t-76.5 -12.5q-36 0 -69.5 12t-59 37.5t-40.5 64t-15 91.5q0 46 12.5 83.5t36 64t55.5 40.5t71 14q46 0 79.5 -17.5t54 -49t29 -77t5.5 -100.5h-230q6 -34 27 -47t49 -13
q22 0 48 7t63 30zM920 300q0 -95 -34 -176.5t-94 -142.5t-142.5 -95.5t-179.5 -34.5q-91 0 -172.5 33t-143 92.5t-97.5 142t-36 181.5q0 94 34 176t94 142.5t142 95t179 34.5q91 0 173 -32.5t143.5 -91.5t97.5 -141.5t36 -182.5zM821 300q0 75 -27 140.5t-74 114t-111 76.5
t-139 28q-71 0 -134.5 -26.5t-111.5 -74t-76 -113.5t-28 -145q0 -75 26.5 -140.5t73.5 -114t111 -76.5t139 -28q71 0 135 26.5t112 73.5t76 113t28 146z" />
    <glyph glyph-name="uni24D5" unicode="&#x24d5;" horiz-adv-x="940" 
d="M527 470q-11 0 -15.5 -5.5t-4.5 -21.5v-37h71v-105h-71v-290h-128v290h-44v105h44v37q0 62 32.5 97t97.5 35h66v-105h-48zM920 300q0 -95 -34 -176.5t-94 -142.5t-142.5 -95.5t-179.5 -34.5q-91 0 -172.5 33t-143 92.5t-97.5 142t-36 181.5q0 94 34 176t94 142.5t142 95
t179 34.5q91 0 173 -32.5t143.5 -91.5t97.5 -141.5t36 -182.5zM821 300q0 75 -27 140.5t-74 114t-111 76.5t-139 28q-71 0 -134.5 -26.5t-111.5 -74t-76 -113.5t-28 -145q0 -75 26.5 -140.5t73.5 -114t111 -76.5t139 -28q71 0 135 26.5t112 73.5t76 113t28 146z" />
    <glyph glyph-name="uni24D6" unicode="&#x24d6;" horiz-adv-x="940" 
d="M920 300q0 -95 -34 -176.5t-94 -142.5t-142.5 -95.5t-179.5 -34.5q-91 0 -172.5 33t-143 92.5t-97.5 142t-36 181.5q0 94 34 176t94 142.5t142 95t179 34.5q91 0 173 -32.5t143.5 -91.5t97.5 -141.5t36 -182.5zM821 300q0 75 -27 140.5t-74 114t-111 76.5t-139 28
q-71 0 -134.5 -26.5t-111.5 -74t-76 -113.5t-28 -145q0 -75 26.5 -140.5t73.5 -114t111 -76.5t139 -28q71 0 135 26.5t112 73.5t76 113t28 146zM643 233q0 -53 -10 -94.5t-32.5 -70.5t-59 -44t-90.5 -15q-35 0 -66.5 8t-71.5 34l36 86q33 -18 55 -24t49 -5q26 1 44.5 14.5
t29.5 49.5q-17 -16 -40 -22t-45 -6q-74 0 -120.5 51.5t-46.5 146.5q0 55 15.5 94t40.5 64t57 36.5t64 11.5q23 0 47 -8.5t39 -30.5v31h105v-307zM522 372q0 29 -14.5 50.5t-43.5 21.5q-68 0 -68 -100q0 -45 16 -70.5t51 -25.5q28 0 43.5 24t15.5 54v46z" />
    <glyph glyph-name="uni24D7" unicode="&#x24d7;" horiz-adv-x="940" 
d="M526 294q0 21 -8.5 32.5t-25.5 10.5q-23 -1 -34 -15.5t-21 -36.5v-243h-128v550h128v-170q20 11 35.5 14.5t29.5 4.5q38 2 66.5 -8.5t47.5 -30.5t28.5 -48t9.5 -60v-252h-128v252zM920 300q0 -95 -34 -176.5t-94 -142.5t-142.5 -95.5t-179.5 -34.5q-91 0 -172.5 33
t-143 92.5t-97.5 142t-36 181.5q0 94 34 176t94 142.5t142 95t179 34.5q91 0 173 -32.5t143.5 -91.5t97.5 -141.5t36 -182.5zM821 300q0 75 -27 140.5t-74 114t-111 76.5t-139 28q-71 0 -134.5 -26.5t-111.5 -74t-76 -113.5t-28 -145q0 -75 26.5 -140.5t73.5 -114t111 -76.5
t139 -28q71 0 135 26.5t112 73.5t76 113t28 146z" />
    <glyph glyph-name="uni24D8" unicode="&#x24d8;" horiz-adv-x="940" 
d="M405 424h128v-382h-128v382zM533 456h-128v118h128v-118zM920 300q0 -95 -34 -176.5t-94 -142.5t-142.5 -95.5t-179.5 -34.5q-91 0 -172.5 33t-143 92.5t-97.5 142t-36 181.5q0 94 34 176t94 142.5t142 95t179 34.5q91 0 173 -32.5t143.5 -91.5t97.5 -141.5t36 -182.5z
M821 300q0 75 -27 140.5t-74 114t-111 76.5t-139 28q-71 0 -134.5 -26.5t-111.5 -74t-76 -113.5t-28 -145q0 -75 26.5 -140.5t73.5 -114t111 -76.5t139 -28q71 0 135 26.5t112 73.5t76 113t28 146z" />
    <glyph glyph-name="uni24D9" unicode="&#x24d9;" horiz-adv-x="940" 
d="M346 80q41 4 60 16t19 43v311h128v-311q0 -33 -8.5 -61t-31 -49t-60.5 -34.5t-96 -17.5zM553 482h-128v118h128v-118zM920 300q0 -95 -34 -176.5t-94 -142.5t-142.5 -95.5t-179.5 -34.5q-91 0 -172.5 33t-143 92.5t-97.5 142t-36 181.5q0 94 34 176t94 142.5t142 95
t179 34.5q91 0 173 -32.5t143.5 -91.5t97.5 -141.5t36 -182.5zM821 300q0 75 -27 140.5t-74 114t-111 76.5t-139 28q-71 0 -134.5 -26.5t-111.5 -74t-76 -113.5t-28 -145q0 -75 26.5 -140.5t73.5 -114t111 -76.5t139 -28q71 0 135 26.5t112 73.5t76 113t28 146z" />
    <glyph glyph-name="uni24DA" unicode="&#x24da;" horiz-adv-x="940" 
d="M459 361l75 83h144l-153 -169l150 -223h-134l-82 124v-124h-125v553h125v-244zM920 300q0 -95 -34 -176.5t-94 -142.5t-142.5 -95.5t-179.5 -34.5q-91 0 -172.5 33t-143 92.5t-97.5 142t-36 181.5q0 94 34 176t94 142.5t142 95t179 34.5q91 0 173 -32.5t143.5 -91.5
t97.5 -141.5t36 -182.5zM821 300q0 75 -27 140.5t-74 114t-111 76.5t-139 28q-71 0 -134.5 -26.5t-111.5 -74t-76 -113.5t-28 -145q0 -75 26.5 -140.5t73.5 -114t111 -76.5t139 -28q71 0 135 26.5t112 73.5t76 113t28 146z" />
    <glyph glyph-name="uni24DB" unicode="&#x24db;" horiz-adv-x="940" 
d="M405 575h128v-533h-128v533zM920 300q0 -95 -34 -176.5t-94 -142.5t-142.5 -95.5t-179.5 -34.5q-91 0 -172.5 33t-143 92.5t-97.5 142t-36 181.5q0 94 34 176t94 142.5t142 95t179 34.5q91 0 173 -32.5t143.5 -91.5t97.5 -141.5t36 -182.5zM821 300q0 75 -27 140.5
t-74 114t-111 76.5t-139 28q-71 0 -134.5 -26.5t-111.5 -74t-76 -113.5t-28 -145q0 -75 26.5 -140.5t73.5 -114t111 -76.5t139 -28q71 0 135 26.5t112 73.5t76 113t28 146z" />
    <glyph glyph-name="uni24DC" unicode="&#x24dc;" horiz-adv-x="940" 
d="M610 367q0 20 -5.5 28t-20.5 8q-18 0 -42 -33v-263h-125v260q0 20 -7.5 28t-24.5 8q-11 0 -19.5 -7.5t-16.5 -21.5v-264h-125v390h115v-13q16 11 31 15t40 4q27 0 50.5 -12.5t40.5 -35.5q21 25 49.5 37t52.5 12q68 0 100 -37.5t32 -101.5v-261h-125v260zM920 300
q0 -95 -34 -176.5t-94 -142.5t-142.5 -95.5t-179.5 -34.5q-91 0 -172.5 33t-143 92.5t-97.5 142t-36 181.5q0 94 34 176t94 142.5t142 95t179 34.5q91 0 173 -32.5t143.5 -91.5t97.5 -141.5t36 -182.5zM821 300q0 75 -27 140.5t-74 114t-111 76.5t-139 28
q-71 0 -134.5 -26.5t-111.5 -74t-76 -113.5t-28 -145q0 -75 26.5 -140.5t73.5 -114t111 -76.5t139 -28q71 0 135 26.5t112 73.5t76 113t28 146z" />
    <glyph glyph-name="uni24DD" unicode="&#x24dd;" horiz-adv-x="940" 
d="M513 362q0 22 -8.5 31t-27.5 9q-13 0 -23 -9.5t-16 -20.5v-265h-128v392h118v-16q26 23 72 23q63 0 101.5 -36.5t38.5 -106.5v-256h-127v255zM920 300q0 -95 -34 -176.5t-94 -142.5t-142.5 -95.5t-179.5 -34.5q-91 0 -172.5 33t-143 92.5t-97.5 142t-36 181.5
q0 94 34 176t94 142.5t142 95t179 34.5q91 0 173 -32.5t143.5 -91.5t97.5 -141.5t36 -182.5zM821 300q0 75 -27 140.5t-74 114t-111 76.5t-139 28q-71 0 -134.5 -26.5t-111.5 -74t-76 -113.5t-28 -145q0 -75 26.5 -140.5t73.5 -114t111 -76.5t139 -28q71 0 135 26.5
t112 73.5t76 113t28 146z" />
    <glyph glyph-name="uni24DE" unicode="&#x24de;" horiz-adv-x="940" 
d="M470 99q-40 0 -74 13t-59 38.5t-39 63t-14 86.5q0 51 14 89.5t38.5 64.5t58.5 39t75 13q40 0 74 -13t58.5 -39t38.5 -64.5t14 -89.5q0 -49 -14 -86.5t-39 -63t-59 -38.5t-73 -13zM470 406q-33 0 -47 -30.5t-14 -75.5q0 -50 17 -75.5t44 -25.5q26 0 43.5 25.5t17.5 75.5
q0 45 -14.5 75.5t-46.5 30.5zM920 300q0 -95 -34 -176.5t-94 -142.5t-142.5 -95.5t-179.5 -34.5q-91 0 -172.5 33t-143 92.5t-97.5 142t-36 181.5q0 94 34 176t94 142.5t142 95t179 34.5q91 0 173 -32.5t143.5 -91.5t97.5 -141.5t36 -182.5zM821 300q0 75 -27 140.5t-74 114
t-111 76.5t-139 28q-71 0 -134.5 -26.5t-111.5 -74t-76 -113.5t-28 -145q0 -75 26.5 -140.5t73.5 -114t111 -76.5t139 -28q71 0 135 26.5t112 73.5t76 113t28 146z" />
    <glyph glyph-name="uni24DF" unicode="&#x24df;" horiz-adv-x="940" 
d="M920 300q0 -95 -34 -176.5t-94 -142.5t-142.5 -95.5t-179.5 -34.5q-91 0 -172.5 33t-143 92.5t-97.5 142t-36 181.5q0 94 34 176t94 142.5t142 95t179 34.5q91 0 173 -32.5t143.5 -91.5t97.5 -141.5t36 -182.5zM821 300q0 75 -27 140.5t-74 114t-111 76.5t-139 28
q-71 0 -134.5 -26.5t-111.5 -74t-76 -113.5t-28 -145q0 -75 26.5 -140.5t73.5 -114t111 -76.5t139 -28q71 0 135 26.5t112 73.5t76 113t28 146zM317 16v531h121v-17q30 24 71 24q36 0 68 -13.5t56 -39.5t38 -65t14 -90q0 -43 -11 -79.5t-32 -63t-52 -41.5t-71 -15
q-23 0 -41 6.5t-32 15.5v-153h-129zM444 378v-49q0 -30 13 -52.5t41 -22.5q35 0 47 25.5t12 68.5q0 48 -13 73.5t-47 25.5q-29 0 -41 -20t-12 -49z" />
    <glyph glyph-name="uni24E0" unicode="&#x24e0;" horiz-adv-x="940" 
d="M507 16v153q-14 -9 -32 -15.5t-41 -6.5q-40 0 -71 15t-52 41.5t-32 63t-11 79.5q0 51 14 90t38 65t56 39.5t68 13.5q41 0 71 -24v17h121v-531h-129zM509 378q0 29 -12 49t-41 20q-34 0 -47 -25.5t-13 -73.5q0 -43 12 -68.5t47 -25.5q28 0 41 22.5t13 52.5v49zM920 300
q0 -95 -34 -176.5t-94 -142.5t-142.5 -95.5t-179.5 -34.5q-91 0 -172.5 33t-143 92.5t-97.5 142t-36 181.5q0 94 34 176t94 142.5t142 95t179 34.5q91 0 173 -32.5t143.5 -91.5t97.5 -141.5t36 -182.5zM821 300q0 75 -27 140.5t-74 114t-111 76.5t-139 28
q-71 0 -134.5 -26.5t-111.5 -74t-76 -113.5t-28 -145q0 -75 26.5 -140.5t73.5 -114t111 -76.5t139 -28q71 0 135 26.5t112 73.5t76 113t28 146z" />
    <glyph glyph-name="uni24E1" unicode="&#x24e1;" horiz-adv-x="940" 
d="M486 477q24 19 54 19q15 0 32.5 -3.5t34.5 -11.5v-113q-26 13 -38.5 16t-22.5 3q-24 0 -35.5 -20t-11.5 -48v-222h-126v392h113v-12zM920 300q0 -95 -34 -176.5t-94 -142.5t-142.5 -95.5t-179.5 -34.5q-91 0 -172.5 33t-143 92.5t-97.5 142t-36 181.5q0 94 34 176
t94 142.5t142 95t179 34.5q91 0 173 -32.5t143.5 -91.5t97.5 -141.5t36 -182.5zM821 300q0 75 -27 140.5t-74 114t-111 76.5t-139 28q-71 0 -134.5 -26.5t-111.5 -74t-76 -113.5t-28 -145q0 -75 26.5 -140.5t73.5 -114t111 -76.5t139 -28q71 0 135 26.5t112 73.5t76 113
t28 146z" />
    <glyph glyph-name="uni24E2" unicode="&#x24e2;" horiz-adv-x="940" 
d="M362 228q32 -17 51.5 -22t39.5 -5q17 0 24 4t9 15q2 14 -9.5 23.5t-34.5 18.5q-54 21 -78 54t-24 75q0 30 11.5 51.5t31 36t45.5 21.5t55 7q15 0 27.5 -1.5t24.5 -5t25 -10t30 -16.5l-33 -95q-14 13 -33 19.5t-36 8.5q-14 2 -23 -2t-9 -12q0 -13 11.5 -21.5t35.5 -18.5
q57 -23 79.5 -56.5t22.5 -77.5q0 -60 -39.5 -90.5t-114.5 -30.5q-35 0 -61.5 10.5t-58.5 28.5zM920 300q0 -95 -34 -176.5t-94 -142.5t-142.5 -95.5t-179.5 -34.5q-91 0 -172.5 33t-143 92.5t-97.5 142t-36 181.5q0 94 34 176t94 142.5t142 95t179 34.5q91 0 173 -32.5
t143.5 -91.5t97.5 -141.5t36 -182.5zM821 300q0 75 -27 140.5t-74 114t-111 76.5t-139 28q-71 0 -134.5 -26.5t-111.5 -74t-76 -113.5t-28 -145q0 -75 26.5 -140.5t73.5 -114t111 -76.5t139 -28q71 0 135 26.5t112 73.5t76 113t28 146z" />
    <glyph glyph-name="uni24E3" unicode="&#x24e3;" horiz-adv-x="940" 
d="M506 536v-90h67v-105h-67v-166q0 -14 2.5 -21t10.5 -7q11 0 23 0.5t31 4.5l7 -95q-24 -8 -47 -11.5t-37 -2.5q-35 1 -57.5 12t-36 29t-19 41t-5.5 48v168h-44v105h44v90h128zM920 300q0 -95 -34 -176.5t-94 -142.5t-142.5 -95.5t-179.5 -34.5q-91 0 -172.5 33t-143 92.5
t-97.5 142t-36 181.5q0 94 34 176t94 142.5t142 95t179 34.5q91 0 173 -32.5t143.5 -91.5t97.5 -141.5t36 -182.5zM821 300q0 75 -27 140.5t-74 114t-111 76.5t-139 28q-71 0 -134.5 -26.5t-111.5 -74t-76 -113.5t-28 -145q0 -75 26.5 -140.5t73.5 -114t111 -76.5t139 -28
q71 0 135 26.5t112 73.5t76 113t28 146z" />
    <glyph glyph-name="uni24E4" unicode="&#x24e4;" horiz-adv-x="940" 
d="M427 239q0 -22 8.5 -31t27.5 -9q13 0 23 9.5t16 20.5v265h128v-392h-118v16q-12 -11 -30.5 -17t-41.5 -6q-63 0 -101.5 36.5t-38.5 106.5v256h127v-255zM920 300q0 -95 -34 -176.5t-94 -142.5t-142.5 -95.5t-179.5 -34.5q-91 0 -172.5 33t-143 92.5t-97.5 142t-36 181.5
q0 94 34 176t94 142.5t142 95t179 34.5q91 0 173 -32.5t143.5 -91.5t97.5 -141.5t36 -182.5zM821 300q0 75 -27 140.5t-74 114t-111 76.5t-139 28q-71 0 -134.5 -26.5t-111.5 -74t-76 -113.5t-28 -145q0 -75 26.5 -140.5t73.5 -114t111 -76.5t139 -28q71 0 135 26.5
t112 73.5t76 113t28 146z" />
    <glyph glyph-name="uni24E5" unicode="&#x24e5;" horiz-adv-x="940" 
d="M534 477h130l-133 -391h-123l-132 391h133l61 -216zM920 300q0 -95 -34 -176.5t-94 -142.5t-142.5 -95.5t-179.5 -34.5q-91 0 -172.5 33t-143 92.5t-97.5 142t-36 181.5q0 94 34 176t94 142.5t142 95t179 34.5q91 0 173 -32.5t143.5 -91.5t97.5 -141.5t36 -182.5z
M821 300q0 75 -27 140.5t-74 114t-111 76.5t-139 28q-71 0 -134.5 -26.5t-111.5 -74t-76 -113.5t-28 -145q0 -75 26.5 -140.5t73.5 -114t111 -76.5t139 -28q71 0 135 26.5t112 73.5t76 113t28 146z" />
    <glyph glyph-name="uni24E6" unicode="&#x24e6;" horiz-adv-x="940" 
d="M920 300q0 -95 -34 -176.5t-94 -142.5t-142.5 -95.5t-179.5 -34.5q-91 0 -172.5 33t-143 92.5t-97.5 142t-36 181.5q0 94 34 176t94 142.5t142 95t179 34.5q91 0 173 -32.5t143.5 -91.5t97.5 -141.5t36 -182.5zM821 300q0 75 -27 140.5t-74 114t-111 76.5t-139 28
q-71 0 -134.5 -26.5t-111.5 -74t-76 -113.5t-28 -145q0 -75 26.5 -140.5t73.5 -114t111 -76.5t139 -28q71 0 135 26.5t112 73.5t76 113t28 146zM573 298l38 201h119l-92 -392h-120l-49 190l-48 -190h-120l-92 392h119l38 -201l54 201h99z" />
    <glyph glyph-name="uni24E7" unicode="&#x24e7;" horiz-adv-x="940" 
d="M920 300q0 -95 -34 -176.5t-94 -142.5t-142.5 -95.5t-179.5 -34.5q-91 0 -172.5 33t-143 92.5t-97.5 142t-36 181.5q0 94 34 176t94 142.5t142 95t179 34.5q91 0 173 -32.5t143.5 -91.5t97.5 -141.5t36 -182.5zM821 300q0 75 -27 140.5t-74 114t-111 76.5t-139 28
q-71 0 -134.5 -26.5t-111.5 -74t-76 -113.5t-28 -145q0 -75 26.5 -140.5t73.5 -114t111 -76.5t139 -28q71 0 135 26.5t112 73.5t76 113t28 146zM536 299l131 -195h-137l-63 93l-62 -93h-137l131 195l-132 197h138l62 -94l63 94h138z" />
    <glyph glyph-name="uni24E8" unicode="&#x24e8;" horiz-adv-x="940" 
d="M920 300q0 -95 -34 -176.5t-94 -142.5t-142.5 -95.5t-179.5 -34.5q-91 0 -172.5 33t-143 92.5t-97.5 142t-36 181.5q0 94 34 176t94 142.5t142 95t179 34.5q91 0 173 -32.5t143.5 -91.5t97.5 -141.5t36 -182.5zM821 300q0 75 -27 140.5t-74 114t-111 76.5t-139 28
q-71 0 -134.5 -26.5t-111.5 -74t-76 -113.5t-28 -145q0 -75 26.5 -140.5t73.5 -114t111 -76.5t139 -28q71 0 135 26.5t112 73.5t76 113t28 146zM656 530l-149 -447q-15 -46 -45.5 -65t-78.5 -19q-19 0 -33 3t-35 12l15 96q14 -7 23 -9t20 -1q10 1 22 38l22 66l-133 326h129
l60 -157l53 157h130z" />
    <glyph glyph-name="uni24E9" unicode="&#x24e9;" horiz-adv-x="940" 
d="M317 499h299v-83l-148 -205h154v-104h-311v83l147 205h-141v104zM920 300q0 -95 -34 -176.5t-94 -142.5t-142.5 -95.5t-179.5 -34.5q-91 0 -172.5 33t-143 92.5t-97.5 142t-36 181.5q0 94 34 176t94 142.5t142 95t179 34.5q91 0 173 -32.5t143.5 -91.5t97.5 -141.5
t36 -182.5zM821 300q0 75 -27 140.5t-74 114t-111 76.5t-139 28q-71 0 -134.5 -26.5t-111.5 -74t-76 -113.5t-28 -145q0 -75 26.5 -140.5t73.5 -114t111 -76.5t139 -28q71 0 135 26.5t112 73.5t76 113t28 146z" />
    <glyph glyph-name="SF100000" unicode="&#x2500;" horiz-adv-x="940" 
d="M0 286v29h940v-29h-940z" />
    <glyph glyph-name="uni2501" unicode="&#x2501;" horiz-adv-x="940" 
d="M0 271v54h920v-54h-920z" />
    <glyph glyph-name="SF110000" unicode="&#x2502;" horiz-adv-x="940" 
d="M455 -200v1000h29v-1000h-29z" />
    <glyph glyph-name="uni2503" unicode="&#x2503;" horiz-adv-x="940" 
d="M442 -200v1000h54v-1000h-54z" />
    <glyph glyph-name="SF010000" unicode="&#x250c;" horiz-adv-x="940" 
d="M484 286v-486h-29v515h485v-29h-456z" />
    <glyph glyph-name="uni250D" unicode="&#x250d;" horiz-adv-x="940" 
d="M488 264v-464h-38v536h490v-72h-452z" />
    <glyph glyph-name="uni250E" unicode="&#x250e;" horiz-adv-x="940" 
d="M507 282v-482h-76v518h509v-36h-433z" />
    <glyph glyph-name="uni250F" unicode="&#x250f;" horiz-adv-x="940" 
d="M496 271v-471h-54v525h498v-54h-444z" />
    <glyph glyph-name="SF030000" unicode="&#x2510;" horiz-adv-x="940" 
d="M455 -200v486h-455v29h484v-515h-29z" />
    <glyph glyph-name="uni2511" unicode="&#x2511;" horiz-adv-x="940" 
d="M450 -200v464h-450v72h488v-536h-38z" />
    <glyph glyph-name="uni2512" unicode="&#x2512;" horiz-adv-x="940" 
d="M431 -200v482h-431v36h507v-518h-76z" />
    <glyph glyph-name="uni2513" unicode="&#x2513;" horiz-adv-x="940" 
d="M442 -200v471h-442v54h496v-525h-54z" />
    <glyph glyph-name="SF020000" unicode="&#x2514;" horiz-adv-x="940" 
d="M455 286v514h29v-485h426v-29h-455z" />
    <glyph glyph-name="uni2515" unicode="&#x2515;" horiz-adv-x="940" 
d="M450 264v536h38v-464h452v-72h-490z" />
    <glyph glyph-name="uni2516" unicode="&#x2516;" horiz-adv-x="940" 
d="M431 282v518h76v-482h433v-36h-509z" />
    <glyph glyph-name="uni2517" unicode="&#x2517;" horiz-adv-x="940" 
d="M442 271v529h54v-475h444v-54h-498z" />
    <glyph glyph-name="SF040000" unicode="&#x2518;" horiz-adv-x="940" 
d="M0 286v29h455v485h29v-514h-484z" />
    <glyph glyph-name="uni2519" unicode="&#x2519;" horiz-adv-x="940" 
d="M0 264v72h450v464h38v-536h-488z" />
    <glyph glyph-name="uni251A" unicode="&#x251a;" horiz-adv-x="940" 
d="M0 282v36h431v482h76v-518h-507z" />
    <glyph glyph-name="uni251B" unicode="&#x251b;" horiz-adv-x="940" 
d="M0 271v54h442v475h54v-529h-496z" />
    <glyph glyph-name="SF080000" unicode="&#x251c;" horiz-adv-x="940" 
d="M484 286v-486h-29v1000h29v-485h436v-29h-436z" />
    <glyph glyph-name="uni251D" unicode="&#x251d;" horiz-adv-x="940" 
d="M488 264v-464h-38v1000h38v-464h452v-72h-452z" />
    <glyph glyph-name="uni251E" unicode="&#x251e;" horiz-adv-x="940" 
d="M487 282v-482h-37v500h-19v500h76v-482h433v-36h-453z" />
    <glyph glyph-name="uni251F" unicode="&#x251f;" horiz-adv-x="940" 
d="M507 282v-482h-76v500h19v500h38v-482h452v-36h-433z" />
    <glyph glyph-name="uni2520" unicode="&#x2520;" horiz-adv-x="940" 
d="M507 282v-482h-76v1000h76v-482h433v-36h-433z" />
    <glyph glyph-name="uni2521" unicode="&#x2521;" horiz-adv-x="940" 
d="M488 264v-464h-38v500h-19v500h76v-464h433v-72h-452z" />
    <glyph glyph-name="uni2522" unicode="&#x2522;" horiz-adv-x="940" 
d="M507 264v-464h-76v500h19v500h38v-464h452v-72h-433z" />
    <glyph glyph-name="uni2523" unicode="&#x2523;" horiz-adv-x="940" 
d="M496 271v-471h-54v1000h54v-475h444v-54h-444z" />
    <glyph glyph-name="SF090000" unicode="&#x2524;" horiz-adv-x="940" 
d="M455 -200v486h-455v29h455v485h29v-1000h-29z" />
    <glyph glyph-name="uni2525" unicode="&#x2525;" horiz-adv-x="940" 
d="M450 -200v464h-450v72h450v464h38v-1000h-38z" />
    <glyph glyph-name="uni2526" unicode="&#x2526;" horiz-adv-x="940" 
d="M488 300v-500h-38v482h-450v36h431v482h76v-500h-19z" />
    <glyph glyph-name="uni2527" unicode="&#x2527;" horiz-adv-x="940" 
d="M431 -200v482h-431v36h450v482h38v-500h19v-500h-76z" />
    <glyph glyph-name="uni2528" unicode="&#x2528;" horiz-adv-x="940" 
d="M431 -200v482h-431v36h431v482h76v-1000h-76z" />
    <glyph glyph-name="uni2529" unicode="&#x2529;" horiz-adv-x="940" 
d="M488 300v-500h-38v464h-450v72h431v464h76v-500h-19z" />
    <glyph glyph-name="uni252A" unicode="&#x252a;" horiz-adv-x="940" 
d="M431 -200v464h-431v72h450v464h38v-500h19v-500h-76z" />
    <glyph glyph-name="uni252B" unicode="&#x252b;" horiz-adv-x="940" 
d="M442 -200v471h-442v54h442v475h54v-1000h-54z" />
    <glyph glyph-name="SF060000" unicode="&#x252c;" horiz-adv-x="940" 
d="M484 286v-486h-29v486h-455v29h940v-29h-456z" />
    <glyph glyph-name="uni252D" unicode="&#x252d;" horiz-adv-x="940" 
d="M488 282v-482h-38v464h-450v72h469v-18h471v-36h-452z" />
    <glyph glyph-name="uni252E" unicode="&#x252e;" horiz-adv-x="940" 
d="M488 264v-464h-38v482h-450v36h469v18h471v-72h-452z" />
    <glyph glyph-name="uni252F" unicode="&#x252f;" horiz-adv-x="940" 
d="M488 264v-464h-38v464h-450v72h940v-72h-452z" />
    <glyph glyph-name="uni2530" unicode="&#x2530;" horiz-adv-x="940" 
d="M507 282v-482h-76v482h-431v36h940v-36h-433z" />
    <glyph glyph-name="uni2531" unicode="&#x2531;" horiz-adv-x="940" 
d="M507 282v-482h-76v464h-431v72h469v-18h471v-36h-433z" />
    <glyph glyph-name="uni2532" unicode="&#x2532;" horiz-adv-x="940" 
d="M507 264v-464h-76v482h-431v36h469v18h471v-72h-433z" />
    <glyph glyph-name="uni2533" unicode="&#x2533;" horiz-adv-x="940" 
d="M496 271v-471h-54v471h-442v54h920v-54h-424z" />
    <glyph glyph-name="SF070000" unicode="&#x2534;" horiz-adv-x="940" 
d="M0 286v29h455v485h29v-485h436v-29h-920z" />
    <glyph glyph-name="uni2535" unicode="&#x2535;" horiz-adv-x="940" 
d="M469 282v-18h-469v72h450v464h38v-482h452v-36h-471z" />
    <glyph glyph-name="uni2536" unicode="&#x2536;" horiz-adv-x="940" 
d="M469 264v18h-469v36h450v482h38v-464h452v-72h-471z" />
    <glyph glyph-name="uni2537" unicode="&#x2537;" horiz-adv-x="940" 
d="M0 264v72h450v464h38v-464h452v-72h-940z" />
    <glyph glyph-name="uni2538" unicode="&#x2538;" horiz-adv-x="940" 
d="M0 282v36h431v482h76v-482h433v-36h-940z" />
    <glyph glyph-name="uni2539" unicode="&#x2539;" horiz-adv-x="940" 
d="M469 282v-18h-469v72h431v464h76v-482h433v-36h-471z" />
    <glyph glyph-name="uni253A" unicode="&#x253a;" horiz-adv-x="940" 
d="M469 264v18h-469v36h431v482h76v-464h433v-72h-471z" />
    <glyph glyph-name="uni253B" unicode="&#x253b;" horiz-adv-x="940" 
d="M0 271v54h442v475h54v-475h444v-54h-940z" />
    <glyph glyph-name="SF050000" unicode="&#x253c;" horiz-adv-x="940" 
d="M484 285v-485h-29v485h-455v29h455v486h29v-486h436v-29h-436z" />
    <glyph glyph-name="uni253D" unicode="&#x253d;" horiz-adv-x="940" 
d="M488 282v-482h-38v464h-450v76h450v460h38v-482h452v-36h-452z" />
    <glyph glyph-name="uni253E" unicode="&#x253e;" horiz-adv-x="940" 
d="M488 264v-464h-38v482h-450v36h450v482h38v-464h452v-72h-452z" />
    <glyph glyph-name="uni253F" unicode="&#x253f;" horiz-adv-x="940" 
d="M488 264v-464h-38v464h-450v72h450v464h38v-464h452v-72h-452z" />
    <glyph glyph-name="uni2540" unicode="&#x2540;" horiz-adv-x="940" 
d="M488 282v-482h-38v482h-450v36h431v482h76v-482h433v-36h-452z" />
    <glyph glyph-name="uni2541" unicode="&#x2541;" horiz-adv-x="940" 
d="M507 282v-482h-76v482h-431v36h450v482h38v-482h452v-36h-433z" />
    <glyph glyph-name="uni2542" unicode="&#x2542;" horiz-adv-x="940" 
d="M507 282v-482h-76v482h-431v36h431v482h76v-482h433v-36h-433z" />
    <glyph glyph-name="uni2543" unicode="&#x2543;" horiz-adv-x="940" 
d="M488 282v-482h-38v464h-450v72h431v464h76v-482h433v-36h-452z" />
    <glyph glyph-name="uni2544" unicode="&#x2544;" horiz-adv-x="940" 
d="M488 264v-464h-38v482h-450v36h431v482h76v-464h433v-72h-452z" />
    <glyph glyph-name="uni2545" unicode="&#x2545;" horiz-adv-x="940" 
d="M507 282v-482h-76v464h-431v72h450v464h38v-482h452v-36h-433z" />
    <glyph glyph-name="uni2546" unicode="&#x2546;" horiz-adv-x="940" 
d="M507 264v-464h-76v482h-431v36h450v482h38v-464h452v-72h-433z" />
    <glyph glyph-name="uni2547" unicode="&#x2547;" horiz-adv-x="940" 
d="M488 264v-464h-38v464h-450v72h431v464h76v-464h433v-72h-452z" />
    <glyph glyph-name="uni2548" unicode="&#x2548;" horiz-adv-x="940" 
d="M507 264v-464h-76v464h-431v72h450v464h38v-464h452v-72h-433z" />
    <glyph glyph-name="uni2549" unicode="&#x2549;" horiz-adv-x="940" 
d="M507 282v-482h-76v464h-431v72h431v464h76v-482h433v-36h-433z" />
    <glyph glyph-name="uni254A" unicode="&#x254a;" horiz-adv-x="940" 
d="M507 264v-464h-76v482h-431v36h431v482h76v-464h433v-72h-433z" />
    <glyph glyph-name="uni254B" unicode="&#x254b;" horiz-adv-x="940" 
d="M496 271v-471h-54v471h-442v54h442v475h54v-475h444v-54h-444z" />
    <glyph glyph-name="shade" unicode="&#x2592;" horiz-adv-x="940" 
d="M886 680q0 -15 -10 -24t-23 -9q-15 0 -25.5 9t-10.5 24t10.5 24.5t25.5 9.5q13 0 23 -9.5t10 -24.5zM759 680q0 -15 -10 -24t-25 -9t-25 9t-10 24t10 25t25 10t25 -10t10 -25zM886 553q0 -15 -10 -25t-23 -10q-15 0 -25.5 9.5t-10.5 25.5q0 15 10.5 24.5t25.5 9.5
q13 0 23 -9.5t10 -24.5zM632 680q0 -15 -9.5 -24t-24.5 -9t-25 9t-10 24t10 25t25 10t24.5 -10t9.5 -25zM759 554q0 -16 -10 -26t-25 -10t-25 10t-10 26q0 15 10 24.5t25 9.5t25 -9.5t10 -24.5zM886 425q0 -15 -10 -24.5t-23 -9.5q-15 0 -25.5 9.5t-10.5 24.5t10.5 25
t25.5 10q13 0 23 -10t10 -25zM632 554q0 -16 -9.5 -26t-24.5 -10t-25 10t-10 26q0 15 10 24.5t25 9.5t24.5 -9.5t9.5 -24.5zM504 680q0 -15 -9.5 -24t-25.5 -9q-14 0 -23.5 9t-9.5 24t9.5 24.5t23.5 9.5q16 0 25.5 -9.5t9.5 -24.5zM759 426q0 -16 -10 -25.5t-25 -9.5t-25 10
t-10 25t10 24.5t25 9.5t25 -9.5t10 -24.5zM886 297q0 -13 -10 -23t-23 -10q-15 0 -25.5 10t-10.5 23q0 15 10.5 25t25.5 10q13 0 23 -10t10 -25zM632 426q0 -15 -9.5 -25t-24.5 -10t-25 10t-10 25t10 24.5t25 9.5t24.5 -9.5t9.5 -24.5zM504 553q0 -16 -9.5 -25.5t-25.5 -9.5
q-14 0 -23.5 10t-9.5 25t9.5 24.5t23.5 9.5q16 0 25.5 -9.5t9.5 -24.5zM886 171q0 -14 -10 -24.5t-23 -10.5q-15 0 -25.5 10.5t-10.5 24.5t10.5 24t25.5 10q13 0 23 -10t10 -24zM376 680q0 -15 -9.5 -24t-25.5 -9q-15 0 -24.5 9t-9.5 24t9.5 24.5t24.5 9.5q16 0 25.5 -9.5
t9.5 -24.5zM758 297q0 -13 -9.5 -23t-24.5 -10t-25 10t-10 23q0 15 10 25t25 10t24.5 -10t9.5 -25zM504 425q0 -15 -9.5 -24.5t-25.5 -9.5q-14 0 -23.5 9.5t-9.5 24.5t9.5 25t23.5 10q16 0 25.5 -10t9.5 -25zM631 297q0 -13 -9 -23t-24 -10t-25 10t-10 23q0 15 10 25t25 10
t24 -10t9 -25zM887 43q0 -14 -10 -24.5t-23 -10.5q-17 0 -27 10.5t-10 24.5q0 16 10 26t27 10q13 0 23 -10.5t10 -25.5zM250 680q0 -15 -10.5 -24t-25.5 -9t-25 9t-10 24t10 25t25 10t25.5 -10t10.5 -25zM376 553q0 -16 -9.5 -25.5t-25.5 -9.5q-15 0 -24.5 10t-9.5 25
t9.5 24.5t24.5 9.5q16 0 25.5 -9.5t9.5 -24.5zM758 171q0 -14 -9.5 -24.5t-24.5 -10.5t-25 10.5t-10 24.5t10 24t25 10t24.5 -10t9.5 -24zM504 297q0 -13 -9.5 -23t-25.5 -10q-14 0 -23.5 10t-9.5 23q0 15 9.5 25t23.5 10q16 0 25.5 -10t9.5 -25zM631 171q0 -14 -9 -24.5
t-24 -10.5t-25 10.5t-10 24.5t10 24t25 10t24 -10t9 -24zM887 -84q0 -15 -10 -25t-23 -10q-17 0 -27 10t-10 25q0 14 10 24t27 10q13 0 23 -10t10 -24zM250 554q0 -16 -10.5 -26t-25.5 -10t-25 10t-10 26q0 15 10 24.5t25 9.5t25.5 -9.5t10.5 -24.5zM376 425
q0 -15 -9.5 -24.5t-25.5 -9.5q-15 0 -24.5 9.5t-9.5 24.5t9.5 25t24.5 10q16 0 25.5 -10t9.5 -25zM759 43q0 -14 -10 -24.5t-25 -10.5q-14 0 -24.5 10.5t-10.5 24.5q0 15 10 25.5t25 10.5t25 -10.5t10 -25.5zM121 680q0 -15 -10.5 -24t-25.5 -9q-13 0 -23 9t-10 24t10 24.5
t23 9.5q15 0 25.5 -9.5t10.5 -24.5zM504 171q0 -14 -9.5 -24.5t-25.5 -10.5q-14 0 -23.5 10.5t-9.5 24.5t9.5 24t23.5 10q16 0 25.5 -10t9.5 -24zM632 43q0 -14 -9.5 -24.5t-24.5 -10.5t-25 10.5t-10 24.5q0 15 10 25.5t25 10.5t24.5 -10.5t9.5 -25.5zM250 426
q0 -15 -10.5 -25t-25.5 -10t-25 9.5t-10 25.5q0 15 10 24.5t25 9.5t25.5 -9.5t10.5 -24.5zM376 297q0 -13 -9.5 -23t-25.5 -10q-15 0 -24.5 10t-9.5 23q0 15 9.5 25t24.5 10q16 0 25.5 -10t9.5 -25zM759 -84q0 -15 -10 -25t-25 -10q-14 0 -24.5 10.5t-10.5 24.5t10 24t25 10
t25 -10t10 -24zM121 553q0 -15 -10.5 -25t-25.5 -10q-13 0 -23 10t-10 25t10 24.5t23 9.5q15 0 25.5 -9.5t10.5 -24.5zM505 43q0 -14 -9.5 -24.5t-26.5 -10.5q-14 0 -23.5 10.5t-9.5 24.5q0 15 9.5 25.5t23.5 10.5q17 0 26.5 -10t9.5 -26zM632 -84q0 -14 -9.5 -24.5
t-24.5 -10.5t-25 10.5t-10 24.5t10 24t25 10t24.5 -10t9.5 -24zM376 171q0 -14 -9.5 -24.5t-25.5 -10.5q-15 0 -24.5 10.5t-9.5 24.5t9.5 24t24.5 10q16 0 25.5 -10t9.5 -24zM121 424q0 -14 -10.5 -23.5t-25.5 -9.5q-13 0 -23 9.5t-10 23.5q0 17 10 26.5t23 9.5
q15 0 25.5 -9.5t10.5 -26.5zM249 297q0 -13 -10.5 -23t-24.5 -10q-15 0 -25 10t-10 23q0 15 10 25t25 10t25 -10t10 -25zM505 -84q0 -15 -9.5 -25t-26.5 -10q-14 0 -23.5 10t-9.5 25q0 14 9.5 24t23.5 10q17 0 26.5 -10t9.5 -24zM377 43q0 -14 -9.5 -24.5t-25.5 -10.5
q-15 0 -25 10.5t-10 24.5q0 15 10 25.5t25 10.5q16 0 25.5 -10.5t9.5 -25.5zM249 171q0 -14 -10.5 -24.5t-24.5 -10.5q-15 0 -25 10.5t-10 24.5t10 24t25 10t25 -10t10 -24zM121 296q0 -14 -10.5 -23.5t-25.5 -9.5q-13 0 -23 9.5t-10 23.5q0 15 10 24.5t23 9.5
q15 0 25.5 -9.5t10.5 -24.5zM377 -84q0 -15 -9.5 -25t-25.5 -10q-15 0 -25 10t-10 25q0 14 10 24t25 10q16 0 25.5 -10t9.5 -24zM250 43q0 -14 -10.5 -24.5t-25.5 -10.5t-25 10.5t-10 24.5q0 15 10 25.5t25 10.5t25.5 -10.5t10.5 -25.5zM121 171q0 -14 -10.5 -24.5
t-25.5 -10.5q-13 0 -23 10.5t-10 24.5t10 23.5t23 9.5q36 0 36 -33zM250 -84q0 -14 -10.5 -24.5t-25.5 -10.5t-25 10t-10 25q0 14 10 24t25 10t25.5 -10t10.5 -24zM121 43q0 -14 -10.5 -24.5t-25.5 -10.5q-13 0 -23 10.5t-10 24.5t10 24t23 10q15 0 25.5 -10t10.5 -24z
M121 -84q0 -15 -10.5 -25t-25.5 -10q-13 0 -23 10t-10 25q0 14 10 24t23 10q15 0 25.5 -10t10.5 -24z" />
    <glyph glyph-name="filledbox" unicode="&#x25a0;" horiz-adv-x="940" 
d="M85 -81v766h770v-766h-770z" />
    <glyph glyph-name="H22073" unicode="&#x25a1;" horiz-adv-x="940" 
d="M85 -81v766h770v-766h-770zM760 602h-581v-600h581v600z" />
    <glyph glyph-name="uni25A3" unicode="&#x25a3;" horiz-adv-x="940" 
d="M86 -81v766h769v-766h-769zM760 602h-580v-600h580v600zM671 102h-402v400h402v-400z" />
    <glyph glyph-name="uni25A4" unicode="&#x25a4;" horiz-adv-x="940" 
d="M52 -118v829h835v-829h-835zM851 676h-764v-78h764v78zM851 562h-764v-83h764v83zM851 445h-764v-74h764v74zM851 334h-764v-79h764v79zM851 219h-764v-81h764v81zM851 103h-764v-75h764v75zM851 -8h-764v-74h764v74z" />
    <glyph glyph-name="uni25A5" unicode="&#x25a5;" horiz-adv-x="940" 
d="M52 -118v828h835v-828h-835zM852 674h-77v-756h77v756zM740 674h-74v-756h74v756zM629 674h-80v-756h80v756zM513 674h-80v-756h80v756zM396 674h-76v-756h76v756zM285 674h-83v-756h83v756zM166 674h-79v-756h79v756z" />
    <glyph glyph-name="uni25A6" unicode="&#x25a6;" horiz-adv-x="940" 
d="M52 -118v829h835v-829h-835zM851 676h-81v-79h81v79zM737 676h-78v-79h78v79zM851 564h-81v-86h81v86zM626 676h-83v-79h83v79zM737 564h-78v-86h78v86zM851 446h-81v-78h81v78zM626 564h-83v-86h83v86zM511 676h-86v-79h86v79zM737 446h-78v-78h78v78zM851 335h-81v-81
h81v81zM737 335h-78v-81h78v81zM393 676h-76v-79h76v79zM626 446h-83v-78h83v78zM511 564h-86v-86h86v86zM851 221h-81v-84h81v84zM285 676h-85v-79h85v79zM626 335h-83v-81h83v81zM737 221h-78v-84h78v84zM851 105h-81v-78h81v78zM393 564h-76v-86h76v86zM511 446h-86v-78
h86v78zM851 -5h-81v-77h81v77zM737 105h-78v-78h78v78zM167 676h-80v-79h80v79zM626 221h-83v-84h83v84zM285 564h-85v-86h85v86zM511 335h-86v-81h86v81zM393 446h-76v-78h76v78zM737 -5h-78v-77h78v77zM626 105h-83v-78h83v78zM393 335h-76v-81h76v81zM285 446h-85v-78h85
v78zM167 564h-80v-86h80v86zM511 221h-86v-84h86v84zM626 -5h-83v-77h83v77zM285 335h-85v-81h85v81zM511 105h-86v-78h86v78zM393 221h-76v-84h76v84zM167 446h-80v-78h80v78zM511 -5h-86v-77h86v77zM167 335h-80v-81h80v81zM285 221h-85v-84h85v84zM393 105h-76v-78h76v78
zM393 -5h-76v-77h76v77zM285 105h-85v-78h85v78zM167 221h-80v-84h80v84zM285 -5h-85v-77h85v77zM167 105h-80v-78h80v78zM167 -5h-80v-77h80v77z" />
    <glyph glyph-name="uni25A7" unicode="&#x25a7;" horiz-adv-x="940" 
d="M52 -119v830h835v-830h-835zM664 675q48 -48 92.5 -92t91.5 -91v183h-184zM478 675q94 -94 185 -185.5t185 -185.5v142q-57 57 -114 114.5t-114 114.5h-142zM289 675q141 -140 279 -278.5t280 -279.5v142q-106 104 -209.5 207.5t-210.5 208.5h-139zM112 675
q186 -186 368 -366.5t368 -365.5v125q-154 153 -304.5 303.5t-305.5 303.5h-126zM822 -82q-186 185 -368 366.5t-368 367.5v-125q155 -154 306 -305t306 -304h124zM650 -82q-141 142 -281.5 282t-282.5 281v-143q107 -107 211 -210.5t210 -209.5h143zM456 -82
q-94 94 -185 185.5t-185 185.5v-146q59 -57 115.5 -113t113.5 -112h141zM264 -82q-45 46 -89 90.5t-89 91.5v-182h178z" />
    <glyph glyph-name="uni25A8" unicode="&#x25a8;" horiz-adv-x="940" 
d="M52 710h835v-828h-835v828zM478 -82h142l228 227v141zM289 -82h139l420 415v142zM664 -82h184v181zM112 -82h126l610 604v127zM86 64v-123l736 733h-124zM86 254v-144l564 564h-143zM86 448v-146l370 372h-141zM86 491l178 183h-178v-183z" />
    <glyph glyph-name="uni25A9" unicode="&#x25a9;" horiz-adv-x="940" 
d="M53 -119v829h834v-829h-834zM360 208q-18 19 -36.5 37.5l-36.5 36.5q-18 -18 -36 -36.5t-37 -36.5q19 -18 37.5 -36.5l36.5 -36.5zM554 408q18 18 36 35t36 35l-72 72l-72 -72q18 -18 36 -35t36 -35zM650 503q18 18 35 36t35 36l-70 71q-18 -18 -36 -35.5t-36 -35.5z
M189 42q18 18 35.5 36t35.5 37l-69 69l-71 -72zM382 42l35.5 35.5t36.5 35.5l-70 70l-71 -71q18 -18 34.5 -35t34.5 -35zM816 478l-69 70q-18 -18 -36 -35.5t-36 -35.5l71 -69zM286 -52q18 18 36 35l36 34l-70 70l-72 -72q18 -18 35 -33.5t35 -33.5zM456 505q18 18 35.5 36
t35.5 36q-17 18 -32.5 34t-32.5 33l-36 -36t-37 -36l34 -34zM652 314q18 18 34 34.5t34 33.5q-18 18 -34 35t-34 35q-18 -18 -34 -34.5t-34 -33.5zM473 -50q19 18 37 35.5t36 35.5l-66 65l-70 -71q15 -16 31 -32t32 -33zM258 308q-17 16 -32.5 32t-32.5 33
q-18 -18 -35.5 -35t-35.5 -35q16 -16 32 -32.5t33 -33.5zM744 219q17 18 35 35t36 35l-33 33t-34 32l-69 -69l33 -33t32 -33zM269 646q-17 -16 -32.5 -31.5l-31.5 -31.5q18 -18 36 -35.5t36 -35.5l62 63zM189 425q16 16 32 31.5t32 31.5q-18 17 -36.5 34.5t-36.5 35.5
l-62 -62zM564 224q30 32 62 62q-18 18 -35 36t-35 36q-15 -17 -31 -32.5t-32 -32.5zM468 322q16 16 30.5 31.5t30.5 31.5l-69 69q-16 -16 -31.5 -31t-30.5 -31zM380 234q15 16 30.5 31t30.5 31q-18 18 -35 35.5t-35 35.5l-60 -63q18 -17 34.5 -34.5t34.5 -35.5zM537 199
q-17 18 -33.5 35t-33.5 35q-17 -16 -32.5 -31t-30.5 -31q17 -18 34.5 -34.5t35.5 -34.5zM750 38q17 16 32 32t31 32q-17 17 -32.5 33t-33.5 33q-16 -16 -31.5 -31t-31.5 -32l33 -33t33 -34zM433 481l-33 33t-33 32q-33 -32 -63 -63q16 -16 32 -31.5t34 -32.5zM281 330
q16 17 31 32.5t31 31.5q-16 17 -32 33l-32 32q-16 -15 -31.5 -31t-31.5 -32q17 -17 32.5 -33t32.5 -33zM657 132q16 17 31 32l31 31l-65 66q-16 -16 -31.5 -32t-30.5 -32zM725 13l-66 66l-62 -62q18 -17 34 -32.5t32 -33.5zM570 47q16 14 30.5 29.5t29.5 30.5
q-16 17 -31.5 33t-31.5 33q-16 -15 -31.5 -30.5t-30.5 -32.5q17 -16 32.5 -32t32.5 -31zM849 647q-22 -20 -40.5 -39t-38.5 -39l79 -78v156zM87 -60l39 39t40 39q-21 20 -40 40t-39 40v-158zM87 322l39 39t40 39l-79 78v-156zM652 -82q-21 19 -39.5 38t-39.5 38
q-20 -19 -39 -38t-39 -38h157zM849 269q-20 -19 -39 -38l-38 -38l77 -77v153zM87 136q19 20 38 39l39 39q-20 19 -39 37t-38 37v-152zM740 599q20 19 39 38t38 37h-154q20 -18 39 -37zM774 380q18 -20 37 -38.5t38 -37.5v150q-19 -19 -38 -37t-37 -37zM364 600l37.5 37.5
t37.5 36.5h-150zM192 -10q-19 -18 -37 -36t-37 -36h149zM458 -82q-19 18 -37.5 35.5t-36.5 35.5l-72 -71h146zM551 602q18 18 35.5 36t35.5 36h-143zM849 80l-70 -69l70 -69v138zM753 -15q-18 -18 -34.5 -33.5t-34.5 -33.5h136zM153 585l-66 66v-132zM176 609
q18 17 33.5 32.5l32.5 32.5h-131z" />
    <glyph glyph-name="triagup" unicode="&#x25b2;" horiz-adv-x="940" 
d="M473 642l410 -650h-827z" />
    <glyph glyph-name="uni25B3" unicode="&#x25b3;" horiz-adv-x="940" 
d="M473 642l410 -650h-827zM472 478l-262 -408h516z" />
    <glyph glyph-name="uni25B6" unicode="&#x25b6;" horiz-adv-x="940" 
d="M153 -92v794l638 -399z" />
    <glyph glyph-name="uni25B7" unicode="&#x25b7;" horiz-adv-x="940" 
d="M153 -92v794l638 -399zM241 549v-490l399 243z" />
    <glyph glyph-name="triagdn" unicode="&#x25bc;" horiz-adv-x="940" 
d="M56 598h827l-410 -650z" />
    <glyph glyph-name="uni25BD" unicode="&#x25bd;" horiz-adv-x="940" 
d="M56 598h827l-410 -650zM726 520h-516l262 -408z" />
    <glyph glyph-name="uni25C0" unicode="&#x25c0;" horiz-adv-x="940" 
d="M148 302l638 399v-794z" />
    <glyph glyph-name="uni25C1" unicode="&#x25c1;" horiz-adv-x="940" 
d="M148 302l638 399v-794zM299 301l399 -243v490z" />
    <glyph glyph-name="uni25C6" unicode="&#x25c6;" horiz-adv-x="940" 
d="M469 -149l-455 453l455 453l457 -453z" />
    <glyph glyph-name="uni25C7" unicode="&#x25c7;" horiz-adv-x="940" 
d="M469 -149l-455 453l455 453l457 -453zM802 304l-333 333l-332 -333l332 -332z" />
    <glyph glyph-name="uni25C8" unicode="&#x25c8;" horiz-adv-x="940" 
d="M469 -149l-455 453l455 453l457 -453zM802 304l-333 333l-332 -333l332 -332zM469 47l-257 257l257 257l257 -257z" />
    <glyph glyph-name="circle" unicode="&#x25cb;" horiz-adv-x="940" 
d="M877 300q0 -85 -31 -159t-85.5 -129t-129 -87t-161.5 -32q-82 0 -156 30.5t-129.5 84.5t-88 128.5t-32.5 163.5q0 84 31 158t85.5 129t128.5 86.5t161 31.5q82 0 156 -30t130 -83.5t88.5 -128t32.5 -163.5zM776 300q0 66 -23.5 123.5t-64.5 100.5t-97 67.5t-121 24.5
q-62 0 -117.5 -23.5t-97 -65.5t-66 -100t-24.5 -127q0 -66 23 -124t64 -101.5t97 -68.5t121 -25q62 0 117.5 23.5t97.5 66t66.5 101t24.5 128.5z" />
    <glyph glyph-name="uni25CE" unicode="&#x25ce;" horiz-adv-x="940" 
d="M730 301q0 -54 -19.5 -101.5t-54.5 -82.5t-82.5 -55.5t-103.5 -20.5q-53 0 -99.5 19.5t-82 54t-56 82.5t-20.5 104q0 53 19.5 100t54 82t81.5 55t103 20q53 0 100 -19t82.5 -53t56.5 -81t21 -104zM635 301q0 36 -12.5 68t-34.5 56t-52 38t-66 14q-34 0 -63.5 -13
t-51.5 -36.5t-35 -55.5t-13 -71q0 -37 12 -69.5t34 -56.5t51.5 -38t65.5 -14q34 0 64 13.5t52.5 37t35.5 56t13 71.5zM877 300q0 -85 -31 -159t-85.5 -129t-129 -87t-161.5 -32q-82 0 -156 30.5t-129.5 84.5t-88 128.5t-32.5 163.5q0 84 31 158t85.5 129t128.5 86.5
t161 31.5q82 0 156 -30t130 -83.5t88.5 -128t32.5 -163.5zM776 300q0 66 -23.5 123.5t-64.5 100.5t-97 67.5t-121 24.5q-62 0 -117.5 -23.5t-97 -65.5t-66 -100t-24.5 -127q0 -66 23 -124t64 -101.5t97 -68.5t121 -25q62 0 117.5 23.5t97.5 66t66.5 101t24.5 128.5z" />
    <glyph glyph-name="H18533" unicode="&#x25cf;" horiz-adv-x="940" 
d="M877 300q0 -85 -31 -159t-85.5 -129t-129 -87t-161.5 -32q-82 0 -156 30.5t-129.5 84.5t-88 128.5t-32.5 163.5q0 84 31 158t85.5 129t128.5 86.5t161 31.5q82 0 156 -30t130 -83.5t88.5 -128t32.5 -163.5z" />
    <glyph glyph-name="uni25D0" unicode="&#x25d0;" horiz-adv-x="940" 
d="M875 302q0 -87 -31 -161t-86 -129t-130 -86t-163 -31q-85 0 -158.5 31t-127.5 85.5t-85 129t-31 161.5t31 161t85 128t127.5 84.5t158.5 30.5q88 0 163 -31t130 -85t86 -128t31 -160zM795 301q0 64 -23 122t-63.5 102.5t-95.5 73t-118 33.5v-663q63 5 117.5 33t95 72.5
t64 103t23.5 123.5z" />
    <glyph glyph-name="uni25D1" unicode="&#x25d1;" horiz-adv-x="940" 
d="M63 302q0 86 31 160t86 128t130 85t163 31q85 0 158.5 -30.5t127.5 -84.5t85 -128t31 -161t-31 -161.5t-85 -129t-127.5 -85.5t-158.5 -31q-88 0 -163 31t-130 86t-86 129t-31 161zM143 301q0 -65 23.5 -123.5t64 -103t95 -72.5t117.5 -33v663q-63 -5 -118 -33.5
t-95.5 -73t-63.5 -102.5t-23 -122z" />
    <glyph glyph-name="uni2605" unicode="&#x2605;" horiz-adv-x="940" 
d="M636 252l109 -322l-278 205l-274 -199l105 320l-255 192h320l105 300l107 -300h321z" />
    <glyph glyph-name="uni2606" unicode="&#x2606;" horiz-adv-x="940" 
d="M515 385l-47 137l-46 -137h-178l142 -110l-54 -152l133 99l137 -101l-55 153l146 111h-178zM636 252l109 -322l-278 205l-274 -199l105 320l-255 192h320l105 300l107 -300h321z" />
    <glyph glyph-name="uni260E" unicode="&#x260e;" horiz-adv-x="940" 
d="M913 391q0 -64 -50 -64q-45 0 -103 19q-74 23 -74 55q0 13 9 36q10 21 10 33q0 11 -16.5 20t-33.5 9q-13 0 -13 -14v-29q0 -68 30 -119q7 -12 23 -31.5t41 -46.5q22 -23 36.5 -45.5t22.5 -43.5q8 -17 12 -46q3 -17 5.5 -29t4.5 -17q1 -7 12 -25q8 -14 8 -25
q0 -23 -20.5 -38t-51.5 -15h-632q-39 0 -39 45q0 17 9 32q5 8 8.5 15t4.5 12q2 14 5 27t6 27q5 19 10.5 34t12.5 26q12 19 60 70q22 22 37 41t23 35q28 49 28 115v42q0 9 -8 9q-16 0 -33 -13t-17 -29q0 -8 7.5 -26.5t7.5 -33.5q0 -37 -75 -62q-60 -21 -106 -21q-47 0 -47 61
q0 134 167 191q112 39 276 39q152 0 271 -38q172 -57 172 -182zM587 523q-34 -4 -62.5 -6t-53.5 -2q-26 0 -55.5 2.5t-63.5 7.5v-87q0 -39 58 -39h110q67 0 67 41v83zM633 203q0 35 -12.5 65.5t-35 52.5t-52.5 34.5t-66 12.5q-35 0 -65.5 -12.5t-53 -34.5t-35 -52.5
t-12.5 -65.5t13 -65t35.5 -51.5t52.5 -34t65 -12.5t65 12t52.5 34t35.5 52t13 65z" />
    <glyph glyph-name="uni260F" unicode="&#x260f;" horiz-adv-x="940" 
d="M883 386q0 55 -39 97t-120 69q-107 37 -253 37q-142 0 -258 -38q-81 -27 -120 -69.5t-39 -98.5q0 -22 7.5 -31t21.5 -9q15 0 35 4t48 13q64 20 64 43q0 5 -9 25q-9 21 -9 36q0 25 30 46q29 20 58 20q26 0 26 -49q0 -57 -12.5 -104t-41.5 -83q-23 -29 -48 -54.5t-48 -53.5
q-8 -10 -13.5 -24t-10.5 -32q-3 -14 -6 -29t-6 -29q-2 -9 -12 -28q-7 -13 -7 -26q0 -19 21 -19h616q50 0 50 30q0 14 -8 30q-6 13 -9.5 20.5t-4.5 9.5q-2 14 -5.5 35t-13.5 48q-8 22 -24.5 43t-38.5 44q-48 52 -62 79q-28 52 -28 134q0 52 30 52q27 0 54 -12q36 -16 36 -41
q0 -16 -10 -36q-11 -22 -11 -33q0 -19 60 -37q52 -15 81 -15t29 36zM587 440q0 -41 -67 -41h-110q-58 0 -58 39v87q34 -5 63.5 -7.5t55.5 -2.5q25 0 53.5 2t62.5 6v-83zM633 203q0 -35 -13 -65t-35.5 -52t-52.5 -34t-65 -12t-65 12.5t-52.5 34t-35.5 51.5t-13 65t12.5 65.5
t35 52.5t53 34.5t65.5 12.5q36 0 66 -12.5t52.5 -34.5t35 -52.5t12.5 -65.5zM557 497q-32 -7 -87 -7q-27 0 -48 2t-41 7v-52q0 -22 37 -22h101q38 0 38 23v49zM599 204q0 27 -9.5 51.5t-26.5 43.5t-41 30t-54 11t-55 -10.5t-42.5 -29t-27 -43.5t-9.5 -53q0 -29 9 -53.5
t26 -42.5t41 -28.5t55 -10.5q30 0 54.5 10.5t42 29t27.5 43t10 52.5zM922 390q0 -35 -16 -54t-45 -19q-20 0 -48.5 6t-56.5 14q-38 11 -59 27.5t-21 35.5q0 14 11 40q4 8 6 13.5t2 10.5q0 8 -10 12.5t-22 7.5q-4 1 -7 0t-3 -7v-22q0 -66 29 -115q7 -12 23 -31.5t39 -45.5
q22 -23 37 -46t23 -44q5 -10 8 -22t5 -24q4 -19 6 -32t4 -17q0 -1 11 -20q9 -15 9 -28q0 -25 -21.5 -44t-63.5 -19h-626q-29 0 -40 15t-11 40q0 18 9 35q5 8 8 14t4 11q2 14 5 27l6 26q11 38 24 62q12 19 60 70q21 21 36 40t23 35q14 23 21.5 51t7.5 60v31q0 6 -3.5 8.5
t-7.5 0.5q-10 -3 -19 -9.5t-9 -22.5q0 -5 2 -8.5t4 -10.5q3 -9 6 -19.5t3 -20.5q0 -17 -21.5 -36.5t-58.5 -31.5q-26 -8 -55.5 -15.5t-51.5 -7.5q-27 0 -43.5 18t-16.5 51q0 67 47 119t129 81q55 20 125 29.5t151 9.5q152 0 271 -38q88 -29 134.5 -78t46.5 -113z" />
    <glyph glyph-name="uni261C" unicode="&#x261c;" horiz-adv-x="940" 
d="M780 187v21h-26q-13 -6 -25.5 -12t-25.5 -11q-26 -11 -54.5 -19t-60.5 -13q-31 -4 -112 -3q-74 2 -77 3q-20 0 -36 9q-19 10 -19 29q0 20 16 26q-22 0 -32 16q-6 9 -6 18q0 14 11 28q-12 0 -23.5 10t-12.5 22q0 36 81 39l-3 8q-23 1 -65 3t-103 5q-74 3 -75 4
q-49 7 -46 40q2 27 50 32q17 2 33 2t32 1q46 2 115.5 3.5t166.5 1.5q89 0 116 -3q75 -11 124 -55q2 -3 59 -5v31h73v-231h-75zM782 370q-1 0 -6.5 0.5l-16.5 1.5q-6 1 -11 1h-10q4 -9 4 -16q0 -3 -2 -3t-20 19q-22 21 -44 35q-43 28 -159 28q-18 0 -21 -1q-42 -9 -65 -24
q-11 -6 -21 -25q-11 -20 -20 -26q-1 -1 2.5 -4t10.5 -3t18 3q9 4 25 18q16 15 19 15q2 0 3 -1q3 -6 -4 -15q0 -2 17 -4q16 -2 24 0q5 2 11.5 4t13.5 6q13 7 14 7q2 0 2 -1q2 -10 -14 -23q5 -5 10.5 -10t11.5 -10q24 -21 55 -31q25 -7 65 -12q26 -5 26 -9q0 -6 -31 -5
q-30 2 -55 9q-41 12 -72 39l-26 26q-17 -3 -22 -3q-24 0 -42 7l-14 -13q8 -2 15.5 -3.5t14.5 -3.5q31 -9 33 -17q3 -8 3 -13q0 -14 -14 -28q9 0 20.5 -11.5t11.5 -20.5q0 -14 -16 -26q11 -3 16 -7q15 -9 16 -22q1 -18 -13 -32h4t8 -1h12t10 1q36 2 72 11.5t73 25.5
q55 22 58 27v-11q1 -1 20 0v151zM445 435q-61 0 -121.5 -1t-121.5 -3q-28 -1 -46.5 -2t-26.5 -3q-26 -5 -27 -19q0 -15 23 -21q17 -3 77 -6q39 -2 84.5 -3.5t99.5 -3.5q3 4 8 11.5t12 18.5q10 18 39 32zM839 401h-43v-198h43v198zM480 293q9 7 9 17q0 19 -28 23q-36 7 -87 3
q-34 1 -53 -12q-6 -5 -6 -12q0 -20 23 -20q2 -2 56 -2q78 0 86 3zM506 253q0 23 -44 23h-96q-10 0 -18.5 -7.5t-8.5 -15.5q0 -12 14 -20q2 -1 15.5 -2t36.5 -2q43 -2 48 0q17 0 30 4q22 6 23 16v4zM522 197q-3 17 -31 17h-48h-26.5t-35.5 -1q-19 -1 -19 -20q0 -16 13 -20
q16 -5 63 -6q45 0 47 2q11 0 23 6q17 9 14 22z" />
    <glyph glyph-name="uni261E" unicode="&#x261e;" horiz-adv-x="940" 
d="M158 418v-31q55 1 59 5q49 44 124 55q27 3 116 3q97 0 166.5 -1.5t115.5 -3.5q16 -1 32 -1t33 -2q48 -5 50 -32q3 -33 -46 -40q-1 -1 -75 -4q-61 -3 -103 -5t-65 -3l-3 -8q81 -3 81 -39q-1 -12 -12.5 -22t-23.5 -10q11 -14 11 -28q0 -9 -6 -18q-10 -16 -32 -16
q16 -6 16 -26q0 -19 -19 -29q-17 -9 -36 -9q-3 -1 -77 -3q-81 -1 -112 3q-59 9 -115 32q-13 5 -25.5 11t-25.5 12h-26v-21h-75v231h73zM158 219q19 -1 20 0v11q2 -5 58 -27q37 -16 73 -25.5t72 -11.5q5 -1 10 -1h12q5 1 8 1h4q-14 14 -13 32q1 13 16 22q5 4 16 7
q-16 12 -16 26q0 9 11.5 20.5t20.5 11.5q-14 14 -14 28q0 5 3 13q2 8 33 17q7 2 14.5 3.5t15.5 3.5l-14 13q-18 -7 -42 -7q-6 0 -22 3l-26 -26q-32 -27 -72 -39q-25 -7 -55 -9q-31 -1 -31 5q0 4 26 9q40 5 65 12q31 10 55 31q6 5 11.5 10t10.5 10q-16 13 -14 23q0 1 2 1
q1 0 14 -7q7 -4 13.5 -6t11.5 -4q7 -2 24 0t17 4q-7 9 -4 15q1 1 3 1t19 -15q16 -14 25 -18q10 -3 18 -3q7 0 10.5 3t2.5 4q-9 6 -20 26q-10 19 -21 25q-23 15 -65 24q-3 1 -21 1q-116 0 -159 -28q-23 -14 -44 -35q-18 -19 -20 -19t-2 3q0 7 4 16h-10t-11 -1l-16.5 -1.5
t-6.5 -0.5v-151zM495 435q29 -14 39 -32q7 -11 12 -18.5t8 -11.5q54 2 99.5 3.5t84.5 3.5q60 3 77 6q23 6 23 21q-1 14 -27 19q-8 2 -26.5 3t-46.5 2q-61 2 -121.5 3t-121.5 1zM144 401h-43v-198h43v198zM460 293q7 -3 86 -3q54 0 56 2q23 0 23 20q0 7 -6 12q-19 13 -53 12
q-51 4 -87 -3q-28 -4 -28 -23q0 -10 9 -17zM434 249q1 -10 23 -16q13 -4 30 -4q4 -2 48 0q23 1 36.5 2t15.5 2q14 8 14 20q0 8 -8.5 15.5t-18.5 7.5h-96q-44 0 -44 -23v-4zM418 197q-3 -13 14 -22q12 -6 23 -6q2 -2 47 -2q46 1 63 6q13 4 13 20q0 19 -19 20q-20 1 -35.5 1
h-26.5h-48q-28 0 -31 -17z" />
    <glyph glyph-name="female" unicode="&#x2640;" horiz-adv-x="630" 
d="M547 496q0 -40 -13 -76.5t-36 -65.5t-55 -50.5t-70 -31.5v-102h170v-107h-170v-190h-117v190h-168v107h168v102q-39 9 -71 29.5t-55 50t-35.5 66.5t-12.5 78q0 49 17.5 91.5t48.5 74t73.5 49t92.5 17.5q51 0 93.5 -18t73.5 -49.5t48.5 -73.5t17.5 -91zM431 496
q0 27 -9 50.5t-24.5 41t-37 27t-46.5 9.5q-50 0 -83.5 -35.5t-33.5 -92.5q0 -59 33.5 -94t83.5 -35q51 0 84 36t33 93z" />
    <glyph glyph-name="male" unicode="&#x2642;" horiz-adv-x="630" 
d="M369 327q43 -9 76.5 -31t56 -52.5t34.5 -67t12 -74.5q0 -51 -19 -93.5t-51 -73.5t-74.5 -48t-89.5 -17t-89 17.5t-73.5 48.5t-50.5 73.5t-19 92.5q0 37 11 73t32.5 66.5t54 53t74.5 31.5v186l-98 -108l-79 72l237 265l218 -267l-81 -80l-82 105v-172zM436 103
q0 27 -8.5 50t-24.5 40.5t-38.5 27t-49.5 9.5q-54 0 -87.5 -36t-33.5 -91q0 -57 33.5 -92.5t87.5 -35.5q55 0 88 36.5t33 91.5z" />
    <glyph glyph-name="spade" unicode="&#x2660;" horiz-adv-x="940" 
d="M605 -128h-271v51q7 13 14 30.5t13.5 36.5t11.5 38.5t8 36.5q-29 -18 -58.5 -27t-48.5 -9q-34 0 -61.5 12t-46.5 34t-29.5 52t-10.5 65q0 42 23 98.5t66.5 126t107.5 149.5t147 169q82 -89 146.5 -169t108 -149.5t66.5 -126t23 -98.5q0 -35 -10.5 -65t-29.5 -52
t-46.5 -34t-61.5 -12q-20 0 -48.5 9t-59.5 27q5 -35 18.5 -74.5t28.5 -67.5v-51z" />
    <glyph glyph-name="uni2661" unicode="&#x2661;" horiz-adv-x="940" 
d="M177 471q0 -65 28 -133.5t71 -130.5t94 -111.5t97 -76.5q46 27 96.5 76.5t93.5 111.5t71 130.5t28 133.5q0 64 -25 100t-76 36q-42 0 -71 -32.5t-46 -77.5q-9 -25 -24.5 -43t-45.5 -18q-33 0 -48.5 18t-24.5 43q-17 45 -46 77.5t-70 32.5q-51 0 -76.5 -36t-25.5 -100z
M467 -83q-91 55 -163.5 125.5t-122.5 145.5t-77 149.5t-27 137.5q0 46 13 85.5t38 67.5t62 44t85 16q66 0 115.5 -33t76.5 -99q27 66 76.5 99t115.5 33q48 0 85 -16t61.5 -44t37.5 -67.5t13 -85.5q0 -63 -25.5 -136t-74.5 -147t-122 -145.5t-167 -129.5z" />
    <glyph glyph-name="club" unicode="&#x2663;" horiz-adv-x="940" 
d="M334 -76q15 29 29.5 59t22.5 63q3 13 3.5 17.5t-2.5 5.5q-6 2 -14 -6t-16 -14q-29 -23 -56.5 -34t-66.5 -11q-41 0 -75 16t-58 43t-37.5 63t-13.5 75q0 40 14 75t38 61.5t56.5 42t70.5 15.5q56 0 119 -35q5 -3 12.5 -6t11.5 4t-0.5 11t-9.5 9q-23 21 -39.5 39t-27 37.5
t-16 42.5t-5.5 54q0 39 16.5 71.5t44 56t62.5 36.5t73 13q37 0 72.5 -13t63 -36.5t44 -56t16.5 -71.5q0 -31 -5.5 -54t-17 -43t-28.5 -38t-39 -39l-8.5 -8.5t0.5 -10.5t11 -4.5t12 5.5q64 36 120 36q37 0 70 -15.5t57 -42t38 -61.5t14 -75q0 -39 -13.5 -75t-37.5 -63
t-58 -43t-75 -16q-39 0 -66.5 11t-56.5 34q-8 6 -16 12.5t-14 5.5q-5 -1 -3.5 -4.5t4.5 -16.5q8 -33 22.5 -63t29.5 -59v-44h-272v44z" />
    <glyph glyph-name="uni2664" unicode="&#x2664;" horiz-adv-x="940" 
d="M605 -128h-271v51q7 13 14 30.5t13.5 36.5t11.5 38.5t8 36.5q-29 -18 -58.5 -27t-48.5 -9q-34 0 -61.5 12t-46.5 34t-29.5 52t-10.5 65q0 42 23 98.5t66.5 126t107.5 149.5t147 169q82 -89 146.5 -169t108 -149.5t66.5 -126t23 -98.5q0 -35 -10.5 -65t-29.5 -52
t-46.5 -34t-61.5 -12q-20 0 -48.5 9t-59.5 27q5 -35 18.5 -74.5t28.5 -67.5v-51zM716 193q0 39 -25.5 93.5t-63 112.5t-80 112.5t-77.5 92.5q-35 -38 -77.5 -92.5t-80 -112.5t-63 -112.5t-25.5 -93.5q0 -33 10.5 -56.5t39.5 -23.5q17 0 36 8t55 30q11 7 23.5 11.5t26.5 4.5
q24 0 35.5 -13.5t11.5 -46.5q0 -34 -8.5 -77t-20.5 -78v-3h73v3q-11 35 -19 78t-8 77q0 33 11 46.5t35 13.5q14 0 26.5 -4.5t23.5 -11.5q36 -22 56.5 -30t34.5 -8q29 0 39.5 23.5t10.5 56.5z" />
    <glyph glyph-name="heart" unicode="&#x2665;" horiz-adv-x="940" 
d="M467 -83q-91 55 -163.5 125.5t-122.5 145.5t-77 149.5t-27 137.5q0 46 13 85.5t38 67.5t62 44t85 16q66 0 115.5 -33t76.5 -99q27 66 76.5 99t115.5 33q48 0 85 -16t61.5 -44t37.5 -67.5t13 -85.5q0 -63 -25.5 -136t-74.5 -147t-122 -145.5t-167 -129.5z" />
    <glyph glyph-name="uni2667" unicode="&#x2667;" horiz-adv-x="940" 
d="M334 -76q15 29 29.5 59t22.5 63q3 13 3.5 17.5t-2.5 5.5q-6 2 -14 -6t-16 -14q-29 -23 -56.5 -34t-66.5 -11q-41 0 -75 16t-58 43t-37.5 63t-13.5 75q0 40 14 75t38 61.5t56.5 42t70.5 15.5q56 0 119 -35q5 -3 12.5 -6t11.5 4t-0.5 11t-9.5 9q-23 21 -39.5 39t-27 37.5
t-16 42.5t-5.5 54q0 39 16.5 71.5t44 56t62.5 36.5t73 13q37 0 72.5 -13t63 -36.5t44 -56t16.5 -71.5q0 -31 -5.5 -54t-17 -43t-28.5 -38t-39 -39l-8.5 -8.5t0.5 -10.5t11 -4.5t12 5.5q64 36 120 36q37 0 70 -15.5t57 -42t38 -61.5t14 -75q0 -39 -13.5 -75t-37.5 -63
t-58 -43t-75 -16q-39 0 -66.5 11t-56.5 34q-8 6 -16 12.5t-14 5.5q-5 -1 -3.5 -4.5t4.5 -16.5q8 -33 22.5 -63t29.5 -59v-44h-272v44zM508 -44v2q-15 37 -22.5 80t-7.5 77q0 27 13 41t33 14q27 0 47 -18q29 -27 58.5 -46.5t68.5 -19.5q50 0 78.5 34t28.5 85q0 23 -7.5 44
t-21 37t-32.5 25.5t-41 9.5q-39 0 -80 -22q-14 -8 -32 -13.5t-35.5 -6t-34 5.5t-27.5 21q-19 26 -13.5 53t27.5 49q19 19 33 34.5t23 31t13 32.5t4 41q0 46 -31.5 75t-79.5 29t-79 -29t-31 -75q0 -24 4 -41t12.5 -32.5t22 -31t33.5 -34.5q20 -20 26 -50t-12 -54
q-11 -14 -26.5 -20t-33.5 -5t-36 6.5t-33 13.5q-40 22 -80 22q-23 0 -41.5 -9.5t-32 -25.5t-21 -37t-7.5 -44q0 -51 28.5 -85t78.5 -34q39 0 68.5 19.5t58.5 46.5q19 18 47 18q20 0 33 -14t13 -41q0 -17 -2 -37t-6 -41t-9.5 -41t-12.5 -38v-2h76z" />
    <glyph glyph-name="uni2668" unicode="&#x2668;" horiz-adv-x="940" 
d="M665 248q0 -45 -36 -114q-20 -39 -32 -67t-14 -45h-13q-8 32 -8 55q0 17 3 40t10 51q7 31 10.5 53.5t3.5 38.5q0 43 -22 109t-22 106q0 22 33 91q17 38 27.5 63t13.5 37h11q7 -14 7 -47q0 -12 -2 -30t-6 -42q-4 -23 -6 -41t-2 -31q0 -48 22 -115t22 -112zM538 260
q0 -51 -38 -125q-25 -48 -39.5 -77.5t-18.5 -43.5h-15q-2 10 -3.5 21.5t-1.5 25.5q0 38 19 95q19 58 19 97t-24 113q-24 73 -24 111q0 48 33 119q36 73 39 116h13q18 -38 18 -75q0 -27 -15 -79q-15 -51 -15 -76q0 -29 26 -109q27 -74 27 -113zM397 248q0 -44 -36 -113
q-20 -38 -32 -66.5t-14 -45.5h-12q-9 19 -9 56q0 39 13 90q7 28 10 51t3 41q0 38 -21 109q-20 78 -20 107q0 21 32 90q17 35 27.5 60t12.5 40h11q6 -20 6 -47q0 -13 -2 -31.5t-6 -43.5t-6 -43t-2 -31q0 -46 22 -113q23 -80 23 -110zM872 90q0 -42 -20.5 -73t-54.5 -54
t-77 -37.5t-89 -23.5t-90.5 -12.5t-80.5 -3.5q-33 0 -74.5 3.5t-85 12t-85.5 22.5t-74.5 35.5t-52.5 50.5t-20 68q0 34 22 62.5t54 50.5t69.5 36.5t69.5 20.5l4 -13q-19 -6 -44.5 -20t-49 -32.5t-39.5 -39.5t-16 -41q0 -27 17.5 -46.5t45 -33t63 -21.5t71 -12t68.5 -5.5
t57 -1.5q25 0 60.5 1.5t74 6t76.5 13t68.5 23t49.5 35.5t19 51q0 28 -29 58.5t-92 56.5l7 12q26 -5 57 -18.5t58 -33t45 -44.5t18 -53z" />
    <glyph glyph-name="uni2669" unicode="&#x2669;" horiz-adv-x="400" 
d="M299 70q0 -30 -13 -59t-35 -52t-51 -37.5t-60 -14.5q-40 0 -59.5 16t-19.5 53q0 21 11 41t30 35t44 24.5t52 9.5h13q9 0 9 9v624h79v-649z" />
    <glyph glyph-name="musicalnote" unicode="&#x266a;" horiz-adv-x="600" 
d="M288 70q0 -30 -13 -59t-35 -52t-51 -37.5t-60 -14.5q-40 0 -59.5 16t-19.5 53q0 21 11 41t30 35t44 24.5t52 9.5h13q9 0 9 9v621h51q29 -50 71.5 -88t93.5 -75q62 -46 93.5 -97t31.5 -125q0 -77 -44 -138t-112 -111l-25 28q29 30 47.5 57.5t29 52.5t14 46.5t3.5 40.5
q0 20 -6.5 37.5t-23.5 34.5q-32 31 -71.5 55.5t-73.5 56.5v-421z" />
    <glyph glyph-name="uni266C" unicode="&#x266c;" horiz-adv-x="840" 
d="M741 179q0 -30 -13 -59t-35 -52t-51 -37.5t-60 -14.5q-40 0 -59.5 16t-19.5 53q0 21 11 41t30 35t44 24.5t52 9.5h13q9 0 9 9v224l-368 -79v-279q0 -30 -13 -59t-35 -52t-51 -37.5t-60 -14.5q-40 0 -59.5 16t-19.5 53q0 21 11 41t30 35t44 24.5t52 9.5h13q9 0 9 9v536
l526 112v-564zM662 596l-365 -82v-33l365 83v32z" />
    <glyph glyph-name="uni266D" unicode="&#x266d;" horiz-adv-x="580" 
d="M485 302q0 -78 -31 -140.5t-84.5 -106.5t-125 -68.5t-151.5 -26.5v734h127v-288q26 23 53.5 34t62.5 11q76 0 112.5 -40t36.5 -109zM351 271q0 30 -8 47.5t-31 17.5q-15 0 -29 -8.5t-26 -22t-21.5 -30t-15.5 -32.5v-154q63 23 97 69.5t34 112.5z" />
    <glyph glyph-name="uni3001" unicode="&#x3001;" horiz-adv-x="940" 
d="M58 23v107l245 -98v-165z" />
    <glyph glyph-name="uni3002" unicode="&#x3002;" horiz-adv-x="940" 
d="M314 0q0 -25 -9 -47t-25 -38t-38 -25.5t-49 -9.5q-25 0 -47 9.5t-38.5 25.5t-26 38t-9.5 47q0 27 9.5 49t26 38t38.5 25t47 9t47 -9t38.5 -25.5t26 -38.5t9.5 -48zM249 0q0 28 -16 44.5t-40 16.5t-40 -16.5t-16 -44.5t16 -44t40 -16t40 16t16 44z" />
    <glyph glyph-name="uni3003" unicode="&#x3003;" horiz-adv-x="940" 
d="M344 121h-79l92 338h139zM528 121h-79l92 338h139z" />
    <glyph glyph-name="uni3008" unicode="&#x3008;" horiz-adv-x="550" 
d="M213 300l297 -364l-80 -63l-349 427l350 426l79 -64z" />
    <glyph glyph-name="uni3009" unicode="&#x3009;" horiz-adv-x="550" 
d="M35 662l79 64l350 -426l-349 -427l-80 63l297 364z" />
    <glyph glyph-name="uni300A" unicode="&#x300a;" horiz-adv-x="600" 
d="M320 300l251 -382l-78 -45l-283 427l281 427l78 -45zM172 300l251 -382l-78 -45l-283 427l281 427l78 -45z" />
    <glyph glyph-name="uni300B" unicode="&#x300b;" horiz-adv-x="600" 
d="M41 682l78 45l281 -427l-283 -427l-78 45l251 382zM189 682l78 45l281 -427l-283 -427l-78 45l251 382z" />
    <glyph glyph-name="uni300C" unicode="&#x300c;" horiz-adv-x="450" 
d="M409 645h-191v-338h-127v442h318v-104z" />
    <glyph glyph-name="uni300D" unicode="&#x300d;" horiz-adv-x="450" 
d="M40 -44h191v347h127v-451h-318v104z" />
    <glyph glyph-name="uni300E" unicode="&#x300e;" horiz-adv-x="450" 
d="M409 603h-158v-296h-160v440h318v-144zM343 662v22h-186v-315h27v293h159z" />
    <glyph glyph-name="uni300F" unicode="&#x300f;" horiz-adv-x="450" 
d="M40 0h158v304h160v-451h-318v147zM106 -62v-23h186v327h-27v-304h-159z" />
    <glyph glyph-name="uni3010" unicode="&#x3010;" horiz-adv-x="460" 
d="M102 -132v865h352q-48 -39 -83 -88.5t-58 -105.5t-34.5 -116t-11.5 -121t11 -121.5t34 -117t58.5 -106.5t84.5 -89h-353z" />
    <glyph glyph-name="uni3011" unicode="&#x3011;" horiz-adv-x="460" 
d="M5 -132q49 39 84.5 89t58.5 106.5t34 117t11 121.5t-11.5 121t-34.5 116t-58 105.5t-83 88.5h352v-865h-353z" />
    <glyph glyph-name="uni3013" unicode="&#x3013;" horiz-adv-x="940" 
d="M43 362v102h855v-102h-855zM43 123v102h855v-102h-855z" />
    <glyph glyph-name="uni3014" unicode="&#x3014;" horiz-adv-x="500" 
d="M406 -84l-39 -88l-241 103v739l242 105l38 -88l-165 -75v-623z" />
    <glyph glyph-name="uni3015" unicode="&#x3015;" horiz-adv-x="500" 
d="M269 -11v623l-165 75l38 88l242 -105v-739l-241 -103l-39 88z" />
    <glyph glyph-name="uni3041" unicode="&#x3041;" horiz-adv-x="760" 
d="M85 462q70 -3 145 -3q1 27 3 54t5 54h105q-4 -26 -6 -52t-4 -53q59 3 120 8.5t127 14.5v-96q-62 -8 -124.5 -13.5t-125.5 -8.5v-34t1 -34q28 6 55.5 9.5t54.5 3.5q53 0 103 -11.5t88.5 -37t62 -66.5t23.5 -99q0 -52 -22 -91t-58 -67t-82.5 -45t-96.5 -25l-22 91
q35 6 67 16.5t57 27t39.5 39t14.5 54.5q0 29 -16.5 58t-58.5 47q-27 -53 -69.5 -111t-95.5 -105q4 -15 7.5 -30t8.5 -30l-94 -43l-12 42q-23 -11 -46 -17t-46 -6q-26 0 -50 7t-43 23t-30.5 43t-11.5 66q0 38 13 71t36.5 61.5t55 51.5t68.5 40q-3 48 -3 98q-36 -1 -72 -1
t-71 2v97zM197 4q30 0 65 20q-7 33 -12 66.5t-10 67.5q-33 -23 -53.5 -51.5t-20.5 -61.5q0 -26 10 -33.5t21 -7.5zM352 100q26 29 49 60t40 62q-47 0 -103 -17q3 -26 6.5 -52.5t7.5 -52.5z" />
    <glyph glyph-name="uni3042" unicode="&#x3042;" 
d="M110 588q84 -3 168 -3q2 35 4.5 70t6.5 71h121q-5 -35 -8.5 -69.5t-5.5 -69.5q73 2 147 7.5t151 15.5v-104q-77 -10 -151.5 -15.5t-150.5 -7.5v-81q70 14 133 14q60 0 121 -13t109.5 -43t79.5 -79.5t31 -121.5q0 -60 -22 -106t-61.5 -80t-94 -56.5t-118.5 -33.5l-29 104
q45 8 83 20.5t65.5 32.5t43 49t15.5 70q0 44 -26 82.5t-88 57.5q-35 -82 -86 -157t-112 -130q5 -25 10.5 -50t12.5 -51l-114 -30q-4 15 -7.5 30t-6.5 29q-27 -12 -54 -19t-53 -7q-75 0 -120.5 47t-45.5 132q0 49 17 90.5t46 76t69 61t86 46.5q-2 28 -2 56.5t1 57.5
q-42 0 -82.5 0.5t-82.5 1.5v105zM231 28q40 0 78 21q-9 51 -15.5 101.5t-10.5 102.5q-47 -27 -76.5 -66t-29.5 -90q0 -30 13 -49.5t41 -19.5zM413 144q53 66 105 169q-29 -1 -60 -4.5t-61 -11.5q3 -38 7 -76.5t9 -76.5z" />
    <glyph glyph-name="uni3043" unicode="&#x3043;" horiz-adv-x="720" 
d="M407 104q-25 -56 -47.5 -92t-44.5 -57t-43 -29.5t-42 -8.5q-48 0 -79.5 26t-50 69t-26 97.5t-7.5 111.5q0 68 7 127.5t13 95.5l123 -11q-7 -42 -13 -104t-6 -124q0 -34 2 -63.5t7.5 -51t14 -34t20.5 -12.5q10 0 20 9t20 24.5t18.5 35t16.5 40.5zM553 -12q-5 43 -13 88.5
t-20.5 92.5t-30.5 94t-45 94l112 54q57 -94 82 -192t33 -188z" />
    <glyph glyph-name="uni3044" unicode="&#x3044;" horiz-adv-x="800" 
d="M447 175q-80 -254 -196 -254q-60 0 -96.5 37t-55.5 96.5t-25 134.5t-6 152q0 71 4.5 141t12.5 148l133 -10q-2 -14 -4.5 -43.5t-5.5 -69.5t-5 -86.5t-2 -94.5q0 -51 1 -100.5t6 -88.5t15 -63t27 -24q16 0 35 42.5t43 122.5zM621 35q-8 128 -36 251t-92 249l120 46
q75 -129 105 -256t35 -256z" />
    <glyph glyph-name="uni3045" unicode="&#x3045;" horiz-adv-x="600" 
d="M177 -19q47 13 90 27t75.5 34t52 49t19.5 71q0 51 -24.5 72t-68.5 21q-29 0 -60.5 -6.5t-63 -16t-61 -21.5t-54.5 -23l-32 114q59 29 128.5 48.5t141.5 19.5q48 0 89 -10.5t70.5 -34.5t46 -64t16.5 -99q0 -66 -27.5 -113.5t-73 -81t-105.5 -56t-124 -37.5zM440 412
q-75 8 -159 21t-162 36l31 111q35 -12 74 -21.5t79 -16.5t78.5 -12t73.5 -8z" />
    <glyph glyph-name="uni3046" unicode="&#x3046;" horiz-adv-x="700" 
d="M204 -23q54 9 108.5 23.5t99 41.5t72.5 70t28 109q0 67 -37.5 95.5t-99.5 28.5q-35 0 -72.5 -6.5t-74.5 -16.5t-72.5 -22.5t-65.5 -24.5l-36 123q71 29 151 48t163 19q61 0 112 -12.5t87.5 -41t56.5 -75t20 -115.5q0 -86 -31.5 -148t-86.5 -105t-130 -69t-162 -39z
M522 524q-88 10 -185 25.5t-185 42.5l36 117q40 -14 85 -24t91 -18t91 -13.5t86 -9.5z" />
    </font>
</defs>
</svg>
